<svg width="160" height="36" fill="none" xmlns="http://www.w3.org/2000/svg"><g clip-path="url(#a)" fill="#fff"><path d="M61.727 7.701v9.305h3.16v1.538H60.11V7.7h1.617ZM72.663 14.373l-1.591-3.689-1.668 3.689h3.259Zm.664 1.538h-4.594l-1.195 2.633h-1.743l5.311-11.525 5.124 11.525h-1.774L73.33 15.91h-.003ZM77.566 18.544V6.96l7.825 8.275V7.701h1.622v11.502l-7.83-8.253v7.594h-1.617ZM91.202 17.006h.73c.728 0 1.33-.078 1.815-.232.481-.162.916-.424 1.305-.778.798-.737 1.194-1.692 1.194-2.872s-.392-2.154-1.182-2.895c-.71-.659-1.755-.99-3.137-.99H91.2v7.767h.003Zm-1.617 1.538V7.7h2.25c1.08 0 1.931.108 2.557.324.672.212 1.282.57 1.828 1.075 1.106 1.022 1.66 2.363 1.66 4.024s-.577 3.014-1.733 4.047c-.58.513-1.186.871-1.82 1.076-.591.2-1.434.3-2.522.3h-2.224l.004-.003ZM105.987 9.308l-1.312.787c-.244-.432-.481-.713-.702-.844-.233-.15-.53-.224-.897-.224-.45 0-.824.127-1.118.385a1.209 1.209 0 0 0-.446.956c0 .528.389.956 1.167 1.28l1.073.443c.87.355 1.507.79 1.911 1.303.405.513.603 1.14.603 1.885 0 .998-.328 1.823-.988 2.474-.664.656-1.484.987-2.469.987-.984 0-1.702-.281-2.304-.84-.6-.56-.973-1.345-1.122-2.355l1.64-.366c.073.636.207 1.075.39 1.322.332.466.82.701 1.461.701.504 0 .923-.17 1.259-.513.332-.339.5-.774.5-1.298 0-.212-.027-.405-.088-.579a1.471 1.471 0 0 0-.271-.481 2.25 2.25 0 0 0-.477-.417 5.013 5.013 0 0 0-.694-.37l-1.034-.435c-1.469-.629-2.205-1.546-2.205-2.752 0-.814.309-1.496.923-2.043.618-.551 1.385-.829 2.301-.829 1.236 0 2.205.605 2.899 1.82v.003ZM109.841 12.026l4.178-4.325h2.16l-4.85 4.907 4.88 5.936h-2.171l-3.865-4.826-.332.339v4.487h-1.621V7.7h1.621v4.325ZM119.277 12.677h.511c1.534 0 2.305-.593 2.305-1.777 0-1.11-.748-1.665-2.24-1.665h-.576v3.442Zm2.015 1.245 3.323 4.622h-1.98l-3.068-4.437h-.294v4.437h-1.621V7.7h1.896c1.419 0 2.446.27 3.075.806.695.6 1.042 1.391 1.042 2.374 0 .767-.221 1.426-.656 1.981a2.917 2.917 0 0 1-1.721 1.06h.004ZM127.084 13.09c0 1.194.396 2.181 1.194 2.952.793.77 1.709 1.156 2.747 1.156 1.126 0 2.076-.393 2.85-1.18.775-.793 1.16-1.764 1.16-2.905 0-1.141-.381-2.124-1.145-2.907-.759-.786-1.701-1.179-2.823-1.179-1.122 0-2.06.393-2.827 1.18-.771.778-1.153 1.734-1.153 2.875l-.003.007Zm-1.637-.016c0-1.526.553-2.837 1.659-3.931 1.103-1.095 2.431-1.642 3.976-1.642s2.843.55 3.934 1.657c1.099 1.106 1.648 2.432 1.648 3.982 0 1.55-.553 2.883-1.656 3.966-1.106 1.09-2.445 1.638-4.01 1.638-1.385 0-2.629-.486-3.731-1.457-1.214-1.072-1.82-2.475-1.82-4.213ZM138.706 18.544V6.96l7.825 8.275V7.701h1.622v11.502l-7.83-8.253v7.594h-1.617ZM156.44 14.373l-1.595-3.689-1.667 3.689h3.262Zm.66 1.538h-4.594l-1.194 2.633h-1.744l5.308-11.525L160 18.544h-1.774l-1.13-2.633h.004ZM66.18 26.568l-1.312.787c-.244-.432-.481-.713-.702-.845-.233-.15-.53-.223-.897-.223-.45 0-.824.127-1.118.385-.298.255-.446.57-.446.956 0 .528.389.956 1.167 1.28l1.072.443c.87.355 1.507.79 1.912 1.303.404.513.603 1.14.603 1.889 0 .998-.328 1.823-.989 2.47-.663.66-1.484.987-2.468.987-.931 0-1.702-.281-2.309-.84-.599-.56-.969-1.345-1.117-2.355l1.64-.367c.073.636.203 1.076.39 1.319.331.466.82.701 1.46.701.504 0 .924-.17 1.26-.512.332-.343.5-.775.5-1.3 0-.211-.03-.404-.088-.578a1.452 1.452 0 0 0-.27-.485 2.256 2.256 0 0 0-.478-.416 4.663 4.663 0 0 0-.694-.367l-1.034-.435c-1.47-.628-2.206-1.546-2.206-2.752 0-.813.31-1.496.924-2.043.618-.551 1.385-.829 2.3-.829 1.237 0 2.206.605 2.9 1.82v.007ZM71.572 26.499v9.304H69.95V26.5h-2.465V24.96h6.547v1.538h-2.46ZM80.538 31.63l-1.591-3.69-1.667 3.69h3.258Zm.66 1.537h-4.594L75.41 35.8h-1.744l5.312-11.525 5.12 11.525h-1.774l-1.126-2.633ZM87.059 34.266h.728c.73 0 1.332-.078 1.817-.232a3.63 3.63 0 0 0 1.305-.778c.797-.736 1.194-1.692 1.194-2.872s-.393-2.154-1.183-2.895c-.71-.659-1.755-.99-3.136-.99h-.73v7.767h.005Zm-1.622 1.537V24.961h2.251c1.08 0 1.935.108 2.56.324.672.212 1.282.57 1.828 1.075 1.107 1.022 1.66 2.363 1.66 4.024s-.576 3.014-1.732 4.043c-.58.517-1.187.875-1.82 1.076-.592.2-1.435.3-2.522.3h-2.225ZM.553 18.987c-.019-.012-.042-.023-.065-.039-.122-.07-.286-.127-.35-.092a.089.089 0 0 1-.127-.035c-.026-.046-.011-.104.031-.127a.284.284 0 0 1 .114-.035.23.23 0 0 1-.038-.115c0-.05.042-.093.092-.093.05 0 .091.042.091.093.008.042.138.15.283.242.03.016.053.031.065.039l-.096.158v.004ZM29.933 2.918a1.763 1.763 0 0 1-.027-.56l.012-.092.091.012s.355.05.591.2l-.099.158a1.335 1.335 0 0 0-.42-.154c-.003.1 0 .258.031.393l-.18.047v-.004ZM32.016 3.203l-.16-.089c.072-.135.11-.304.13-.408-.092 0-.237 0-.37.03l-.043-.18c.245-.058.516-.031.527-.031l.092.007-.012.093s-.034.335-.168.574l.004.004ZM22.702 2.952l-.179-.046c.034-.139.038-.297.034-.393-.099.023-.26.062-.385.135l-.092-.162a1.64 1.64 0 0 1 .554-.177l.095-.012.008.097s.026.304-.035.558ZM20.623 3.226a1.773 1.773 0 0 1-.172-.563l-.011-.092.091-.012s.29-.03.546.031l-.046.181a1.41 1.41 0 0 0-.381-.034c.019.1.06.266.133.397l-.16.092ZM27.693 2.027l-.164-.08c.091-.193.118-.455.126-.59a1.632 1.632 0 0 0-.53.108l-.073-.17c.301-.135.683-.123.702-.123h.088v.092c0 .016.007.451-.145.767l-.004-.004ZM24.95 2.035c-.153-.312-.145-.76-.145-.775v-.088h.091c.02 0 .42-.012.73.13l-.077.17a1.494 1.494 0 0 0-.553-.111c.007.135.03.4.125.597l-.164.081-.007-.004ZM33.66 5.793c-2.686-.512-5.353-.628-6.104-.651v-.185c.759.023 3.437.142 6.139.655l-.035.181ZM19.02 5.809l-.034-.185c1.717-.332 3.785-.552 6.147-.66l.008.185c-2.35.105-4.411.328-6.12.66ZM16.75 10.31v17.368c.172 5.431 4.457 5.547 7.291 5.616 1.153.031 2.011.054 2.332.417.316-.351 1.16-.37 2.293-.401 2.846-.074 7.15-.181 7.33-5.64V10.284c-.062-.023-.168-.065-.317-.107a7.737 7.737 0 0 0-.58-.17c-3.716-.979-8.669-.99-8.719-.99-.06 0-5.105.034-8.829 1.02 0 0-.374.117-.515.163-.099.042-.213.085-.282.108l-.004.003Zm9.684 23.651h-.126l-.027-.05c-.187-.374-1.14-.397-2.247-.428-2.904-.077-7.292-.193-7.47-5.805V10.176l.06-.024s.187-.065.34-.127c.145-.05.511-.162.526-.165 3.755-.999 8.822-1.03 8.871-1.03.061 0 5.037.012 8.776.999.008 0 .271.065.588.17.183.053.313.103.366.127H36.175v17.549c-.183 5.635-4.77 5.75-7.51 5.82-1.09.03-2.029.054-2.212.416l-.027.05h.008Z"/><path d="M26.468 33.865h-.183V8.923h.183v24.942Z"/><path d="M36.076 21.48H16.655v-.184h19.42v.184ZM31.074 30.319c-.222 0-.39-.047-.409-.05l-.137-.039.095-.108c.332-.39.466-.76.393-1.106-.13-.598-.84-.93-.847-.933-1.927-.963-1.823-2.093-1.82-2.143l.183.02s-.084 1.052 1.717 1.95c.031.015.798.373.947 1.063.08.367-.035.752-.332 1.141.221.031.633.043.854-.254.37-.497.374-1.045.012-1.634-.23-.378-.591-.61-.946-.837-.554-.347-1.072-.682-.924-1.5l.183.036c-.13.693.298.967.84 1.31.355.224.755.482 1.003.894.4.656.393 1.292-.023 1.847-.206.281-.53.347-.79.347v-.004Z"/><path d="m31.993 29.733-.038-.181c.034-.008.824-.19.824-1.191 0-.79-.801-1.222-.813-1.23-.904-.663-.583-1.264-.572-1.291l.16.092c-.011.02-.248.486.508 1.041.027.015.896.486.896 1.384 0 1.16-.961 1.372-.969 1.372l.004.004Z"/><path d="m32.89 28.53-.1-.158c.386-.243.592-.497.611-.77.023-.37-.313-.656-.317-.66-.652-.54-.29-1.071-.286-1.075l.149.108s-.263.397.252.825c.015.011.416.343.385.813-.019.335-.256.647-.694.921v-.004Z"/><path d="m33.477 27.347-.08-.166c.347-.177.565-.393.637-.647.092-.32-.072-.598-.072-.598l.156-.096s.206.343.096.74c-.088.308-.336.567-.733.767h-.004ZM30.402 25.593l-.168-.08a.745.745 0 0 0-.68-1.044.742.742 0 0 0-.674 1.047l-.168.073a.931.931 0 0 1 .843-1.307c.508 0 .927.42.927.933 0 .131-.03.259-.084.374l.004.004Z"/><path d="m31.219 24.448-.168-.073a.745.745 0 0 0-.68-1.037.742.742 0 0 0-.675 1.041l-.171.066a.997.997 0 0 1-.077-.359c0-.516.416-.936.924-.936.507 0 .923.42.923.936a.89.89 0 0 1-.08.362h.004Z"/><path d="M31.188 24.448a.943.943 0 0 1-.072-.362c0-.516.412-.936.92-.936a.932.932 0 0 1 .846 1.298l-.168-.073a.745.745 0 0 0-.68-1.037.742.742 0 0 0-.735.748c0 .1.019.2.057.29l-.168.072Z"/><path d="M30.375 25.593a.934.934 0 0 1-.076-.374c0-.512.412-.933.92-.933.507 0 .92.42.92.933 0 .139-.054.305-.07.355l-.175-.062c.027-.08.061-.204.061-.293a.74.74 0 0 0-.733-.748.74.74 0 0 0-.732.748c0 .108.023.208.06.297l-.167.081-.008-.004Z"/><path d="m33.721 25.593-.167-.073a.745.745 0 0 0-.675-1.044.745.745 0 0 0-.676 1.048l-.172.073a.931.931 0 0 1 .847-1.307.931.931 0 0 1 .843 1.307v-.004ZM30.2 30.854h-.183c0-.08.007-.154.026-.223v-.016a.708.708 0 0 1 .187-.377l.13.135a.484.484 0 0 0-.13.289l-.011.03a.691.691 0 0 0-.02.159v.003ZM30.814 32.338c-.294 0-.652-.08-1-.389a1.751 1.751 0 0 1-.412-.601l.168-.073a1.6 1.6 0 0 0 .363.54c.69.6 1.423.226 1.43.223a.744.744 0 0 0 .455-.682c0-.313-.237-.567-.527-.567-.29 0-.519.246-.523.563 0 .107.027.146.092.235l.084.123-.1.046a.409.409 0 0 1-.366 0c-.171-.077-.313-.27-.389-.524l.176-.054c.06.2.168.355.29.413.034.015.068.019.103.019a.464.464 0 0 1-.069-.262c.008-.42.317-.748.706-.748.389 0 .71.335.71.752a.925.925 0 0 1-.561.851s-.264.135-.63.135ZM29.284 31.005c-.023-.108-.046-.216-.053-.328-.038-.424.06-.79.297-1.064l.142.124c-.252.293-.279.666-.252.925.011.1.03.2.05.304l-.18.039h-.004ZM30.028 29.444l-.11-.15c.595-.452.51-1.057.507-1.084l.183-.03c.004.03.11.743-.58 1.264Z"/><path d="M28.529 25.813h5.448v-.162H28.53v.162Zm5.635.189h-5.819v-.532h5.82v.532Z"/><path d="M33.931 25.424c.138 0 .329.038.47.204.133.162.187.404.164.732.145-.189.297-.497.149-.848l-.039-.092.092-.035s.05-.015.114-.015c.107 0 .336.042.45.408.077-.135.153-.324.104-.485-.046-.135-.183-.236-.412-.293l-.252-.062.236-.108s.252-.123.32-.347a.447.447 0 0 0-.014-.289c-.16.174-.516.493-.912.493-.05 0-.1-.004-.145-.015-.206-.042-.336.17-.378.258-.092.19-.103.393-.061.501a.873.873 0 0 1 .11-.007h.004Zm.374 1.433.042-.242c.073-.409.042-.706-.087-.86a.403.403 0 0 0-.329-.139c-.076 0-.133.016-.137.016l-.057.015-.038-.05c-.138-.177-.096-.517.015-.744.13-.27.34-.409.58-.358.034.007.072.007.11.007.45 0 .859-.528.863-.532l.084-.111.069.115c.114.2.144.39.087.563a.73.73 0 0 1-.248.347c.183.08.302.2.351.354.122.378-.233.814-.248.833l-.133.158-.03-.208c-.039-.27-.138-.432-.276-.463.176.64-.423 1.134-.43 1.137l-.192.155.004.007Z"/><path d="m33.863 25.558-.18-.038c.038-.185.256-.54.802-.57l.011.188c-.534.027-.626.401-.63.42h-.003ZM34.134 24.68l-.07-.174c.623-.254.86-.848.924-1.048-.343-.15-.664.223-.679.239l-.16-.085c.088-.29-.069-.594-.176-.72v.06c-.007.24-.015.648-.412.76-.198.05-.313.131-.343.24-.054.188.133.442.21.523l-.134.128s-.347-.378-.252-.702c.05-.177.21-.3.477-.37.24-.066.267-.3.275-.582 0-.089.004-.158.023-.212a.12.12 0 0 1 .156-.077c.138.042.378.378.39.744.202-.147.495-.255.785-.077l.058.038-.016.062c-.007.038-.213.906-1.053 1.249l-.003.004Z"/><path d="M33.607 25.088c-.145-.956.362-1.214.385-1.226l.08.17s-.404.216-.282 1.03l-.183.026ZM27.54 25.373c.062 0 .103.012.111.016l.092.035-.038.092c-.145.347.01.655.156.844-.023-.324.03-.57.16-.732.187-.224.462-.212.584-.193.046-.1.027-.289-.046-.462-.091-.22-.236-.332-.397-.301a.88.88 0 0 1-.145.015c-.4 0-.751-.32-.915-.497a.459.459 0 0 0-.016.293c.073.227.32.343.325.347l.24.108-.256.062c-.229.057-.37.158-.412.293-.05.161.027.35.103.485.115-.366.344-.408.45-.408l.004.003Zm.588 1.484-.195-.154s-.61-.497-.442-1.137c-.134.031-.23.189-.267.463l-.03.208-.134-.158s-.374-.455-.252-.833c.05-.154.168-.27.355-.354a.72.72 0 0 1-.248-.343c-.058-.178-.027-.367.087-.563l.07-.116.083.108s.416.532.866.532c.038 0 .073 0 .11-.008.249-.05.474.108.604.409.095.223.133.54-.016.701l-.038.043-.053-.016s-.057-.015-.137-.015c-.142 0-.252.046-.325.135-.13.158-.156.455-.084.863l.046.243v-.008Z"/><path d="M28.56 25.558s-.096-.393-.623-.42l.012-.189c.538.031.755.386.793.57l-.179.04h-.004ZM28.307 24.687c-.835-.331-1.06-1.218-1.072-1.252l-.015-.066.057-.038c.29-.178.584-.074.786.077.015-.37.256-.706.393-.748a.12.12 0 0 1 .157.077c.019.05.023.12.026.204.012.266.042.498.287.594.27.104.423.254.457.443.061.34-.293.663-.309.675l-.122-.14c.084-.076.286-.307.252-.504-.023-.123-.137-.224-.343-.305-.374-.146-.393-.528-.401-.755v-.062c-.107.124-.263.428-.18.721l-.16.085s-.335-.39-.675-.243c.069.204.32.813.939 1.056l-.069.177-.008.004Z"/><path d="m28.815 25.088-.183-.035c.14-.782-.267-1.02-.283-1.029l.088-.165c.023.007.542.3.378 1.225v.004ZM20.096 28.607c-.728 0-1.099-.142-1.457-.277-.424-.166-.866-.332-1.946-.29l-.008-.184c1.118-.047 1.572.127 2.015.296.359.14.698.266 1.393.266.77 0 1.144-.111 1.541-.23.393-.12.801-.24 1.599-.24.797 0 1.186.096 1.572.193.393.092.767.185 1.534.185v.185c-.79 0-1.19-.096-1.576-.189-.393-.096-.763-.189-1.53-.189s-1.149.116-1.546.235c-.393.116-.797.24-1.594.24h.003ZM20.066 29.648c-.813 0-1.248-.146-1.671-.29-.428-.142-.832-.277-1.614-.277v-.189c.812 0 1.247.15 1.67.293.428.143.833.278 1.615.278s1.167-.112 1.572-.235c.4-.12.816-.243 1.633-.243.816 0 1.21.1 1.606.193.4.096.782.185 1.56.185v.189c-.8 0-1.209-.097-1.602-.19a5.737 5.737 0 0 0-1.564-.184c-.782 0-1.172.111-1.58.235-.4.12-.813.243-1.625.243v-.008ZM19.963 30.72c-.817 0-1.141-.147-1.454-.29-.309-.142-.603-.277-1.377-.277v-.189c.816 0 1.14.15 1.453.293.31.143.6.277 1.378.277.778 0 1.171-.111 1.58-.235.4-.12.816-.239 1.629-.239.812 0 1.21.097 1.602.193.4.1.782.189 1.565.189v.185a5.909 5.909 0 0 1-1.61-.193c-.401-.096-.783-.189-1.561-.189-.778 0-1.175.112-1.58.232-.4.12-.816.239-1.629.239l.004.003ZM19.963 31.791c-.813 0-1.126-.146-1.431-.293a2.346 2.346 0 0 0-.912-.258l.015-.185c.485.046.733.162.973.273.302.143.584.278 1.355.278a4.76 4.76 0 0 0 1.58-.235c.4-.12.816-.243 1.629-.243.812 0 1.21.1 1.602.193.4.096.782.189 1.565.189v.185a5.905 5.905 0 0 1-1.61-.193c-.401-.096-.783-.189-1.561-.189-.778 0-1.175.112-1.58.231-.4.116-.816.243-1.629.243l.004.004ZM19.772 32.859v-.19c.786 0 1.217-.115 1.671-.234a5.728 5.728 0 0 1 1.729-.247c.816 0 1.21.096 1.602.189.4.096.782.185 1.568.185v.189a5.906 5.906 0 0 1-1.61-.193c-.4-.093-.782-.185-1.56-.185-.779 0-1.221.116-1.68.243a5.84 5.84 0 0 1-1.72.243Z"/><path d="M18.826 28.303c-.042-.98-.412-1.858-.584-2.132l-.092-.146h.466s1.877.49 2.556.347l.038.18c-.698.151-2.453-.292-2.629-.338h-.102c.213.408.495 1.214.53 2.081l-.183.008Z"/><path d="m23.229 28.118-.107-.15c.454-.324.656-.845.725-1.072l-5.212.011v-.184l5.449-.012-.023.112c-.008.034-.172.828-.828 1.299l-.004-.004Z"/><path d="M23.965 26.896a.093.093 0 0 1-.072-.035c-.03-.038-.023-.096.015-.13l.446-.352c-1.305.505-2.178.517-2.22.517a.089.089 0 0 1-.092-.093c0-.05.042-.092.092-.092.011 0 1.175-.02 2.789-.775a.093.093 0 0 1 .118.039c.027.038.015.092-.023.123l-.992.783s-.038.019-.057.019l-.004-.004ZM19.413 27.825h-.545v-.189h.545v.189ZM20.745 27.825h-.847v-.189h.847v.189ZM22.107 27.825h-.835v-.189h.835v.189ZM23.519 27.825h-.881v-.189h.88v.189Z"/><path d="M19.512 27.636h.287v-.27h-.287v.27Zm.47.189h-.656v-.648h.656v.648ZM20.867 27.636h.29v-.27h-.29v.27Zm.477.189h-.66v-.648h.66v.648ZM22.233 27.636h.286v-.27h-.286v.27Zm.473.189h-.656v-.648h.656v.648ZM21.268 25.609c.301 0 .526.08.675.235.08.088.137.196.168.323.18-.366.458-1.044.366-1.437-.023-.093-.53-.247-1.805-.247h-.007c.065.247.156.813-.18 1.253.233-.07.52-.127.783-.127Zm.778.955h-.091v-.092c.007-.224-.039-.39-.142-.497-.11-.116-.293-.178-.541-.178-.55 0-1.221.297-1.229.301l-.076-.17c.885-.439.511-1.457.496-1.499l-.046-.123h.26c1.896 0 1.964.293 1.987.39.138.608-.45 1.726-.534 1.834l-.027.038h-.053l-.004-.004Z"/><path d="M21.363 23.793c.4 0 .614.131.725.285.08-.2.187-.54.122-.767-.057-.058-.542-.127-1.343-.127a.9.9 0 0 1-.011.54.738.738 0 0 1-.077.142c.18-.038.386-.069.584-.069v-.004Zm.725.582h-.076l-.016-.073c-.064-.212-.278-.324-.633-.324-.47 0-1.003.2-1.007.2l-.065-.173c.202-.08.332-.2.393-.354.1-.251-.027-.52-.03-.525l-.062-.13h.225c1.496 0 1.55.18 1.572.258.123.42-.19 1.036-.22 1.079l-.028.038h-.05l-.003.004ZM19.081 25.088c.26 0 .45.066.569.19.046.05.08.103.103.169.114-.2.244-.54.103-.868-.057-.061-.496-.119-.992-.127.042.19.042.451-.1.663.096-.015.207-.027.314-.027h.003Zm.615.69h-.092v-.092c.004-.128-.023-.216-.084-.282-.084-.084-.229-.127-.435-.127-.301 0-.618.1-.622.1l-.068-.173c.473-.235.274-.79.263-.813l-.046-.128h.134c.538 0 1.198.043 1.282.24.202.473-.05.94-.164 1.117-.103.158-.134.158-.168.158ZM23.366 25.331c.275 0 .512.17.702.497.16-.239.481-.89.294-1.63-.05-.077-.565-.166-1.427-.17.092.255.248.833.027 1.419a.88.88 0 0 1 .404-.112v-.004Zm.687.756h-.061l-.023-.058c-.164-.336-.366-.513-.599-.513-.332 0-.626.335-.63.343l-.144-.116c.58-.797.125-1.761.122-1.772l-.065-.132h.232c1.572 0 1.633.232 1.656.309.206.82-.156 1.576-.377 1.861-.035.05-.065.081-.111.081v-.003ZM21.298 26.807l-.183-.004.035-1.094.183.004-.035 1.094ZM21.535 26.807l-.027-1.067.183-.004.027 1.067-.183.004Z"/><path d="m21.394 24.383-.184-.008.012-.5.183.007-.011.5ZM21.44 24.383l-.012-.49.183-.007.012.49-.184.007ZM19.192 26.28h-.187v-1.057h.187v1.056ZM19.425 26.33h-.187v-1.107h.187v1.106ZM23.347 26.568h-.187v-1.183h.187v1.183ZM23.572 26.541h-.183v-1.156h.183v1.156ZM21.53 23.069h-.182v-.424h.183v.424Z"/><path d="M21.53 22.328v.205h.016c.084-.008.153-.012.195-.058l.06-.054s.039-.035.058-.05c-.034.004-.072.008-.11.015h-.016a.505.505 0 0 1-.202-.05v-.008Zm-.182.428v-.736l.164.093c.08.046.149.084.217.084a1.48 1.48 0 0 1 .489 0v.182c-.119.019-.195.088-.29.173l-.058.05c-.083.093-.206.104-.305.112-.034.004-.072.008-.103.015l-.114.024v.003ZM23.488 23.901h-.187v-.285h.187v.285Z"/><path d="M23.488 23.3v.204h.004c.096-.008.157-.015.199-.07l.011-.007.05-.046.05-.047c-.031 0-.066.008-.1.012h-.015a.499.499 0 0 1-.199-.046Zm-.187.424v-.733l.138.074a.68.68 0 0 0 .24.096 1.51 1.51 0 0 1 .492 0v.181c-.13.023-.202.089-.297.17l-.05.046c-.091.104-.217.116-.317.123l-.095.012-.11.027v.004ZM19.387 24.379H19.2v-.447h.187v.447Z"/><path d="M19.387 23.674v.204h.015c.091-.008.149-.015.19-.058l.043-.038c.023-.023.05-.043.072-.062-.034 0-.065.008-.099.012h-.015a.478.478 0 0 1-.206-.05v-.008Zm-.187.424v-.74l.168.092a.455.455 0 0 0 .217.085 1.38 1.38 0 0 1 .488.004v.18c-.13.02-.213.101-.312.19l-.039.03c-.087.093-.206.105-.305.112a.476.476 0 0 0-.103.016l-.114.027v.004ZM18.166 28.06h-.187v-.628h-.622v.528h-.183v-.717h.992v.817ZM17.33 23.685h.676l.102-.32-.274.116-.176-.281-.18.289-.255-.116.103.312h.004Zm.809.185h-.942l-.275-.844.488.224.252-.401.248.397.504-.216-.275.836v.004Z"/><path d="m17.464 27.34-.187-.005.091-3.55.187.008-.091 3.546ZM17.872 27.34l-.096-3.547.184-.008.099 3.55-.187.004ZM26.007 28.434h-.184v-.62h-.63v.523h-.182v-.709h.996v.806ZM25.17 23.685h.68l.103-.32-.27.116-.176-.281-.184.289-.255-.116.1.312h.003Zm.814.185h-.947l-.27-.844.488.224.252-.401.248.397.503-.216-.274.836v.004Z"/><path d="m25.305 27.72-.187-.003.095-3.932.187.008-.095 3.928ZM25.717 27.72l-.1-3.927.187-.008.096 3.932-.183.004ZM44.195 33.969H8.604v-.185h35.591v.185Z"/><path d="M46.809 35.927H5.952v-.093c0-.582-.77-.832-.778-.832l-.065-.02V33.78h2.057v.189H5.292v.878c.199.074.779.34.836.895h40.498c.06-.555.64-.821.84-.895v-.878h-1.874v-.19h2.06v1.203l-.065.02s-.778.246-.778.832v.093Z"/><path d="M47.56 35.006H5.204v-.185H47.56v.185ZM30.467 13.733l-.118-.142c.072-.077.042-.14.023-.166a.223.223 0 0 1-.111-.139.285.285 0 0 1 .034-.216c.176-.212.458-.115.637-.008.062-.084 0-.25 0-.254-.14-.362-.652-.354-.656-.354h-.053l-.027-.047a.46.46 0 0 1-.061-.37.488.488 0 0 1 .072-.135.272.272 0 0 1-.05-.15c.02-.17.203-.212.314-.22a.578.578 0 0 1 .187-.239c.179-.146.5-.161.87-.05.362.112.797.363.892.655l-.175.058c-.061-.192-.393-.42-.77-.535-.31-.093-.573-.085-.707.019-.042.035-.13.123-.133.189v.088h-.096c-.091 0-.19.027-.202.047a.1.1 0 0 0 .012.03h.015l.05.178s-.084.042-.107.127c-.016.05-.008.108.023.173.164.008.618.07.774.47.053.143.088.41-.126.517l-.05.023-.045-.034s-.313-.224-.435-.074c0 0-.012.035-.008.054 0 .012.015.023.034.031l.016.008.011.015c.027.031.057.085.069.147.133-.089.16-.097.172-.097l.05.178a4.26 4.26 0 0 0-.325.216v.007Z"/><path d="m29.956 15.09-.153-.305c-.08-.158.19-.478.801-.956.21-.246.23-.312.233-.32-.004.02.008.066.057.085l.058-.177.064.073c.016.058.008.14-.278.47l-.015.016a6.66 6.66 0 0 0-.577.505 29.948 29.948 0 0 1 1.328-.728l-.095-.717.461-.313c-.083-.192-.251-.624-.087-.825.007-.011.13-.177.316-.184.1-.004.199.034.287.123l.24-.054c.45-.081.492.042.508.08l.01.028-.007.027s-.118.393-.538.578c.027.046.057.096.069.146l.084.613-.183.023-.08-.597a.711.711 0 0 0-.107-.173l-.084-.108.13-.039a.826.826 0 0 0 .503-.42c-.065 0-.168.004-.267.02l-.34.076-.034-.042c-.06-.07-.122-.104-.175-.1-.1.004-.18.111-.18.111-.087.108.035.482.142.702l.038.073-.5.34.095.736-.06.03c-.516.255-1.447.79-1.641.91l-.02.293h-.003ZM32.398 11.066a.163.163 0 0 0-.077.015c-.042.031-.053.112-.053.143v.158l.194-.312c-.026 0-.05-.004-.064-.004Zm-.119.647-.156-.1.145-.227-.138-.081a4.242 4.242 0 0 0-.331-.15l-.16-.066.144-.1s.057-.043.046-.1a1.255 1.255 0 0 0-.13-.216c-.183.042-.213.077-.217.08-.053.07-.042.128-.042.128l.034.143-.14-.027s-.2-.043-.348-.047h-.134l.054-.13c.019-.043.038-.12.019-.159a.378.378 0 0 0-.122-.061l.091.643-.183.027-.13-.929.134.035c.118.03.328.1.378.208.03.062.026.131.019.189.053.008.107.015.152.023a.37.37 0 0 1 .073-.154c.046-.07.164-.12.378-.162l.057-.011.042.046c.053.07.175.243.194.327a.258.258 0 0 1-.023.19c.039.015.084.034.123.053a.3.3 0 0 1 .107-.154c.114-.085.305-.046.408-.023l.13.027-.058.115-.416.66v.003ZM30.711 11.91l-.019-.089c-.042-.2.061-.304.073-.316l.03-.015s.038-.012.057-.012c.126 0 .328.14.386.181l.179.132-.71.12h.004Z"/><path d="M30.574 12.746a.417.417 0 0 0-.126.02.61.61 0 0 1 .164-.016h-.034l-.004-.004Zm-.714-.123c-.034.004-.05.016-.057.027-.011.015-.008.046-.008.05.02.062.065.147.26.147.095 0 .187-.023.252-.039 0 0 .007 0 .011-.004l-.027.008c-.03.008-.053.008-.08.008a.328.328 0 0 1-.267-.143c-.011-.02-.03-.054-.087-.054h.003Zm.992.578c0-.027-.019-.266-.26-.266a.651.651 0 0 0-.232.05c-.08.027-.194.05-.309.05-.225 0-.381-.1-.439-.285a.282.282 0 0 1 .03-.2.262.262 0 0 1 .169-.108h.046c.102 0 .194.054.244.143 0 0 .042.053.11.053 0 0 .023 0 .035-.003l.14-.043s.085-.027.184-.027c.13 0 .244.043.324.128.103.111.153.28.141.512h-.183v-.004Z"/><path d="M30.929 13.598a.455.455 0 0 1-.275-.104l.11-.15c.153.112.241.054.268.035.171-.12.26-.498.202-.706a.864.864 0 0 0-.202-.347l.13-.13s.186.188.247.427c.077.278-.03.736-.278.906a.374.374 0 0 1-.206.065l.004.004ZM28.609 12.766l-.153-.1 1.584-2.487-.054-.22-.202.04-1.599 2.5-.156-.103 1.64-2.563.454-.09.111.467-1.625 2.556ZM28.033 12.839s-.027 0-.039.011c-.064.031-.08.124-.053.19.03.061.137.065.149.065h.027a.396.396 0 0 0 .026-.174c-.019-.046-.065-.084-.11-.084v-.008Zm.057.447c-.11 0-.252-.046-.317-.173-.072-.17-.008-.363.141-.432a.255.255 0 0 1 .119-.027c.118 0 .232.08.286.204.038.112-.004.363-.134.413a.255.255 0 0 1-.091.015h-.004Z"/><path d="M27.67 13.051c-.053.008-.091.03-.114.07a.107.107 0 0 0-.02.088c.016.08.115.096.195.096h.038c.05-.007.065-.015.073-.019 0 0 0-.015-.008-.046-.015-.085-.091-.189-.16-.189h-.004Zm.057.443c-.206 0-.343-.088-.374-.246a.296.296 0 0 1 .05-.232.359.359 0 0 1 .229-.146c.198-.031.351.162.381.339.039.212-.095.254-.22.281h-.066v.004Z"/><path d="M27.57 13.86c-.14 0-.236-.069-.259-.2-.022-.143.054-.324.206-.374l.058.177c-.05.016-.092.1-.08.162 0 .016.011.062.14.039.07-.012.104-.039.115-.054 0 0 .008-.012 0-.031v-.015c-.003-.031-.026-.066-.05-.074l.062-.177a.26.26 0 0 1 .168.227.235.235 0 0 1-.027.17c-.042.066-.126.112-.237.135-.034.008-.064.008-.091.008l-.004.007Z"/><path d="M27.453 14.192a.255.255 0 0 1-.142-.043c-.106-.073-.114-.215-.114-.23v-.032l.141-.223.157.1-.107.174a.1.1 0 0 0 .034.061c.023.016.057.008.084 0l.553-.856.153.1-.58.899-.042.023a.42.42 0 0 1-.13.023l-.007.004ZM28.231 13.806l-.053-.177s.156-.05.171-.17c.004-.034.023-.184-.103-.208l.03-.185c.249.043.276.297.256.42-.034.232-.29.317-.301.317v.003Z"/><path d="M30.12 14.438c-.538 0-1.675-.863-1.725-.898l.11-.15c.318.24 1.222.864 1.615.864v.184ZM29.185 15.21l-.183-.02c.023-.212-.233-.5-.412-.67-.05.092-.13.154-.141.165l-.226.178.08-.278c.043-.147-.293-.532-.534-.744l.123-.139c.087.077.43.393.557.679v-.016l-.039-.235.187.15c.065.055.634.525.592.933l-.004-.004Z"/><path d="M33.985 12.955c-1.805.497-3.388 1.453-4.82 2.324a4.726 4.726 0 0 1 1.226-.166c.206 0 .385.016.522.03a4.074 4.074 0 0 0-.446-.234.096.096 0 0 1-.053-.081c0-.035.015-.07.045-.085 1.088-.675 2.011-.728 2.5-.69a3.551 3.551 0 0 0-.458-.17.097.097 0 0 1-.065-.073.089.089 0 0 1 .038-.092c.431-.305.996-.563 1.51-.763Zm-5.62 2.817h-.039a.087.087 0 0 1-.087-.07.092.092 0 0 1 .042-.103c.244-.147.492-.297.748-.455 1.827-1.114 3.899-2.374 6.379-2.66.046-.004.092.027.1.074.007.046-.02.096-.07.107-.019.004-1.67.44-2.709 1.099.249.085.603.235.668.405a.098.098 0 0 1-.019.096.083.083 0 0 1-.091.027c-.004 0-1.122-.32-2.591.524.221.108.55.293.618.443a.095.095 0 0 1-.015.1c-.023.028-.061.04-.096.028 0 0-.32-.089-.82-.089-.47 0-1.194.081-1.984.463a.132.132 0 0 1-.038.007l.004.004ZM26.987 16.678a.094.094 0 0 1-.05-.174s.13-.08.779-.516c.042-.03.1-.015.126.027.027.042.015.1-.027.127-.652.44-.778.517-.782.52-.015.008-.03.016-.05.016h.004Z"/><path d="M28.143 16.678c-.076-.008-.465-.066-.48-.297-.008-.146.026-.254.103-.324.114-.1.263-.077.278-.077l-.03.185s-.08-.011-.126.031c-.042.039-.046.116-.042.17.003.046.164.111.32.127l-.019.185h-.004Z"/><path d="M27.834 16.223a.234.234 0 0 1-.088-.058c-.133-.123-.202-.246-.194-.354a.17.17 0 0 1 .076-.135c.386-.212.733-.085.748-.081l-.065.177s-.278-.096-.576.058c0 .023.023.096.137.2.008.008.016.012.027.02l-.065.173ZM32.195 15.726c-.026 0-.053 0-.08-.008a.425.425 0 0 1-.29-.246c-.004-.008-.122-.224-.069-.671 0-.02-.015-.278-.335-.328l.03-.185c.386.062.489.37.489.524-.046.39.045.57.045.575.023.046.05.077.077.104a.439.439 0 0 1-.088-.216c-.023-.174.057-.4.065-.428.187-.393.29-.678.294-.682l.171.062s-.106.296-.297.69c-.016.05-.065.22-.054.331.008.05.03.123.092.166a.276.276 0 0 0 .214.027l.076.165s-.156.12-.336.12h-.004ZM31.23 20.313c-.107 0-.374-.181-.374-.405 0-.143.061-.328.343-.378.191-.038.317.123.355.208l-.168.074s-.057-.116-.152-.1c-.16.03-.191.1-.191.196 0 .104.153.208.198.216l-.007.189h-.004Z"/><path d="M30.967 19.738s-.122-.154-.088-.296c.015-.054.053-.128.168-.178 0 0 .233-.13.477-.011.156.019.55.027.72-.112a.225.225 0 0 0 .073-.108.892.892 0 0 0-.293-.066c-.004 0-.355.027-.626-.4a1.107 1.107 0 0 0-.18.223l-.064-.011h-.119v-.02c.008-.127-.011-.462-.16-.605-.019-.023-.32-.404-.248-1.272a1.74 1.74 0 0 1-.576-.921l.18-.042c.13.543.541.84.545.844l.046.03v.055c-.084.817.187 1.175.19 1.175.123.116.176.308.199.47.042-.042.088-.092.149-.15l.088-.089.057.112c.217.432.515.413.523.413.328.023.442.12.457.138l.03.027v.047a.406.406 0 0 1-.148.289c-.275.23-.85.154-.877.154l-.031-.008c-.16-.085-.32.004-.328.008-.035.015-.065.03-.069.054-.008.035.027.1.05.127l-.141.123h-.004Z"/><path d="M28.006 19.53a.386.386 0 0 1-.023-.316.475.475 0 0 1 .252-.243c.145-.08.588-.092.736-.092.435-.077.485-.563.489-.771a.832.832 0 0 1-.473-.15l-.23-.17h.283c.065-.008.313-.247.527-.509.373-.455 1.102-.54 1.133-.543l.019.185s-.687.077-1.011.474a3.073 3.073 0 0 1-.466.482.63.63 0 0 0 .294.034l.092-.007.007.092c.027.324-.069.964-.645 1.06h-.015c-.263.004-.588.03-.656.073l-.015.008s-.115.05-.153.143c-.02.046-.011.1.015.162l-.164.08.004.008Z"/><path d="M28.242 19.943c-.259 0-.305-.17-.305-.181a.295.295 0 0 1 .008-.228c.08-.17.297-.243.324-.25l.054.177c-.042.015-.176.073-.214.154-.015.027-.015.058 0 .093.011.023.061.057.183.046l.02.185c-.027 0-.05.004-.073.004h.003Z"/><path d="M28.536 20.305c-.103 0-.175-.046-.187-.05-.152-.112-.179-.228-.175-.305.011-.212.255-.362.282-.377l.092.162c-.05.027-.187.127-.191.223 0 .046.03.093.095.143 0 0 .065.03.138.007.068-.019.13-.088.179-.2l.012-.027.026-.015c.03-.016.286-.143.508-.07a.38.38 0 0 1 .11.058c.15-.297.512-.94.9-1.075a.308.308 0 0 1-.053-.17c0-.2.191-.39.592-.582l.08.17c-.439.212-.488.358-.488.412 0 .1.145.166.145.17l-.07.173c-.35-.123-.854.786-1.006 1.118l-.08.177-.085-.177c-.023-.046-.057-.081-.103-.093-.106-.038-.263.016-.34.047-.072.146-.163.235-.278.27a.36.36 0 0 1-.107.015l.004-.004Z"/><path d="m28.27 20.567-.058-.15c-.038-.108-.069-.309.092-.378l.064.143a.307.307 0 0 1 .119-.058l.034.185c-.027.004-.1.07-.149.135l-.099.127-.004-.004ZM27.8 20.054l-.015-.146c-.012-.093.019-.285.206-.343l.045.15c.039-.008.058-.004.07-.004l-.031.185h.011a.6.6 0 0 0-.16.081l-.122.077H27.8ZM27.724 19.465l.06-.158s.1-.247.382-.278l.023.185a.36.36 0 0 0-.134.046c.008 0 .012 0 .016.004l-.046.181c-.088-.023-.134-.015-.134-.015l-.167.03v.005ZM30.662 19.72v-.124c0-.143.194-.235.312-.285l.065.173s-.03.011-.042.02a.17.17 0 0 1 .077.06l-.153.105s-.088 0-.141.015l-.119.031v.004ZM30.818 20.46l-.069-.159c-.084-.196.111-.39.13-.412l.126.135s-.008.003-.008.011a.216.216 0 0 1 .1 0l-.043.181c-.053-.011-.125.07-.144.097l-.096.146h.004ZM31.07 20.771l.023-.192c.034-.301.091-.332.122-.344l.084.162.023-.019c-.004.008-.012.035-.02.062a.41.41 0 0 1 .119-.008l-.023.181a.36.36 0 0 0-.164.054l-.16.104h-.004ZM33.851 15.36c-.057-.228-.053-.37.02-.451.08-.1.213-.089.328-.077.05.003.102.007.148.003.199-.026.34-.123.393-.27a.416.416 0 0 0-.023-.323c-.11.12-.255.12-.427.123-.088 0-.152 0-.206-.007-.11-.008-.176-.016-.328.061-.244.116-.157.366-.011.706l.03.069-.168.073-.03-.07c-.13-.3-.325-.747.099-.947a.647.647 0 0 1 .423-.081c.054.004.107.007.18.004.232-.004.293-.012.358-.143l.061-.123.092.104c.153.17.206.412.13.616-.08.212-.279.355-.546.39-.061.007-.126 0-.183-.004-.069-.008-.153-.012-.172.011-.007.008-.038.062.02.286l-.18.046-.008.004Z"/><path d="M31.509 20.625c-.1 0-.187-.031-.256-.096-.02-.02-.134-.159-.092-.32.035-.124.145-.22.336-.286l.057.182c-.122.038-.198.092-.213.15-.02.07.046.142.046.146.034.031.091.05.164.039a.535.535 0 0 0 .35-.22c.092-.173.29-.227.298-.231h.035c.164.02.24.17.263.308.56-.189.671-.967.732-1.399.008-.05.016-.096.02-.135.045-.285.217-.516.331-.64a6.234 6.234 0 0 0-.797-.019c-.229-.023-.382-.1-.458-.235a.497.497 0 0 1-.023-.4l.023-.055.317-.027c.484-.038.946-.374.946-.686v-.066l.061-.023s.466-.18.374-.585l.18-.043c.095.413-.218.675-.436.779-.05.393-.549.76-1.11.81l-.194.015a.274.274 0 0 0 .026.185c.046.077.149.127.305.142 1.015-.027 1.038.081 1.05.154l.011.054-.042.035s-.32.274-.378.636c-.007.038-.011.08-.019.127-.064.463-.202 1.43-.976 1.577l-.111.023v-.112s-.008-.2-.1-.235a.357.357 0 0 0-.167.135.733.733 0 0 1-.488.312c-.023.004-.046.004-.065.004Z"/><path d="M33.798 16.065s-.035.012-.054.027c-.034.027-.05.116-.053.212a.213.213 0 0 0 .084-.08.189.189 0 0 0 .023-.159Zm-1.03 1.13a.702.702 0 0 1-.233-.04c-.561-.176-.755-1.684-.775-1.857l.183-.023c.07.601.31 1.596.645 1.704a.5.5 0 0 0 .561-.155c.13-.162.134-.381.012-.582-.008-.007-.287-.377-.195-.705.046-.158.164-.274.355-.347.297-.12.465-.038.63.039.16.077.324.154.663.1l.077-.012.026.07a.447.447 0 0 1-.045.362.684.684 0 0 1-.458.332.607.607 0 0 1-.221 0 .395.395 0 0 1-.382.436h-.084l-.008-.086c-.007-.061-.03-.366.119-.482.11-.092.229-.077.335-.061.07.011.138.02.214.004a.507.507 0 0 0 .332-.243.294.294 0 0 0 .042-.127 1.118 1.118 0 0 1-.675-.128c-.157-.073-.26-.123-.485-.034-.137.05-.217.123-.244.223-.057.197.103.463.168.551.164.278.156.582-.02.806a.678.678 0 0 1-.53.254h-.007ZM28.445 16.824c-.1 0-.195-.03-.267-.088a.3.3 0 0 1-.119-.204.308.308 0 0 1 .092-.251l.13.135c-.03.03-.042.058-.038.096.003.035.03.062.05.081a.26.26 0 0 0 .19.046c.065-.007.126-.18.145-.304v-.023l.015-.02c.21-.296.435-.45.672-.458a.636.636 0 0 1 .446.177c.32-.204.61-.277.866-.204.176.046.302.15.378.243a.532.532 0 0 1 .39-.228l.014.19s-.255.026-.293.246l-.046.289-.126-.262s-.115-.228-.366-.297c-.218-.058-.481.02-.779.224l-.068.046-.054-.066s-.149-.18-.358-.17c-.172.005-.344.128-.512.363-.019.108-.087.412-.301.44h-.061Z"/><path d="m28.33 17.225-.076-.2c-.03-.081-.092-.281 0-.382l.122.108a.44.44 0 0 1 .126-.127l.084.166c-.03.015-.107.13-.16.242l-.096.193ZM27.697 16.84l-.076-.12c-.103-.17.026-.331.11-.393l.107.143s.034-.012.057-.016l.046.178c-.122.034-.16.088-.164.092l-.08.12v-.004ZM27.655 16.18l-.183-.018c.015-.15.106-.282.114-.297l.149.108s-.072.104-.084.208h.004ZM27.811 13.783l-.05-.18.024-.005-.027-.027.134-.13.244.25-.325.092ZM28.346 13.502l-.393-.231.091-.162.092.054-.004-.054.183-.016.03.409Z"/><path d="m28.25 13.594-.454-.08.034-.185.054.007-.042-.065.16-.097.248.42ZM28.655 13.26a.273.273 0 0 1-.13-.036l-.313-.196.095-.158.31.196c.03.02.068.008.091-.019l.034-.058c.023-.034.008-.073-.015-.092l-.893-.578c-.03-.02-.068-.004-.084.019l-.042.062c-.019.03-.007.073.02.088l.263.17-.1.158-.263-.17a.25.25 0 0 1-.076-.343l.042-.065a.25.25 0 0 1 .332-.073l.9.582a.252.252 0 0 1 .069.342l-.034.062a.257.257 0 0 1-.21.116l.004-.008ZM18.097 7.312l-.114-.555.179-.035.114.555-.179.035ZM18.463 9.02l-.156-.721.18-.039.16.72-.184.04ZM26.274 5.897l-1.385-.855.145-.078c1.335-.705.976-1.618.973-1.63l.167-.073s.397 1.014-.915 1.788l1.114.686-.096.162h-.003Z"/><path d="M26.323 3.52c-.233 0-.599-.375-.599-.818 0-.443.374-.813.61-.813v.185c-.118 0-.427.277-.427.624 0 .37.317.628.416.628v.193ZM21.092 5.473l-.107-.15c.676-.482.557-1.006.47-1.218a1.023 1.023 0 0 1-.645.223c-.298-.011-.58-.173-.836-.485l-.038-.046.027-.054s.236-.478.679-.613a.863.863 0 0 1 .504 0c-.119-.208-.24-.509-.191-.814.042-.27.21-.489.496-.659l.091.162c-.236.139-.374.316-.408.528-.072.455.336.933.34.94l-.119.143c-.236-.142-.457-.18-.663-.12-.287.09-.47.352-.538.467.21.24.427.363.656.37.343.016.599-.246.603-.246l.08-.085.06.096s.535.856-.469 1.565l.008-.004Z"/><path d="M22.832 5.288c-1.137-.428-.881-1.445-.877-1.457l.03-.12.103.066s.317.193.649.089c.217-.066.4-.243.542-.528-.096-.089-.348-.293-.645-.3-.214 0-.42.096-.61.296l-.15-.104s.271-.586.077-1.006c-.088-.193-.267-.328-.527-.397l.05-.181c.317.085.534.254.645.5.13.282.091.61.03.845a.87.87 0 0 1 .485-.139c.465.008.809.39.82.405l.042.046-.023.054c-.172.366-.4.598-.687.686a1.006 1.006 0 0 1-.679-.05c-.023.247.012.825.782 1.118l-.064.177h.007ZM34.557 7.293l-.183-.039.114-.528.18.038-.11.529ZM34.195 8.973l-.183-.039.14-.674.18.039-.137.674ZM26.37 5.878l-.096-.158 1.11-.67c-.656-.39-.878-.83-.946-1.142-.08-.366.027-.636.03-.647l.172.073c-.015.039-.355.925.973 1.63l.145.078-1.389.836Z"/><path d="M25.087 3.534c-.061 0-.122 0-.187-.015-.397-.062-.748-.331-1.038-.798l-.03-.05.034-.05c.015-.023.408-.609 1.042-.705.26-.043.519.003.774.135-.14-.313-.297-.798-.16-1.25.107-.354.37-.62.786-.793L26.342 0h.02l.022.008c.409.173.668.44.771.79.13.45-.03.936-.18 1.253.253-.128.512-.174.768-.132.633.097 1.026.683 1.041.706l.035.05-.03.05c-.29.463-.642.732-1.039.798-.595.096-1.072-.3-1.09-.316l.117-.143s.435.363.947.278c.328-.05.622-.274.873-.655-.107-.135-.43-.505-.885-.579-.309-.05-.626.054-.938.301l-.134-.123s.527-.787.336-1.43C26.892.57 26.682.35 26.342.2c-.343.155-.56.378-.644.663-.191.644.309 1.415.316 1.423l-.133.123c-.313-.25-.63-.35-.943-.3-.454.073-.778.443-.881.578.252.385.546.605.878.659.51.08.938-.274.942-.278l.118.143s-.4.331-.904.331l-.004-.008Z"/><path d="m26.327 3.52-.011-.186c.122-.008.416-.281.416-.628s-.294-.625-.416-.625v-.185c.232 0 .599.374.599.814 0 .439-.359.801-.588.813v-.004ZM31.562 5.458c-1.015-.721-.485-1.577-.48-1.588l.064-.093.08.081s.256.258.607.25c.229-.007.454-.134.664-.37-.069-.111-.256-.377-.546-.462-.206-.058-.431-.015-.668.127l-.118-.138s.416-.49.34-.945c-.035-.212-.172-.389-.409-.528l.092-.162c.286.166.45.39.496.66.05.308-.069.608-.187.817a.91.91 0 0 1 .508-.008c.446.131.675.59.686.613l.027.054-.038.046c-.26.312-.542.474-.843.486a.985.985 0 0 1-.645-.224c-.084.216-.195.752.48 1.233l-.106.15h-.004Z"/><path d="m29.795 5.254-.06-.178c.774-.281.812-.86.793-1.106-.145.062-.4.135-.68.05-.285-.085-.51-.316-.678-.686l-.023-.054.038-.046s.359-.401.824-.409a.873.873 0 0 1 .488.139c-.057-.235-.095-.559.035-.84.114-.247.328-.417.645-.497l.045.18c-.26.07-.435.205-.522.398-.195.42.068.994.072.998l-.149.104c-.187-.197-.385-.297-.595-.297h-.011c-.302.004-.554.212-.649.305.141.281.32.458.538.528.332.1.645-.089.649-.089l.107-.065.03.123s.244 1.025-.889 1.442h-.008ZM18.547 9.023l-.038-.181c3.629-.779 7.822-.786 7.864-.786.042 0 4.212.007 7.826.778l-.039.181c-3.575-.763-7.745-.774-7.787-.774-.042 0-4.25.015-7.826.782Z"/><path d="m18.513 8.622-.038-.18c3.579-.764 7.856-.799 7.898-.799.042 0 4.227.02 7.803.779l-.039.181c-3.582-.76-7.722-.77-7.764-.77-.042 0-4.27.026-7.86.793v-.004ZM34.515 6.768c-3.636-.844-8.115-.875-8.157-.875v-.188c.046 0 4.544.03 8.2.878l-.043.181v.004ZM18.105 6.788l-.042-.182c3.651-.851 8.245-.898 8.29-.898v.19c-.041 0-4.616.042-8.248.89Z"/><path d="M34.431 7.146c-3.62-.829-8.035-.836-8.077-.836v-.185c.042 0 4.48.007 8.12.844l-.039.18-.004-.003ZM18.215 7.165l-.042-.18c3.648-.841 8.139-.86 8.18-.86v.185c-.045 0-4.513.023-8.142.855h.004ZM25.48 6.98l.855.417.85-.417-.85-.424-.855.424Zm.855.62-1.275-.62 1.275-.636 1.266.636-1.266.62Z"/><path d="M30.36 6.922c-.397 0-.656.12-.668.228-.007.12.294.312.802.358.068.008.133.008.198.008.385 0 .637-.116.649-.22.007-.138-.32-.323-.798-.366a3.036 3.036 0 0 0-.183-.008Zm.332.783c-.073 0-.141 0-.214-.012-.496-.042-.988-.246-.969-.559.027-.242.359-.4.851-.4.065 0 .13 0 .198.007.573.05.981.29.966.567-.027.239-.363.393-.832.393v.004ZM33.523 7.612l.717.567.352-.293-.184-.497-.881.223h-.004Zm.721.806-1.13-.894 1.409-.355.29.779-.569.47ZM22.286 6.934c-.057 0-.114 0-.175.008-.397.034-.672.17-.763.277-.027.031-.038.058-.034.085.01.112.27.231.671.231.057 0 .118 0 .18-.007.4-.039.678-.174.766-.286.023-.027.035-.054.03-.077-.01-.111-.27-.23-.675-.23Zm-.301.782c-.485 0-.828-.158-.855-.397a.314.314 0 0 1 .077-.223c.145-.177.496-.312.892-.347.584-.05 1.023.12 1.05.39a.303.303 0 0 1-.073.215c-.141.177-.492.312-.893.35-.068.005-.133.009-.198.009v.003ZM18.063 7.902l.35.292.73-.57-.886-.22-.19.498h-.004Zm.347.535-.565-.478.298-.77 1.415.346-1.144.902h-.004ZM18.162 2.872l-.176-.054c.069-.22.03-.505.008-.644-.202.05-.557.177-.668.374l-.16-.093c.202-.354.855-.482.881-.485l.084-.016.023.085c.004.02.119.482.008.836v-.003Z"/><path d="M17.857 4.398c-.31 0-.546-.073-.565-.081l.057-.177s.653.208 1.18-.089c.297-.17.503-.463.617-.875-.26-.139-1.293-.594-1.95.416l-.164-.077s.302-.998-.083-1.572c-.142-.212-.363-.343-.66-.394l.614 1.7-.172.066-.713-1.978.14.012c.432.03.749.197.947.493.275.409.252.972.195 1.342.843-.829 1.995-.139 2.01-.131l.058.034-.016.066c-.122.505-.366.86-.728 1.064-.256.142-.53.185-.764.185l-.003-.004Z"/><path d="m18.017 6.888-.866-2.363.172-.065.763 2.085.74-.787c-.992-.346-1.538-1.433-1.538-1.534h.092l.091-.015c.023.093.584 1.16 1.55 1.415l.152.042-1.156 1.226v-.004Z"/><path d="m17.342 4.564-.18-.043s.084-.37-.023-.697c-.114-.317-.377-.486-.377-.49l.099-.158s.316.208.454.586c.126.381.034.782.03.802h-.003ZM34.519 2.922c-.114-.355-.023-.86-.02-.88l.02-.1.095.024c.027.007.683.177.886.536l-.16.092c-.115-.2-.466-.35-.672-.416-.02.158-.042.466.03.686l-.175.058h-.004Z"/><path d="M34.756 4.379c-.226 0-.481-.039-.725-.174-.359-.196-.603-.551-.725-1.056l-.016-.065.058-.035s1.163-.682 2.003.154c-.057-.378-.084-.952.198-1.368.199-.293.515-.459.943-.49l.14-.011-.701 1.977-.176-.062.603-1.703c-.294.05-.515.18-.66.393-.393.582-.092 1.584-.088 1.595l-.164.078c-.656-1.01-1.682-.575-1.946-.44.115.413.325.706.618.864.527.289 1.168.069 1.176.069l.06.173s-.27.093-.598.093v.008Z"/><path d="M34.63 6.907 33.48 5.662l.149-.038c.97-.259 1.557-1.353 1.58-1.446l.057.016h.126c0 .1-.58 1.214-1.572 1.564l.74.802.763-2.1.176.065-.867 2.386-.003-.004Z"/><path d="M35.313 4.579s-.138-.35 0-.736c.13-.378.457-.648.473-.66l.026-.019h.035c.03 0 .053.016.076.031l-.06.077.045.058s-.302.247-.412.575a.948.948 0 0 0 0 .6l-.172.07-.011.004ZM18.3 18.277h-.184v-.289h.183v.29ZM21.531 19.276h-3.415v-.459h.183v.274h3.232v.185ZM19.845 18.393c-.16 0-.275.085-.275.139 0 .054.11.142.274.142.165 0 .275-.084.275-.142 0-.058-.11-.139-.274-.139Zm0 .47c-.256 0-.458-.146-.458-.327 0-.181.206-.328.457-.328.252 0 .462.147.462.328 0 .18-.202.327-.462.327ZM20.798 13.04c-.515.497-1.259 1.399-1.343 2.547-.015.081-.03.281.046.374.02.023.054.05.126.05a.151.151 0 0 0 .118-.046c.073-.081.073-.247.069-.305-.015-.982.569-2.015.98-2.624l.004.003Zm-1.167 3.156a.332.332 0 0 1-.267-.12c-.145-.177-.096-.481-.088-.516.134-1.846 1.843-3.045 1.915-3.091l.02.03.137.12S19.982 14.24 20 15.653c0 .023.023.281-.114.435a.327.327 0 0 1-.256.108ZM24.93 18.29h-.186v-.302h.187v.301Z"/><path d="M24.93 19.276h-3.41v-.185h3.224v-.247h.187v.432ZM24.622 17.715l.194.112.508-.737.038-.08.084.034c.099.043.198.012.248-.08a.181.181 0 0 0 .007-.136.194.194 0 0 0-.103-.115l-.065-.031.02-.097.225-.747h-.054a.335.335 0 0 0-.26.104c-.098.111-.14.316-.114.593l.02.228-.172-.15c-.061-.055-.256-.193-.409-.193-.065 0-.16.023-.213.223-.015.066-.012.116.019.154.057.078.221.124.435.124h.08l.156-.012-.064.143c-.012.023-.222.493-.569.667l-.011-.004Zm.247.354-.805-.454.313-.02c.245-.015.458-.293.573-.493-.187-.008-.405-.05-.515-.193-.046-.058-.088-.162-.05-.316.076-.3.256-.362.39-.362.133 0 .27.061.37.123 0-.239.06-.424.17-.543a.507.507 0 0 1 .394-.162c.11 0 .19.023.202.027l.088.03-.263.88a.406.406 0 0 1 .133.184.343.343 0 0 1-.019.282.358.358 0 0 1-.324.2c-.027 0-.057 0-.084-.008l-.576.83.003-.005ZM17.662 17.017l.065.073.504.737.194-.112c-.34-.177-.553-.644-.565-.667l-.064-.143.156.012h.08c.214 0 .374-.046.435-.123.03-.039.038-.09.023-.155-.053-.2-.149-.223-.217-.223-.153 0-.348.139-.409.193l-.171.15.019-.227c.026-.278-.016-.482-.115-.594a.326.326 0 0 0-.255-.104h-.058l.237.848-.065.035a.205.205 0 0 0-.107.119.152.152 0 0 0 .008.127.192.192 0 0 0 .248.081l.06-.03-.003.003Zm.511 1.056-.564-.829a.377.377 0 0 1-.416-.188.36.36 0 0 1-.02-.274.392.392 0 0 1 .138-.189l-.256-.886.084-.031s.092-.027.203-.027a.52.52 0 0 1 .393.162c.11.12.168.304.171.543a.743.743 0 0 1 .37-.123c.134 0 .313.061.397.362a.366.366 0 0 1-.053.316c-.11.143-.328.185-.512.193.115.197.329.478.565.493l.313.02-.801.458h-.012Z"/><path d="M20.94 17.78h-.859l-.019-.007c-.347-.158-.374-.586-.378-.605l-.007-.15.137.057c.1.042.294.093.378.042.019-.011.042-.03.05-.088.01-.077 0-.131-.035-.162-.076-.062-.279-.02-.366.011l-.222.081.107-.208c.1-.196.126-.347.076-.431-.057-.093-.202-.097-.206-.097 0 0-.14 0-.194.089-.05.08-.015.235.095.435l.122.22-.232-.089c-.084-.03-.287-.077-.363-.015-.03.027-.042.08-.03.162.011.058.038.08.057.092.103.054.313-.015.378-.042l.126-.054v.139s.003.447-.336.609l-.02.007h-.545v-.185h.504a.443.443 0 0 0 .198-.296c-.114.03-.27.05-.393-.016a.317.317 0 0 1-.152-.223c-.031-.193.034-.29.095-.34.095-.077.233-.08.347-.065-.069-.181-.069-.328-.004-.44.107-.177.344-.177.351-.177.008 0 .248 0 .359.181.069.112.069.255.008.436.114-.02.255-.015.354.066.061.046.126.142.103.327a.278.278 0 0 1-.14.224c-.115.065-.268.05-.386.019.03.1.095.227.221.293h.817v.185l.003.015ZM23.435 16.227s-.153 0-.21.096c-.05.085-.023.232.08.428l.11.208.115-.212c.111-.196.142-.35.096-.435-.05-.085-.187-.089-.191-.089v.004Zm.935 1.553h-.538l-.02-.007c-.339-.162-.343-.59-.343-.61v-.142l.13.054c.065.027.275.096.378.042a.128.128 0 0 0 .06-.092c.012-.077 0-.131-.026-.158-.076-.062-.278-.02-.366.015l-.233.089v-.008l-.217-.08c-.084-.032-.287-.074-.363-.012-.034.027-.046.08-.034.162.007.057.027.077.046.088.087.05.293-.004.377-.042l.138-.058-.008.15s-.03.451-.374.605l-.019.008h-.862V17.6h.824a.46.46 0 0 0 .217-.293c-.114.031-.27.046-.385-.02a.286.286 0 0 1-.137-.227c-.023-.18.042-.277.103-.327.095-.077.236-.081.347-.066-.061-.177-.061-.323.008-.431.11-.185.358-.185.366-.185.007 0 .24 0 .347.177.065.112.065.258-.004.44.115-.016.256-.016.351.065.061.05.122.146.092.335a.297.297 0 0 1-.157.224c-.118.065-.274.046-.389.015.027.097.08.228.202.293h.496v.185l-.007-.004Z"/><path d="M21.523 12.777c-.137.459-.591 2.066-.244 2.64.057.1.137.159.24.182.1-.02.176-.077.233-.178.344-.57-.095-2.185-.232-2.644h.003Zm-.4 4.907.404.181.408-.181c-.282-.239-.297-.64-.301-.66v-.142l.126.054c.1.039.381.123.523.046.045-.026.072-.069.08-.134.015-.108 0-.182-.046-.22-.114-.096-.412-.02-.508.015l-.229.085.119-.216c.141-.266.18-.466.11-.586-.076-.127-.259-.138-.286-.138-.026 0-.21.011-.282.138-.069.12-.03.324.11.586l.119.216-.229-.085c-.095-.034-.397-.115-.515-.015-.046.038-.061.112-.046.22.012.065.038.108.084.134.145.081.427 0 .527-.042l.13-.054v.143c-.005.019-.016.424-.298.659v-.004Zm.4.385-.828-.37.191-.084c.214-.097.294-.313.324-.455-.148.038-.377.077-.538-.016a.358.358 0 0 1-.175-.27c-.027-.177.011-.308.11-.393.134-.108.34-.096.493-.069-.1-.243-.107-.44-.02-.586a.438.438 0 0 1 .169-.158.641.641 0 0 1-.13-.154c-.447-.744.236-2.833.267-2.918l.137.046.138-.046c.03.089.698 2.186.252 2.926a.578.578 0 0 1-.123.146c.065.035.13.085.176.162.084.146.08.34-.02.582.153-.03.356-.039.485.07.1.084.138.215.111.393a.367.367 0 0 1-.172.27c-.16.092-.385.057-.534.015.03.142.115.358.328.455l.191.084-.832.37ZM23.217 18.393c-.164 0-.274.085-.274.139 0 .054.106.142.274.142.168 0 .279-.084.279-.142 0-.058-.11-.139-.279-.139Zm0 .47c-.255 0-.457-.146-.457-.327 0-.181.206-.328.457-.328.252 0 .466.147.466.328 0 .18-.21.327-.466.327Z"/><path d="M21.16 11.19h.306v.562l-.065.02a.403.403 0 0 0-.278.377c0 .22.175.393.4.393.226 0 .39-.173.39-.393 0-.17-.111-.324-.279-.378l-.061-.019v-.563h.305v-.111h-.305v-.286h-.107v.286h-.305v.111Zm.363 1.541a.582.582 0 0 1-.244-1.11v-.247h-.305v-.482h.305v-.28h.477v.28h.305v.482h-.305v.247a.59.59 0 0 1 .34.532c0 .32-.256.578-.573.578ZM21.123 18.528l.404.204.405-.204-.405-.2-.404.2Zm.4.413-.816-.417.816-.408.817.408-.817.416ZM18.047 18.536l.18.185.374-.208-.39-.174-.164.197Zm.145.416-.396-.409.362-.431.858.385-.824.455ZM24.435 18.513l.373.208.18-.185-.164-.197-.39.174Zm.408.439-.824-.455.858-.385.363.432-.393.408h-.004Z"/><path d="M22.29 13.105c.405.624.927 1.619.916 2.551-.008.066-.008.232.065.313.026.03.065.046.114.046.077 0 .107-.03.126-.054.08-.093.065-.3.054-.362-.08-1.107-.764-1.985-1.271-2.49l-.004-.004Zm1.095 3.091a.326.326 0 0 1-.252-.108c-.137-.158-.11-.416-.11-.447.019-1.407-1.32-3.041-1.336-3.06l.142-.12.007.008c.073.046 1.778 1.245 1.908 3.103.004.023.053.331-.092.509a.337.337 0 0 1-.267.119v-.004ZM20.241 12.797c-.969.235-2.419.867-2.74 2.52a.542.542 0 0 0 .016.212c.02.074.084.104.134.12.187.038.316-.355.347-.497.27-1.23 1.408-1.974 2.24-2.36l.003.005Zm-2.56 3.044c-.023 0-.046 0-.069-.007-.145-.043-.236-.127-.263-.243a.686.686 0 0 1-.023-.3c.481-2.49 3.327-2.784 3.759-2.814.034-.012.053-.016.06-.02l.046.181s-.019.008-.05.016v.008h-.026c-.427.135-2.568.878-2.934 2.54-.053.25-.221.643-.504.643l.004-.004Z"/><path d="M22.771 12.789c.817.378 1.965 1.122 2.24 2.367.03.142.16.535.362.493.038-.012.088-.077.11-.131.039-.097.02-.2.02-.2-.317-1.677-1.778-2.302-2.732-2.53Zm2.572 3.049c-.298 0-.462-.393-.512-.644-.404-1.835-2.934-2.54-2.957-2.548l.046-.177h.008c.18.008 3.262.2 3.754 2.81 0 .008.03.154-.026.304-.031.073-.111.208-.24.243-.027.008-.05.008-.073.008v.004ZM14.694 14.7c-.237 0-.47-.13-.489-.138-.393-.24-.85-.964-1.186-1.496l-.02-.03.157-.1.019.03c.305.486.77 1.218 1.122 1.434 0 0 .458.254.625-.008.012-.015.81-1.079 1.26-2.682.007-.024.156-.552.377-.918l.157.097c-.21.343-.359.867-.359.87-.461 1.643-1.278 2.73-1.286 2.737-.095.154-.24.2-.385.2l.008.005ZM16.372 9.274c-.015-.062-.095-.293-.217-.286-.683.047-1.393-.512-1.732-1.36-.245-.59-.271-1.23-.073-1.715.13-.313.34-.536.607-.648.267-.112.572-.104.877.023.477.2.912.67 1.157 1.264.354.864.29 1.712-.165 2.163-.08.085.008.312.065.412l-.16.093c-.023-.043-.233-.428-.034-.636.393-.393.442-1.18.122-1.962-.225-.547-.618-.98-1.053-1.16-.26-.108-.515-.116-.737-.023-.225.092-.4.28-.507.543-.18.44-.153 1.03.072 1.573.313.774.95 1.287 1.55 1.245.236-.016.366.258.408.427l-.18.043v.004ZM10.493 8.823c-.336 0-.767-.336-1.038-.81a1.91 1.91 0 0 1-.24-1.156c0-.116.041-1.226 1.281-1.422l.027.185a1.242 1.242 0 0 0-1.125 1.245v.015c0 .004-.08.532.213 1.04.264.46.66.73.89.718l.007.185h-.02.005Z"/><path d="M10.52 8.823h-.02l.008-.185c.233.004.622-.24.893-.713.297-.513.217-1.033.217-1.041 0-.058-.027-1.075-1.148-1.268l.03-.185c1.221.208 1.297 1.322 1.301 1.426.012.07.077.609-.24 1.156-.27.47-.706.806-1.042.806v.004Z"/><path d="M13.053 9.948a.836.836 0 0 0-.138-.435c-.091-.162-.194-.343-.183-.798-.022-.42-.091-.582-.167-.771a2.947 2.947 0 0 1-.218-.79c-.084-.848-.39-1.388-.393-1.392-.366-.825-1.13-.886-1.381-.89v.632h-.183v-.802l.084-.007s1.163-.104 1.648.986c.008.016.324.57.412 1.453.057.39.133.567.202.74.08.197.157.378.183.84-.011.413.073.556.157.71.072.127.149.258.16.52l-.183.008v-.004ZM10.794 8.121c-.03 0-.088 0-.152-.027a.326.326 0 0 0-.08-.015c-.035.02-.073.02-.1.02-.019 0-.06 0-.091-.02-.02 0-.05.004-.073.015h-.019c-.076.016-.153.016-.153.016a.09.09 0 0 1-.091-.093c0-.05.042-.092.091-.092 0 0 .061 0 .119-.008.038-.012.137-.042.217-.008h.019c.088-.042.202 0 .225.004.054.02.1.015.1.015a.089.089 0 0 1 .099.085c.004.05-.03.097-.08.1h-.027l-.004.008Z"/><path d="M10.477 8.302a.427.427 0 0 1-.114-.015.097.097 0 0 1-.065-.116.09.09 0 0 1 .114-.061c.073.019.115 0 .115 0a.092.092 0 0 1 .122.038c.023.046.008.1-.034.124-.008.003-.058.03-.141.03h.003ZM12.027 9.682a2.611 2.611 0 0 0-.344-.17c-.522-.242-.503-.709-.503-.728v-.543h.183v.547s-.012.366.389.551c0 0 .133.05.362.177l-.087.162v.004ZM7.826 10.002l-.184-.008c.012-.239.145-.427.29-.62.176-.24.355-.486.367-.867-.035-.713.011-.88.08-1.134.042-.154.095-.343.141-.732.267-1.715 1.416-2.023 1.984-1.946l-.023.185c-.057-.008-1.473-.166-1.778 1.788-.05.4-.103.598-.149.76-.065.242-.106.389-.072 1.079-.012.45-.218.732-.4.979-.134.18-.249.335-.256.516ZM9.035 9.617l-.084-.166c.141-.073.202-.1.23-.112.396-.189.407-.497.407-.512v-.66h.184v.66s-.008.443-.52.686l-.022.007s-.069.031-.195.097ZM7.074 23.076h-.145l-.172-.008.103-.138c.168-.232.248-1.137.267-1.469.092-4.093.641-5.022 1.038-5.704.092-.158.176-.297.237-.455.046-.12.084-.266.057-.532-.08-.647-.156-2.293-.156-2.309l.183-.008s.076 1.654.156 2.298c.03.312-.019.49-.068.624-.07.174-.157.324-.248.482-.39.663-.924 1.569-1.015 5.616-.008.112-.058.998-.226 1.422.409 0 1.565-.062 2.13-.64l.068-.07.065.074s.527.57 1.164.57v.186c-.584 0-1.06-.401-1.233-.563-.64.578-1.793.632-2.201.632l-.004-.008Z"/><path d="M9.21 12.885c-.205 0-.389-.042-.541-.123-.248-.131-.424-.366-.511-.682-.08-.293-.065-.544-.065-.555l.183.011s-.012.235.057.494c.073.27.214.462.42.57.29.15.706.131 1.232-.058l.061.178a2.53 2.53 0 0 1-.835.17v-.005ZM11.71 12.885c-.244 0-.523-.058-.836-.165l.061-.178c.603.216 1.057.208 1.347-.015.409-.316.363-.98.363-.987l.183-.015c0 .03.053.77-.435 1.148-.18.139-.408.212-.683.212ZM14.014 33.953c-.225 0-.457-.058-.545-.142-.057-.054-.53-.1-1.397.03-.194.035-.347-.015-.45-.13-.26-.301-.072-.956-.05-1.03l.176.05c-.053.178-.149.667.015.856.057.07.153.093.283.07.61-.093 1.385-.147 1.553.019.076.077.564.135.747.023.13-.077.44-.023.554 0 .072-.008.164-.039.183-.073.034-.05.05-.089.046-.104-.02-.058-.199-.104-.313-.135l-.03-.008c-.18-.046-.588-.177-.844-.366-.279-.208-.725-.343-.729-.343l.054-.181s.476.15.786.373c.24.182.64.309.778.34l.034.007c.191.05.39.1.443.255.03.08.008.177-.065.277-.076.12-.286.147-.328.15h-.03c-.188-.042-.394-.053-.44-.026a.88.88 0 0 1-.427.092l-.004-.004ZM7.555 34.628a.628.628 0 0 1-.317-.066c-.195-.146-.29-.289-.298-.427-.007-.182.138-.309.252-.417a.56.56 0 0 0 .141-.158c.119-.366.481-.647.55-.701.05-.062.11-.178.091-.235l.176-.058c.061.185-.11.4-.13.42L8.001 33s-.381.278-.492.613c-.03.093-.11.162-.195.243-.095.085-.19.173-.19.266 0 .08.08.181.22.289.04.023.306.062.589-.035.24-.085.404-.235.484-.45.103-.255.351-.247.515-.24h.134a.36.36 0 0 0 .248-.177.203.203 0 0 0 .007-.181c-.084-.193-.103-.57-.103-.586l.183-.012c.004.1.027.386.084.517a.373.373 0 0 1-.011.347.54.54 0 0 1-.385.273c-.054.008-.107.004-.164.004-.176-.007-.29 0-.34.124-.134.35-.424.505-.641.57a1.364 1.364 0 0 1-.397.062h.008ZM4.502 19.241l-.145-.116s.115-.157.15-.408c.053-.397.186-.563.22-.601 1.26-1.727 1.492-2.267 1.649-2.621.034-.081.065-.15.103-.224.034-.065.053-.104.068-.127.016-.027.016-.03.02-.043l.171.066a.441.441 0 0 1-.03.062c-.012.023-.03.061-.065.123-.035.07-.065.135-.096.212-.156.366-.396.917-1.67 2.663l-.012.012s-.126.135-.172.501c-.042.3-.18.486-.187.497l-.004.004ZM7.143 14.527 7 14.407c.088-.103.348-.581.535-.932.114-.212.213-.397.267-.486l.156.097c-.05.084-.149.266-.263.478-.214.397-.454.844-.557.963h.004Z"/><path d="m7.974 13.251-.084-.13c-.19-.294-1.08-.868-1.404-1.065l-.076-.046.103-.192c.057-.112.115-.216.176-.313l.152.104c-.057.093-.11.19-.168.297l-.019.039c.24.15.98.624 1.294.96l.328-.617.164.088-.47.875h.004ZM14.411 12.897a2.106 2.106 0 0 0-.301-.655l.149-.112s.244.343.332.724l-.18.043ZM10.481 7.427a.093.093 0 0 1-.091-.092v-.436c0-.05.042-.092.091-.092.05 0 .092.042.092.092v.436c0 .05-.042.092-.092.092ZM10.481 7.759c-.053 0-.118-.023-.13-.027l-.03-.02c-.023-.022-.065-.019-.065-.019-.05.008-.095-.03-.103-.08a.091.091 0 0 1 .08-.105c.012 0 .11-.011.195.05a.19.19 0 0 0 .053.012.123.123 0 0 0 .038-.012c.08-.065.184-.054.195-.054.05.008.088.054.08.105-.008.05-.053.088-.103.08-.008 0-.042 0-.06.016l-.016.015-.02.008a.358.358 0 0 1-.118.027l.004.004Z"/><path d="m12.95 13.228-.427-.89.164-.081.324.678c.244-.2.92-.736 1.343-.944-.038-.085-.1-.22-.156-.335l.168-.081c.091.192.194.428.194.428l.038.088-.088.035c-.465.189-1.465 1.021-1.472 1.029l-.092.073h.004ZM11.492 6.768a.095.095 0 0 1-.068-.03l-.012-.016c-.091-.104-.229-.262-.557-.092a.096.096 0 0 1-.126-.039.098.098 0 0 1 .038-.127c.458-.24.695.03.783.135l.011.015a.093.093 0 0 1-.069.154ZM9.52 6.768a.113.113 0 0 1-.058-.019.096.096 0 0 1-.015-.131c.08-.1.317-.405.798-.143.045.024.06.081.038.128a.093.093 0 0 1-.126.038c-.344-.185-.485 0-.565.096a.094.094 0 0 1-.072.035v-.004ZM10.165 7.073a.094.094 0 0 1-.073-.035c-.141-.177-.359-.042-.382-.027a.091.091 0 0 1-.125-.027.093.093 0 0 1 .026-.127c.13-.085.428-.185.626.065.03.039.027.1-.015.132a.085.085 0 0 1-.057.019Z"/><path d="M9.924 7.115s-.027 0-.038-.008a.213.213 0 0 1-.114-.123.211.211 0 0 1 .019-.166.096.096 0 0 1 .126-.034c.042.027.057.08.034.127 0 .008-.004.015-.004.02l.015.01c.046.02.065.078.046.124a.091.091 0 0 1-.084.054v-.004ZM10.832 7.084s-.038-.003-.053-.015a.094.094 0 0 1-.023-.131c.18-.262.473-.185.599-.104a.094.094 0 0 1 .03.127.092.092 0 0 1-.126.03c-.022-.015-.228-.13-.35.051a.093.093 0 0 1-.077.042Z"/><path d="M11.115 7.13s-.023 0-.035-.007a.214.214 0 0 1-.126-.12.194.194 0 0 1 .012-.161.093.093 0 0 1 .126-.039c.045.023.06.08.038.123 0 .012 0 .016.015.023.05.02.073.074.053.12-.015.035-.05.062-.083.062ZM7.204 26.349l-.183-.012.194-3.35.183.012-.194 3.35ZM10.622 32.836h-.225c-2.06 0-3.644-.324-3.659-.328l-.08-.016.26-4.393.183.011-.248 4.228c.34.066 1.762.309 3.544.309h.225c1.782 0 3.194-.243 3.534-.309l-.252-4.247.183-.008.26 4.41-.077.015s-1.587.328-3.651.328h.003ZM13.812 26.372l-.19-3.354.183-.007.19 3.35-.183.01ZM15.377 5.778a.533.533 0 0 0-.207.042c-.42.181-.526.898-.232 1.588.24.57.687.964 1.091.964a.552.552 0 0 0 .21-.043c.42-.189.523-.902.233-1.592-.245-.566-.695-.963-1.092-.963l-.003.004Zm.652 2.783c-.477 0-.992-.444-1.26-1.08-.339-.797-.194-1.607.329-1.834a.69.69 0 0 1 .279-.054c.476 0 .984.431 1.263 1.075.34.798.194 1.604-.329 1.839a.7.7 0 0 1-.282.057v-.003ZM1.236 19.245H1.21c-.45-.135-.767-.239-.786-.451-.016-.158.156-.262.286-.328.614-.316 1.423-.03 1.774.297.214.204.496.278.5.278.05.011.08.065.068.115a.087.087 0 0 1-.11.066c-.015 0-.328-.081-.58-.32-.302-.281-1.03-.54-1.565-.266-.183.093-.186.143-.186.143.007.096.496.239.656.285.05.015.076.065.06.115a.093.093 0 0 1-.087.07l-.004-.004Z"/><path d="M2.972 19.78c-.137-.05-.355-.123-.5-.173l-.14-.046c-.222-.08-.397-.07-.604-.058-.19.012-.408.023-.69-.035-.397-.08-.527-.377-.538-.524l.183-.015s.034.289.39.358c.259.05.457.039.644.031.218-.011.42-.023.672.066l.137.046c.149.05.366.123.504.173l-.061.178h.003ZM3.858 19.341l-.012-.189c.6-.038 1.572-.3 1.763-.666.332-.625-.248-1.068-.275-1.087l.11-.15s.733.562.329 1.325c-.252.494-1.42.733-1.912.763l-.003.004Z"/><path d="M3.74 19.183a.096.096 0 0 1-.089-.058.094.094 0 0 1 .054-.123c.16-.065.21-.181.214-.189a.09.09 0 0 1 .118-.05c.046.02.069.073.053.12 0 .007-.076.2-.316.293-.012.003-.023.007-.035.007ZM4.388 19.88c-.05 0-.096 0-.134-.003l.016-.189c.32.027 1.205-.07 1.74-.555.267-.243.408-.547.415-.906.027-.801-.435-1.264-.587-1.418-.03-.03-.05-.046-.058-.066l.157-.1.034.035c.168.166.672.67.641 1.553-.007.409-.171.76-.48 1.037-.523.474-1.324.61-1.748.61l.004.003ZM4.98 16.03c-.508-.447-.707-.759-.63-.983.053-.158.232-.246.545-.265.847-.054 2.473.416 2.541.435 0 0 .287.042.36-.173.049-.17-.146-.336-.15-.336l-.492-.42.118-.142.493.42s.293.243.206.535c-.1.301-.42.328-.577.301-.026-.008-1.675-.482-2.491-.432-.221.016-.359.066-.382.143-.023.062-.007.266.58.783l-.122.138v-.004Z"/><path d="M4.61 16.697c-1.023-.96-1.107-1.576-.997-1.927.11-.35.462-.59.966-.655 1.194-.154 3.03.366 3.285.57l-.115.147c-.225-.182-2.045-.675-3.147-.532-.428.058-.725.25-.813.532-.134.42.202 1.036.946 1.734l-.126.135v-.004ZM5.86 13.995c-.034-.065-.858-1.619-.606-2.971.145-.806.458-1.234.736-1.615.058-.078.111-.155.164-.232.626-.944.206-1.811.191-1.846a.1.1 0 0 1 .027-.12.092.092 0 0 1 .118.012c.012.012 1.118 1.164.37 2.41-.05.084-.103.169-.156.261-.275.444-.584.944-.63 1.407-.084.736.367 1.738.37 1.75l-.167.077c-.02-.042-.474-1.06-.386-1.846.054-.505.374-1.03.656-1.488.054-.089.107-.173.157-.258.423-.71.19-1.376-.05-1.785.061.386.038.944-.347 1.53-.053.081-.11.158-.168.235-.263.367-.565.78-.702 1.538-.236 1.288.58 2.833.588 2.849l-.16.088-.004.004ZM8.478 32.658l-.183-.011.324-5.612.183.011-.324 5.612ZM12.48 32.658l-.35-5.677.183-.012.354 5.678-.187.011ZM10.588 32.74h-.187v-8.053h.187v8.052ZM14.854 5.042a.12.12 0 0 0 0 .239c.072 0 .126-.05.126-.12 0-.07-.058-.12-.126-.12Zm0 .424a.301.301 0 0 1-.302-.305c0-.17.134-.308.302-.308.168 0 .313.138.313.308 0 .17-.138.305-.313.305ZM14.587 12.893l-.16-.093.022-.042c.184-.328.523-.937 1.13-1.73.099-.19.24-.533.217-.69-.042-.247.038-.764.21-.933.061-.062.454-.27.622-.355l.038-.02.038.016s.24.097.355.166l-.091.162a2.488 2.488 0 0 0-.294-.139c-.244.127-.504.27-.538.3-.103.105-.195.544-.157.772.042.27-.213.759-.24.813l-.008.012c-.602.782-.938 1.387-1.121 1.715l-.023.042v.004Z"/><path d="M16.548 9.782s.03.008.095-.003c.103-.054.233-.128.344-.193l.14-.081c.028-.039.028-.058.028-.062-.008-.019-.07-.038-.126-.046-.08.042-.348.181-.477.343-.008.02-.012.042-.008.05l.004-.008Zm.03.278h.012c.069 0 .404-.12.706-.239.004-.02.011-.05.015-.085a.486.486 0 0 0-.103-.065l-.126.073c-.183.104-.385.227-.488.27 0 0-.012.027-.016.046Zm.008.185c-.145 0-.183-.1-.187-.131a.248.248 0 0 1 .034-.185c-.011-.008-.022-.02-.034-.03-.076-.101-.015-.236-.011-.251l.011-.02c.172-.227.557-.412.576-.416l.02-.012h.022c.038 0 .24.024.306.162a.212.212 0 0 1 0 .162c.087.046.179.12.167.224a.787.787 0 0 1-.038.177l-.015.039-.038.015c-.11.046-.672.262-.81.266h-.007.004Z"/><path d="M16.632 10.476c-.103-.011-.141-.07-.157-.104-.045-.108.042-.235.07-.27l.144.116a.27.27 0 0 0-.038.073l-.023.185h.004ZM3.175 19.935c-.157 0-.24-.173-.264-.285v-.02c0-.069-.007-.431.016-.528.057-.208.37-.624.637-.724.221-.085.328-.282.412-.436.019-.038.038-.073.057-.104.027-.046.172-.35.359-.736.702-1.46 1.068-2.216 1.144-2.29l.13.132-.065-.066.069.062c-.084.104-.752 1.491-1.11 2.239-.195.4-.332.694-.363.748-.019.03-.038.065-.057.1-.096.173-.225.412-.508.52-.202.077-.48.44-.522.598a3.64 3.64 0 0 0-.012.466c.012.046.054.139.096.131l.034.181s-.03.004-.046.004l-.007.008ZM5.922 14.257l-.168-.077c.286-.616.984-2.05.992-2.066l.164.081s-.706 1.446-.988 2.062Z"/><path d="M3.304 19.835c.023.046.057.088.073.088 0 0 .015-.003.038-.038.008-.05.015-.123.027-.2a6.59 6.59 0 0 1 .064-.444v-.02c-.019.012-.038.032-.053.047-.1.224-.133.486-.145.567h-.004Zm.294.065c.015.023.042.05.08.05.015 0 .023-.007.03-.015.012-.1.046-.517.024-.729-.004-.007-.012-.015-.016-.015l-.007.004c-.027.07-.065.354-.084.516-.008.07-.02.14-.023.19h-.004Zm.092.24h-.027a.238.238 0 0 1-.164-.07.185.185 0 0 1-.134.042c-.14-.007-.221-.189-.236-.227l-.008-.02v-.019s.034-.37.172-.667l.015-.019c.046-.05.16-.166.275-.127.011.004.019.008.03.015.069-.042.126-.038.16-.027.077.023.13.097.142.14.034.269-.016.8-.02.824l-.007.035c-.027.05-.092.127-.19.127l-.008-.008Z"/><path d="M4.163 19.561c.019.085.03.193.03.297a.647.647 0 0 1 .012-.043V19.8s.03-.1-.038-.235l-.004-.004Zm-.248.34.06.022c.012 0 .02 0 .031-.007a1.38 1.38 0 0 0-.053-.444c0-.007-.015-.019-.023-.023 0 .004 0 .016-.008.039l-.007.42V19.9Zm.065.204s-.03 0-.046-.004c-.076-.023-.145-.05-.149-.05l-.057-.027v-.062c.007-.486.011-.505.011-.517.027-.165.138-.189.172-.189a.193.193 0 0 1 .153.055c.08-.027.16.023.175.034l.02.02c.175.23.14.431.129.481-.008.05-.034.181-.137.216a.183.183 0 0 1-.119-.008.242.242 0 0 1-.149.054l-.003-.003ZM10.218 11.205C9.546 10.26 9.05 9.65 8.89 9.575c-.263-.136-.729.219-.77.3 0 0 .003-.008.003-.023H7.94c0-.127.256-.29.305-.324.13-.08.462-.254.725-.12.195.097.668.667 1.393 1.689l-.149.108h.004Z"/><path d="M10.134 11.255c-1.023-.783-1.774-1.234-2.11-1.268-.114-.016-.336.104-.507.273-.134.131-.214.27-.203.355l-.183.023c-.023-.2.149-.405.256-.509.183-.18.458-.354.656-.323.47.046 1.454.736 2.198 1.302l-.11.15.003-.003Z"/><path d="M10.157 11.802a15.205 15.205 0 0 0-3.438-.139l-.08.008-.019-.077c-.065-.27.042-.563.16-.748.107-.165.244-.27.37-.289.546-.088 2.263.524 2.976.79l-.064.174c-1.126-.424-2.473-.848-2.885-.783-.072.012-.168.093-.244.209a.859.859 0 0 0-.149.52 15.51 15.51 0 0 1 3.4.15l-.03.185h.003ZM10.848 11.262l-.15-.107c.76-1.06 1.245-1.65 1.44-1.75.251-.127.556.019.72.12.05.03.31.196.31.323h-.184l.004.023a.96.96 0 0 0-.309-.235c-.11-.058-.313-.139-.458-.066-.076.039-.362.282-1.37 1.692h-.004Z"/><path d="m10.825 11.374-.115-.146c.069-.054 1.694-1.36 2.362-1.426.198-.027.458.146.622.304.091.085.298.312.278.528l-.183-.019c.008-.089-.076-.239-.221-.374-.164-.158-.366-.27-.473-.254-.618.061-2.251 1.376-2.27 1.391v-.004Z"/><path d="m10.79 11.83-.03-.182a14.227 14.227 0 0 1 3.499-.146.981.981 0 0 0-.153-.602c-.061-.092-.13-.15-.187-.158-.504-.085-2.373.582-3.052.844l-.065-.173c.103-.039 2.495-.964 3.148-.856.11.02.217.1.309.24.133.2.236.531.164.824l-.02.08-.08-.01s-1.697-.186-3.533.138Z"/><path d="M10.493 11.2a.287.287 0 0 0 0 .574c.16.001.278-.126.278-.288a.28.28 0 0 0-.278-.285Zm0 .764a.475.475 0 0 1-.47-.478.468.468 0 1 1 .935 0 .469.469 0 0 1-.465.478ZM41.898 11.278c-.385-.35-1.335-1.207-1.831-1.53-.126-.081-.244-.097-.351-.046-.176.077-.286.304-.317.481l-.183-.03c.038-.232.183-.513.423-.621.115-.054.302-.085.527.062.508.327 1.465 1.19 1.854 1.545l-.122.139Z"/><path d="m41.849 11.413-.065-.031c-.5-.212-1.813-.767-2.442-1.145-.096.012-.23.104-.31.258-.06.112-.129.347.07.637l-.153.104c-.252-.37-.157-.679-.08-.83.11-.211.313-.358.496-.358h.026l.023.016c.61.37 1.942.936 2.442 1.152l.065.027-.072.174v-.004Z"/><path d="M41.803 11.567c-1.42-.385-2.411-.52-2.72-.374l-.077-.17c.363-.169 1.32-.05 2.843.363l-.046.177v.004ZM42.562 11.286l-.126-.14c.458-.427 1.362-1.236 1.862-1.556.221-.143.4-.116.515-.07.24.1.382.367.428.582l-.18.043c-.05-.212-.175-.39-.32-.451-.107-.043-.222-.027-.347.054-.489.312-1.382 1.11-1.836 1.534l.004.004Z"/><path d="m42.589 11.42-.073-.169c.061-.027.15-.062.256-.112.56-.243 1.725-.74 2.27-1.071l.023-.016h.027c.183 0 .4.158.511.374.08.15.176.463-.076.829l-.153-.108c.195-.285.122-.52.065-.636-.084-.158-.225-.258-.324-.274-.561.34-1.668.813-2.267 1.072-.106.046-.19.08-.252.112h-.007Z"/><path d="m42.627 11.582-.042-.18c.702-.166 2.396-.533 2.926-.378l-.05.177c-.396-.116-1.724.12-2.83.378l-.004.003Z"/><path d="M42.219 11.2a.292.292 0 0 0-.287.286c0 .154.126.29.287.29.16 0 .278-.128.278-.29a.28.28 0 0 0-.278-.285Zm0 .764a.475.475 0 0 1-.47-.478c0-.262.214-.474.47-.474a.47.47 0 0 1 .465.474c0 .262-.21.478-.465.478ZM10.508 24.206a.187.187 0 0 0-.187.185c0 .1.088.185.187.185.1 0 .183-.081.183-.185a.184.184 0 0 0-.183-.185Zm0 .559a.378.378 0 0 1-.374-.374c0-.205.168-.374.374-.374s.366.165.366.374a.37.37 0 0 1-.366.374Z"/><path d="M6.723 27.405a.81.81 0 0 1-.095-.629.753.753 0 0 1 .4-.454c.176-.124.374-.181.626-.255.275-.08.618-.18 1.099-.416.774-.37 1.434-1.106 1.442-1.114l.137.123c-.026.031-.69.771-1.5 1.16-.491.24-.842.344-1.125.428-.248.074-.423.124-.583.235-.165.085-.275.205-.317.351a.597.597 0 0 0 .076.482l-.16.093v-.004Z"/><path d="M7.024 28.183c-.11 0-.206-.058-.274-.165-.142-.228-.119-.66.122-.856.27-.2.572-.305.84-.397.22-.073.43-.147.59-.258l.104.154c-.18.123-.405.2-.638.277-.267.093-.545.185-.79.367-.16.13-.179.45-.08.608.05.081.119.097.21.05 2.435-1.175 3.21-3.31 3.217-3.334l.175.062c-.007.02-.805 2.228-3.308 3.434a.386.386 0 0 1-.175.047l.007.011ZM14.274 27.42l-.157-.1a.598.598 0 0 0 .08-.463.59.59 0 0 0-.308-.358c-.176-.12-.36-.177-.615-.25-.274-.085-.622-.19-1.102-.413-.813-.39-1.473-1.125-1.5-1.156l.137-.128s.664.74 1.443 1.114c.469.216.805.32 1.076.401.26.081.465.139.652.27a.76.76 0 0 1 .397.466c.053.2.019.417-.1.61l-.003.007Z"/><path d="M13.973 28.199a.374.374 0 0 1-.176-.047c-2.5-1.202-3.304-3.41-3.308-3.434l.172-.061c.007.019.786 2.162 3.216 3.33.095.05.168.03.218-.054.099-.158.083-.474-.077-.605-.236-.178-.507-.27-.77-.359-.24-.08-.47-.158-.657-.297l.107-.154c.164.123.378.193.607.274.263.088.56.193.824.385.244.197.263.629.122.856a.32.32 0 0 1-.278.166ZM42.375 32.836h-.229c-2.053 0-3.644-.324-3.659-.328l-.08-.016.263-4.409.183.008-.251 4.247c.343.066 1.766.309 3.544.309h.23a20.07 20.07 0 0 0 3.536-.309l-.248-4.209.183-.011.26 4.37-.08.016s-1.595.328-3.656.328l.004.004Z"/><path d="m40.23 32.658-.186-.011.32-5.605.184.012-.317 5.604ZM44.237 32.658l-.355-5.623.184-.012.354 5.624-.183.011ZM42.337 32.674h-.183v-8.021h.183v8.02Z"/><path d="M42.264 24.206c-.103 0-.19.08-.19.185 0 .104.087.185.19.185.1 0 .18-.085.18-.185 0-.1-.084-.185-.18-.185Zm0 .559a.376.376 0 0 1-.373-.374c0-.205.168-.374.373-.374.207 0 .363.17.363.374a.373.373 0 0 1-.363.374Z"/><path d="M38.472 27.405a.788.788 0 0 1-.088-.629.761.761 0 0 1 .4-.458c.176-.124.375-.181.627-.255.274-.08.618-.18 1.098-.416.783-.37 1.435-1.106 1.443-1.114l.137.123c-.027.031-.683.771-1.5 1.16-.492.24-.843.344-1.125.428-.244.074-.423.124-.584.236a.594.594 0 0 0-.317.354.61.61 0 0 0 .073.482l-.16.093-.004-.004Z"/><path d="M38.781 28.183c-.11 0-.21-.058-.279-.17-.14-.223-.122-.658.119-.851.267-.197.553-.316.828-.432.229-.1.446-.189.614-.308l.107.15c-.187.135-.412.228-.649.328-.267.112-.542.227-.786.408-.156.128-.172.448-.072.605.053.081.122.1.217.055 2.43-1.176 3.205-3.311 3.209-3.335l.175.062c-.007.02-.805 2.228-3.304 3.434a.384.384 0 0 1-.175.047l-.004.007ZM46.034 27.462l-.156-.1a.59.59 0 0 0 .08-.466.593.593 0 0 0-.305-.35c-.176-.12-.359-.174-.61-.251-.28-.085-.627-.19-1.111-.42-.82-.386-1.5-1.176-1.53-1.215l.141-.123s.683.798 1.469 1.164c.47.224.809.328 1.084.409.26.077.461.138.652.266a.746.746 0 0 1 .393.462.77.77 0 0 1-.1.613l-.007.011Z"/><path d="M45.737 28.237a.4.4 0 0 1-.18-.046c-2.499-1.199-3.296-3.43-3.304-3.45l.176-.061c.007.023.778 2.177 3.208 3.35.1.045.172.03.225-.059.1-.162.08-.478-.08-.605-.24-.181-.515-.297-.782-.408-.24-.104-.465-.197-.648-.332l.106-.15c.165.123.382.216.61.312.28.12.566.239.825.432.248.196.271.616.126.848a.317.317 0 0 1-.282.17ZM38.193 14.2a.502.502 0 0 1-.404-.193c-.096-.085-.95-.856-1.381-2.44 0-.004-.168-.57-.397-.933l.156-.1c.248.385.416.96.42.987.435 1.588 1.324 2.347 1.332 2.355l.015.015c.214.278.614.016.618.012.607-.37 1.583-1.873 1.595-1.889l.156.1c-.042.062-1.01 1.557-1.652 1.943a.86.86 0 0 1-.454.143h-.004ZM42.299 6.71c.05 0 .118.016.229.035.233.046.618.12 1.125.12.084 0 .172 0 .26-.008.019-.039.034-.1.019-.143-.015-.034-.053-.061-.118-.073l-.145-.035.099-.115c.026-.027.095-.135.076-.208-.008-.039-.042-.074-.103-.097 0 0-.866-.266-1.469-.277-.599.007-1.404.277-1.412.277-.087.035-.145.074-.152.112-.008.054.065.139.118.177l.141.104-.164.058c-.053.02-.122.054-.137.104-.012.039.007.085.027.116.747 0 1.182-.077 1.415-.116.092-.015.153-.027.199-.027l-.008-.004Zm1.35.34c-.526 0-.923-.077-1.16-.124-.087-.019-.16-.03-.194-.03-.03 0-.092.011-.168.023-.244.042-.702.12-1.495.12h-.042l-.027-.036s-.13-.158-.088-.316a.304.304 0 0 1 .126-.17c-.05-.06-.103-.153-.088-.25.016-.112.107-.2.271-.262.034-.011.824-.274 1.446-.289h.027c.633.008 1.496.274 1.534.285.156.066.202.162.221.232a.404.404 0 0 1-.046.266c.073.042.11.096.126.142.065.162-.042.335-.053.355l-.027.042h-.046a4.557 4.557 0 0 1-.324.012h.008Z"/><path d="m41.372 5.982-.168-.077c.313-.682 1-.71 1.026-.71v.186a1.03 1.03 0 0 0-.858.601ZM43.085 5.982a1.03 1.03 0 0 0-.851-.601v-.185c.034 0 .71.027 1.019.709l-.168.077Z"/><path d="M40.773 6.16h-.184c.004-.378.321-.872.332-.891.542-.825 1.328-.609 1.332-.609l.065.02v.604h-.183v-.458c-.18-.027-.68-.039-1.06.547 0 0-.302.466-.306.786h.004Z"/><path d="M43.68 6.086c-.122-.482-.278-.71-.278-.71-.474-.708-1.11-.539-1.137-.535l-.05-.177s.79-.216 1.34.605c.003.012.17.254.304.77l-.179.047ZM39.739 9.67h-.187c0-.242.137-.423.145-.431 0 0 .194-.266.206-.524.03-.459.126-.794.294-.995.305-.416.347-.774.347-.778l.183.019s-.046.412-.386.875c-.14.173-.229.478-.255.886-.015.32-.237.617-.244.629 0 0-.107.142-.107.32h.004ZM44.74 9.624c-.049-.308-.175-.481-.179-.481a2.07 2.07 0 0 1-.293-.93 1.766 1.766 0 0 0-.226-.813 1.598 1.598 0 0 1-.164-.439l.18-.039s.038.178.149.39c.14.266.232.509.248.89.015.44.259.821.259.825 0 0 .153.204.21.559l-.183.03v.008ZM42.207 8.645c-1.267-.185-1.232-1.414-1.232-1.426v-.27h.183v.274c0 .046-.027 1.08 1.06 1.237h.035c1.08-.162 1.057-1.19 1.053-1.233v-.278h.183v.274s.03 1.237-1.224 1.422h-.062.004Z"/><path d="M42.547 7.94a.323.323 0 0 1-.126-.027.128.128 0 0 0-.053-.02c-.035.028-.08.028-.1.028-.019 0-.068 0-.103-.027-.011 0-.03.011-.045.02a.348.348 0 0 1-.237.01.1.1 0 0 1-.057-.119.095.095 0 0 1 .118-.058s.046.016.092-.004c.015-.007.13-.069.225-.015h.003c.096-.05.214.012.237.023.03.016.08 0 .088 0 .05-.015.099.012.118.058.015.05-.011.1-.06.12-.009 0-.05.015-.104.015l.004-.004Z"/><path d="M42.265 8.14c-.1 0-.16-.042-.172-.046a.094.094 0 0 1-.023-.13c.027-.043.084-.05.126-.028.004 0 .057.031.141 0 .046-.015.1.008.118.054.016.05-.007.1-.053.12a.376.376 0 0 1-.137.027v.003ZM40.834 6.63c-.05 0-.084-.004-.088-.004l.027-.185s.095.011.21-.012c.045-.011.084-.023.122-.035.107-.03.217-.065.477-.065v.185a1.2 1.2 0 0 0-.424.058 3.254 3.254 0 0 1-.133.034.9.9 0 0 1-.188.02l-.003.004ZM43.772 6.63a.934.934 0 0 1-.191-.02c-.05-.011-.088-.023-.126-.034-.1-.031-.19-.058-.427-.058v-.185c.263 0 .373.03.48.065.035.012.069.02.115.031.114.027.21.012.21.012l.026.185s-.034.004-.087.004ZM40.158 9.767l-.084-.166c.352-.185.905-.44.912-.443.332-.185.401-.574.401-.582l.03-.362.184.015-.03.37c0 .027-.085.493-.5.725-.012.007-.565.262-.909.443h-.004ZM44.218 9.79c-.05-.062-.485-.289-.859-.462-.45-.212-.5-.717-.503-.737l-.02-.335.184-.011.019.331s.046.416.397.582c.904.42.938.52.95.559l-.176.058.008.015ZM41.448 12.623c-.496 0-.885-.139-1.16-.408-.42-.417-.416-1.01-.416-1.076h.183c0 .062-.004.582.359.945.263.258.656.373 1.167.35l.012.185c-.05 0-.1.004-.149.004h.004ZM38.892 26.391h-.184l.168-6.791c.164-3.466 1.294-4.279 1.343-4.314l.103.155s-1.106.813-1.263 4.162l-.167 6.788ZM45.557 26.437l-.213-3.203.183-.011.213 3.203-.183.011ZM45.538 19.707h-.183c0-2.786-1.225-4.274-1.236-4.29l.141-.119c.053.062 1.282 1.546 1.282 4.41h-.004ZM38.834 33.953c-.175 0-.35-.034-.454-.104-.046-.027-.263-.015-.427.023h-.031c-.038-.004-.244-.038-.328-.158-.068-.104-.087-.196-.057-.277.057-.154.267-.2.465-.247h.016a.828.828 0 0 1 .145-.027c.18-.027.446-.061.63-.189.24-.17.473-.308.698-.45l.053-.035.095.158-.05.034c-.232.143-.453.278-.686.444-.218.15-.515.192-.71.22a1.3 1.3 0 0 0-.126.022h-.015c-.122.031-.313.078-.336.135-.007.02.008.058.038.104.023.039.119.07.188.081.114-.023.42-.073.545.008.18.12.672.07.752-.004.172-.166.938-.104 1.545.004.13.02.229 0 .302-.073.194-.197.145-.72.11-.902l.18-.035c.007.031.137.76-.16 1.072-.115.115-.272.162-.462.127-.859-.15-1.328-.108-1.386-.05-.084.08-.305.127-.522.127l-.012-.008ZM45.187 34.616a1.42 1.42 0 0 1-.37-.05c-.229-.065-.526-.22-.668-.582-.042-.112-.152-.12-.328-.12-.06 0-.114 0-.168-.007a.505.505 0 0 1-.37-.247.407.407 0 0 1-.023-.374c.077-.165.15-.531.15-.535l.179.034s-.077.397-.164.578a.218.218 0 0 0 .015.205.32.32 0 0 0 .236.154c.042.008.092.008.145.008.164 0 .409 0 .5.239.084.216.248.366.492.45.279.097.538.058.58.035.141-.108.222-.208.225-.285.004-.092-.091-.177-.187-.262-.084-.073-.164-.146-.194-.239-.107-.343-.48-.613-.485-.613a1.843 1.843 0 0 1-.301-.331l.152-.104c.1.142.264.289.267.289.008.003.42.3.546.701.015.043.08.1.141.158.115.104.256.228.248.409-.004.139-.103.281-.297.428-.054.038-.172.061-.313.061h-.008ZM38.419 12.704l-.172-.07c.16-.396.748-1.541.774-1.591l.164.085s-.61 1.19-.767 1.576ZM42.28 7.3a.093.093 0 0 1-.092-.092v-.39a.09.09 0 0 1 .092-.092c.05 0 .091.042.091.092v.39c0 .05-.042.092-.091.092ZM42.253 7.612a.386.386 0 0 1-.114-.027l-.02-.007-.011-.016c-.019-.023-.046-.015-.046-.015a.095.095 0 0 1-.114-.066.088.088 0 0 1 .065-.111.244.244 0 0 1 .21.046c.015.008.026.008.034.011.004 0 .023 0 .038-.011.084-.077.198-.05.21-.05.05.011.08.065.069.112a.092.092 0 0 1-.111.069c-.008 0-.038-.004-.05.011l-.015.016-.023.008s-.076.027-.126.027l.004.003Z"/><path d="M38.235 12.7c-.145-.277-.469-.805-1.19-1.753l-.03-.043s-.245-.35-.252-.686c-.008-.2-.084-.62-.187-.713a5.24 5.24 0 0 0-.508-.29c-.072.02-.194.055-.26.097l-.099-.158c.119-.077.329-.127.351-.13l.035-.009.03.016c.195.1.527.277.58.335.18.158.237.713.245.844.007.282.213.575.213.578l.038.05c.721.945 1.053 1.485 1.202 1.77l-.164.088-.004.004Z"/><path d="M36.19 9.748c.035.011.046.007.046.007l-.008-.019c-.137-.204-.412-.335-.507-.378-.03.02-.073.047-.084.085a.088.088 0 0 0 .004.062c.076.038.18.08.278.127.1.043.195.085.271.123v-.007Zm-.721.061c.183.062.576.193.668.212.042.008.057 0 .057 0 0-.007 0-.038-.008-.057a2.73 2.73 0 0 0-.343-.162c-.103-.047-.206-.093-.286-.131a.388.388 0 0 0-.103.069.421.421 0 0 0 .015.066v.003Zm.702.401c-.023 0-.046 0-.069-.007-.13-.027-.667-.212-.728-.232l-.03-.007-.02-.027s-.042-.07-.057-.182c-.004-.115.099-.196.183-.239-.012-.057 0-.1.011-.134.05-.14.206-.2.226-.205l.03-.011.034.011s.447.17.645.486l.012.03c.003.024.019.136-.05.205.023.058.03.131.008.189-.016.042-.061.127-.195.127v-.004Z"/><path d="m36.08 10.415-.023-.185s-.02-.047-.035-.062l.145-.112c.027.035.107.154.065.258-.015.035-.053.093-.156.104l.004-.003ZM37.331 10.01a.44.44 0 0 1-.206-.058l-.397-.197.08-.165.401.196c.065.035.122.047.16.031.035-.011.05-.038.05-.038l.076-.155c.05-.108-.053-.165-.084-.177l-1.763-.875c-.034-.02-.145-.062-.21-.042a.078.078 0 0 0-.049.042c-.05.093-.103.193-.084.25.011.032.042.062.1.09l.5.258-.085.165-.5-.254c-.103-.05-.168-.116-.194-.2-.042-.132.03-.263.095-.394a.271.271 0 0 1 .157-.135c.156-.05.331.043.35.05l1.76.872s.137.065.183.192a.316.316 0 0 1-.012.236l-.076.158s-.05.096-.157.134a.261.261 0 0 1-.095.016Z"/><path d="m36.888 9.05-.167-.08 3.319-7.128-.091-.308-.275.143-3.3 7.107-.169-.08 3.328-7.162.534-.274.168.59-3.347 7.192ZM42.18 15.656v-.184c.668 0 1.565-.14 1.878-.193a1.18 1.18 0 0 1-.046-.494c.103-1.044.183-2.67.183-2.686l.183.011s-.08 1.646-.183 2.695c-.03.32.073.497.073.497l.068.116-.13.023s-1.19.215-2.026.215Z"/><path d="M42.18 15.656c-.839 0-1.941-.212-1.953-.215l-.13-.027.069-.112s.103-.181.073-.501c-.107-1.049-.138-2.652-.138-2.667h.183s.03 1.607.138 2.651c.019.224-.016.394-.05.494.301.054 1.14.193 1.805.193v.184h.004ZM43.008 12.623c-.06 0-.122 0-.187-.004l.008-.185c.618.031 1.065-.1 1.324-.397.325-.37.244-.879.244-.882l.184-.031c.003.023.099.601-.287 1.037-.27.308-.702.462-1.285.462Z"/><path d="M46.984 19.03c-.118-.255-.248-.587-.179-.884a5.89 5.89 0 0 0 .046-.54c.011-.123-.23-.662-.473-1.117-.546-.817-.721-1.152-.886-1.48l-.099-.197a5.006 5.006 0 0 1-.255-.609c-.119-.308-.248-.659-.458-1.01-.264-.431-.473-1.082-.481-1.11l.175-.057s.21.659.462 1.071c.218.366.355.725.473 1.04.08.217.157.417.248.587l.103.2c.164.32.336.655.882 1.473.091.173.522.998.5 1.225 0 .043-.027.455-.054.567-.053.239.057.532.164.76l-.168.08Z"/><path d="M47.614 19.345a.237.237 0 0 1-.16-.07l.126-.138s.026.023.034.02c.042-.012.103-.14.134-.24l.03-.12.103.066s.02.008.023.004c.007-.004.03-.035.042-.13v-.024l.046-.08.03.007s.02-.016.03-.02c.05-.034.062-.046.062-.069 0-.042.019-.065.03-.077.016-.02.035-.042.035-.089 0-.027.003-.046.007-.069.016-.108.035-.231-.057-.358l-.038-.054c-.103-.154-.298-.444-.443-.56-.294-.219-.477-1.02-.496-1.11-.377-1.587-.801-2.07-.805-2.073l-.011-.02c-.138-.27-.218-.577-.32-.963a13.101 13.101 0 0 0-.68-2.031l.168-.073c.382.898.55 1.541.687 2.058.095.374.175.67.301.917.069.081.473.613.84 2.151.05.227.225.852.427 1.006.172.139.366.428.484.601l.035.054c.13.19.107.37.088.494 0 .019-.004.034-.008.054a.295.295 0 0 1-.065.18c-.008.109-.1.167-.141.197-.008.004-.011.008-.02.012-.003.008-.007.015-.014.02-.02.115-.065.192-.134.226a.243.243 0 0 1-.095.024c-.039.1-.111.246-.23.281a.22.22 0 0 1-.053.008l.008-.012Z"/><path d="m48.331 18.077-.164-.089.794-1.483v-.07h.023c-.004-.038-.035-.085-.08-.115-.043-.024-.088-.035-.123-.024a.058.058 0 0 0-.038.027l-.026.05h-.008l-.718 1.234-.16-.096.771-1.323h.012a.22.22 0 0 1 .114-.069.332.332 0 0 1 .267.039c.145.088.21.262.149.393l-.008.019-.805 1.51v-.003ZM43.76 21.854l-.137-.123 1.476-1.661.138.127-1.477 1.657ZM46.93 21.874l-1.552-1.723.137-.124 1.553 1.723-.137.124ZM45.5 19.854h-.114v-.185h.114v.185ZM45.649 19.854H45.5v-.185h.149v.185Z"/><path d="M45.336 23.269c-.687 0-1.686-.559-1.713-1.45v-.096h1.473V20.26c-.027.007-.054.015-.08.027-.237.104-.447.115-.573.034a.266.266 0 0 1-.122-.212.25.25 0 0 1 .065-.189c.133-.154.484-.235 1.072-.25h.313c.385.015.713-.17.805-.224l.095.158c-.103.062-.469.266-.904.255h-.305c-.714.02-.893.135-.939.185-.019.023-.019.038-.019.05 0 .042.02.054.035.07.057.038.206.034.408-.05a.813.813 0 0 1 .137-.043c.027-.008.05-.016.076-.02l.119-.034v1.896h-1.465c.095.717.946 1.172 1.522 1.172h.019c.607-.008 1.45-.42 1.545-1.172h-1.545v-1.885l.084-.007c.145-.016.286-.016.382-.004.114.015.442-.058.816-.224l.073.17c-.374.17-.74.266-.916.243a1.445 1.445 0 0 0-.26 0v1.53h1.557v.096c-.038.93-1.034 1.438-1.736 1.45h-.023l.004-.012Z"/><path d="M48.713 23.269h-.023c-.71-.012-1.706-.524-1.736-1.45v-.096h1.553v-1.53a1.52 1.52 0 0 0-.237.004c-.175.027-.584-.08-.93-.247l.08-.17c.366.178.72.251.827.232.088-.012.225-.012.363 0l.084.008v1.892h-1.546c.092.752.939 1.164 1.546 1.172h.019c.572 0 1.423-.455 1.514-1.172h-1.46v-1.885l.11.02c.084.015.171.034.24.065.202.085.351.089.409.05.015-.011.03-.023.03-.061 0-.02 0-.035-.02-.058-.117-.127-.617-.2-1.24-.185-.362.015-.606-.127-.823-.247-.05-.03-.1-.058-.15-.085l-.087-.042.05-.085c.095-.166.202-.358.225-.405.008-.092-.065-.188-.126-.254l-.39.57-.152-.107.5-.733.076.058s.306.231.267.501c0 .02-.007.046-.198.382a.438.438 0 0 0 .072.038c.203.12.412.235.725.224.34-.008 1.153-.004 1.382.243a.25.25 0 0 1 .068.2.238.238 0 0 1-.114.204c-.126.081-.34.07-.58-.038a.516.516 0 0 0-.092-.027v1.472h1.473v.097c-.03.894-1.026 1.449-1.713 1.449l.004-.004Z"/><path d="M50.273 21.854 48.8 20.185l.138-.123 1.473 1.67-.138.122ZM47.114 21.874l-.137-.124 1.553-1.723.137.124-1.553 1.723ZM46.988 19.364a.303.303 0 0 0-.301.313c0 .177.133.32.301.32.168 0 .298-.143.298-.32a.302.302 0 0 0-.298-.313Zm0 .821a.495.495 0 0 1-.484-.508c0-.282.213-.498.484-.498a.49.49 0 0 1 .485.498c0 .273-.218.508-.485.508ZM47.82 19.048s-.015 0-.023-.003a.097.097 0 0 1-.065-.116c0-.012.065-.258-.198-.497a.096.096 0 0 1-.008-.131.09.09 0 0 1 .13-.008c.35.32.26.67.255.69-.01.038-.05.07-.087.07l-.004-.005Z"/><path d="M48.033 18.89a.093.093 0 0 1-.091-.092c0-.093-.023-.362-.13-.497a.097.097 0 0 1 .012-.131c.038-.035.095-.027.13.011.175.216.175.601.175.617 0 .05-.042.092-.092.092h-.004Z"/><path d="M48.21 18.632a.09.09 0 0 1-.093-.092c0-.074-.022-.282-.106-.386-.035-.038-.027-.096.011-.13a.095.095 0 0 1 .13.01c.141.174.149.467.152.502 0 .05-.041.092-.091.092l-.004.004ZM38.377 13.128a.091.091 0 0 1-.092-.08l-.061-.44a.091.091 0 0 1 .08-.104c.05-.008.095.027.103.08l.061.44a.09.09 0 0 1-.08.104h-.011ZM14.442 13.382h-.012c-.05-.007-.087-.053-.08-.104l.057-.443c.008-.05.054-.089.104-.08.05.007.087.053.08.103l-.054.444a.094.094 0 0 1-.091.08h-.004ZM13.904 23.076c-.405 0-1.553-.054-2.198-.632-.172.162-.652.563-1.24.563v-.185c.637 0 1.164-.567 1.168-.57l.064-.07.069.07c.569.578 1.72.635 2.125.64-.164-.425-.217-1.311-.225-1.423-.091-4.047-.622-4.953-1.015-5.616a3.2 3.2 0 0 1-.252-.482c-.053-.135-.103-.316-.065-.624.077-.64.188-2.32.188-2.336l.183.012s-.115 1.7-.191 2.347c-.03.27.008.416.053.532.061.162.145.297.237.455.4.678.95 1.61 1.038 5.704.019.332.103 1.238.263 1.465l.1.139-.169.007h-.145l.012.004Z"/><path d="M10.516 15.834h-.05c-.046 0-1.13-.004-1.98-.355l.068-.173c.817.335 1.9.339 1.912.339h.05s1.102-.004 1.915-.34l.069.174c-.851.347-1.939.355-1.984.355ZM45.23 20.22l-.05-.177c.087-.027.225-.031.286-.031v.189a.971.971 0 0 0-.233.023l-.004-.004ZM48.877 20.228a1.57 1.57 0 0 0-.252-.035l-.008-.085-.099-.03.05-.058c.072-.039.347.019.37.03l-.057.178h-.004ZM31.043 23.535l-.168-.077c.054-.116.023-.193-.019-.293-.042-.104-.095-.235-.019-.409l.015-.027.027-.015c.145-.077.267-.008.351.039a.417.417 0 0 0 .042.023c.03-.19.176-.297.313-.397.038-.027.076-.058.114-.085l.054-.047.057.043c.279.2.378.57.267.987l-.18-.047c.08-.308.027-.582-.144-.747a.59.59 0 0 1-.061.042c-.168.127-.252.193-.24.343v.066l-.058.027c-.095.042-.183-.008-.252-.047-.065-.038-.107-.058-.145-.046-.026.081 0 .147.03.228.047.111.1.25.016.439Z"/><path d="M31.1 23.77c-.053-.39.23-.701.24-.717l.138.127s-.237.266-.19.563l-.184.027H31.1ZM47.408 18.736a.088.088 0 0 1-.077-.042.333.333 0 0 0-.156-.123c-.046-.016-.072-.07-.057-.12a.093.093 0 0 1 .114-.058c.02.008.164.058.256.2.027.043.015.1-.03.132a.105.105 0 0 1-.05.011ZM29.887 30.904a.667.667 0 0 0-.408.143c-.042.031-.065.062-.061.093 0 .03.023.061.05.092a.72.72 0 0 1 .465-.177c.084 0 .168.015.252.046a.18.18 0 0 0-.02-.142.7.7 0 0 0-.274-.055h-.004Zm-.404.571-.07-.046s-.178-.127-.182-.29c0-.061.019-.157.137-.246a.861.861 0 0 1 .897-.093l.019.008.011.02c.13.177.057.37 0 .447l-.046.061-.068-.034a.513.513 0 0 0-.252-.066c-.24 0-.393.177-.393.177l-.053.062ZM29.696 29.598c.168.058.538.223.66.609.054-.016.119-.046.145-.116-.038-.104-.217-.5-.603-.636-.026-.007-.05-.015-.072-.015-.076 0-.114.088-.13.154v.004Zm.515.805-.015-.073c-.088-.443-.622-.574-.626-.574l-.076-.02v-.08c.015-.14.095-.401.332-.401.042 0 .088.011.133.027.535.185.722.755.73.782l.007.02v.026c-.054.228-.286.293-.405.293h-.08Z"/><path d="M30.711 30.245h-.118v-.189h.118v.19ZM17.147 4.656a.756.756 0 0 1-.702-.501c-.141-.374-.012-.829.282-.975l.08.166c-.19.096-.313.431-.194.74.13.323.423.431.648.37l.05.177a.617.617 0 0 1-.172.023h.008ZM35.511 4.637a.644.644 0 0 1-.175-.023l.05-.181a.546.546 0 0 0 .648-.367c.118-.312 0-.647-.187-.744l.084-.165c.294.15.42.597.275.975a.74.74 0 0 1-.695.505Z"/></g><defs><clipPath id="a"><path fill="#fff" d="M0 0h160v36H0z"/></clipPath></defs></svg>