<svg width="356" height="300" fill="none" xmlns="http://www.w3.org/2000/svg"><g clip-path="url(#a)" fill="#fff"><path d="M3.9 132.51c-.14-.08-.29-.17-.45-.27-.87-.49-2.03-.91-2.47-.64a.65.65 0 0 1-.66-1.12c.24-.14.51-.22.8-.25-.17-.27-.27-.54-.27-.8 0-.36.29-.65.65-.65.36 0 .65.29.65.65.07.29.96 1.05 1.99 1.7.21.12.36.22.45.28l-.68 1.11-.01-.01ZM211.01 20.37c-.43-1.76-.2-3.8-.19-3.89l.07-.66.66.09c.1.01 2.5.35 4.16 1.38l-.69 1.1c-.93-.58-2.2-.91-2.97-1.07-.03.69-.02 1.78.21 2.74l-1.26.31h.01ZM225.69 22.36l-1.14-.63c.51-.93.79-2.12.92-2.85-.66-.02-1.68 0-2.6.22l-.3-1.27c1.72-.4 3.63-.22 3.71-.21l.65.07-.07.65c0 .09-.26 2.33-1.18 4.02h.01ZM160.03 20.61l-1.26-.3c.23-.97.26-2.06.24-2.75-.71.15-1.83.44-2.72.95l-.64-1.13c1.64-.93 3.8-1.22 3.89-1.23l.67-.09.06.67c0 .09.19 2.11-.24 3.88ZM145.38 22.52c-.91-1.65-1.2-3.82-1.21-3.92l-.08-.66.66-.07c.08 0 2.04-.22 3.83.22l-.31 1.26c-.96-.24-2.01-.26-2.68-.24.15.72.44 1.86.94 2.77l-1.14.63-.01.01ZM195.21 14.14l-1.17-.57c.66-1.36.83-3.17.88-4.12-.87.04-2.45.18-3.73.74L190.67 9c2.13-.93 4.82-.86 4.93-.86l.62.02v.62c.01.13.06 3.15-1.01 5.36ZM175.87 14.2c-1.09-2.18-1.02-5.29-1.02-5.42l.02-.62.62-.02c.12 0 2.95-.07 5.13.93l-.54 1.18c-1.33-.61-3.01-.76-3.91-.8.04.97.2 2.82.87 4.16l-1.16.58-.01.01ZM237.26 40.43c-18.93-3.57-37.73-4.39-43.04-4.55l-.02-1.3h.04c5.35.17 24.24.99 43.26 4.58l-.24 1.28v-.01ZM134.07 40.54l-.24-1.28c12.11-2.31 26.68-3.86 43.32-4.61l.06 1.3c-16.57.74-31.08 2.28-43.13 4.58l-.01.01ZM186.33 236.97h-.87l-.18-.36c-1.31-2.6-8.04-2.77-15.84-2.98-20.47-.53-51.41-1.33-52.67-40.49V71l.44-.15s1.32-.45 2.4-.89c1.03-.35 3.61-1.13 3.72-1.16 26.45-6.95 62.17-7.18 62.53-7.18.43 0 35.5.08 61.86 6.95.07.02 1.91.47 4.15 1.19 1.3.38 2.19.73 2.58.89l.05.02h.53v122.45c-1.29 39.32-33.61 40.13-52.92 40.62-7.68.19-14.32.36-15.59 2.87l-.18.36h-.01ZM118.07 71.93v121.19c1.22 37.91 31.42 38.69 51.4 39.21 8.12.21 14.18.37 16.43 2.9 2.23-2.44 8.19-2.59 16.17-2.79 20.08-.51 50.41-1.27 51.66-39.34V71.76c-.44-.17-1.2-.46-2.24-.76-2.22-.72-4.07-1.17-4.09-1.18-26.21-6.83-61.11-6.91-61.46-6.91-.43 0-35.98.23-62.25 7.13 0 0-2.64.79-3.62 1.13-.71.29-1.51.58-2 .75v.01Z"/><path d="M186.58 62.27h-1.3v174.05h1.3V62.27Z"/><path d="M254.3 148.59H117.39v1.3H254.3v-1.3ZM219.05 211.56c-1.55 0-2.76-.33-2.87-.36l-.98-.28.67-.77c2.35-2.71 3.27-5.3 2.75-7.69-.91-4.17-5.9-6.49-5.95-6.52-13.59-6.73-12.87-14.62-12.83-14.95l1.29.14c0 .07-.59 7.36 12.1 13.64.21.09 5.62 2.61 6.67 7.41.56 2.55-.23 5.23-2.34 7.97 1.55.22 4.46.3 6.02-1.78 2.61-3.46 2.64-7.29.09-11.4-1.61-2.65-4.18-4.26-6.66-5.83-3.89-2.45-7.56-4.76-6.49-10.47l1.28.24c-.91 4.84 2.1 6.73 5.91 9.13 2.49 1.57 5.31 3.34 7.08 6.25 2.81 4.54 2.76 8.99-.16 12.86-1.46 1.96-3.74 2.42-5.56 2.42l-.02-.01Z"/><path d="m225.53 207.47-.26-1.27c.24-.05 5.8-1.31 5.8-8.31 0-5.52-5.66-8.54-5.72-8.57-6.37-4.65-4.12-8.83-4.02-9.01l1.14.63c-.07.14-1.74 3.39 3.57 7.28.18.09 6.33 3.37 6.33 9.67 0 8.08-6.77 9.56-6.84 9.58Z"/><path d="m231.83 199.07-.68-1.11c2.72-1.68 4.17-3.5 4.29-5.39.17-2.59-2.22-4.57-2.24-4.59-4.61-3.77-2.04-7.47-2.02-7.51l1.06.76-.53-.38.53.37c-.08.11-1.86 2.77 1.78 5.75.12.09 2.93 2.41 2.72 5.67-.15 2.34-1.8 4.51-4.91 6.42v.01Z"/><path d="m235.99 190.81-.58-1.17c2.46-1.22 3.97-2.74 4.48-4.51.64-2.22-.5-4.14-.52-4.16l1.11-.68c.06.1 1.46 2.41.66 5.18-.62 2.15-2.35 3.95-5.16 5.34h.01ZM214.32 178.59l-1.17-.56c.3-.63.46-1.34.46-2.04 0-2.88-2.35-5.22-5.24-5.22s-5.22 2.34-5.22 5.22c0 .65.16 1.37.45 2.07l-1.2.5c-.36-.86-.55-1.75-.55-2.57 0-3.6 2.92-6.52 6.52-6.52 3.6 0 6.54 2.93 6.54 6.52 0 .9-.21 1.8-.59 2.6Z"/><path d="m220.07 170.61-1.19-.52c.29-.67.45-1.36.45-2.02 0-2.89-2.34-5.23-5.22-5.23s-5.2 2.35-5.2 5.23c0 .76.25 1.54.44 2.05l-1.22.45c-.23-.61-.52-1.53-.52-2.5 0-3.6 2.92-6.53 6.5-6.53s6.52 2.93 6.52 6.53c0 .83-.19 1.71-.55 2.54h-.01Z"/><path d="M219.84 170.61c-.34-.77-.51-1.64-.51-2.54 0-3.6 2.91-6.53 6.49-6.53s6.51 2.93 6.51 6.53c0 .84-.19 1.72-.54 2.53l-1.19-.52c.28-.65.43-1.35.43-2.02 0-2.89-2.34-5.23-5.21-5.23s-5.19 2.35-5.19 5.23c0 .71.14 1.41.4 2.02l-1.19.52v.01Z"/><path d="M214.13 178.58c-.36-.77-.54-1.67-.54-2.59 0-3.6 2.9-6.52 6.47-6.52s6.47 2.93 6.47 6.52c0 .97-.37 2.13-.49 2.46l-1.23-.43c.19-.55.42-1.42.42-2.03 0-2.88-2.32-5.22-5.17-5.22s-5.17 2.34-5.17 5.22c0 .74.15 1.45.43 2.05l-1.18.54h-.01Z"/><path d="m237.71 178.57-1.2-.51c.29-.7.45-1.41.45-2.07 0-2.88-2.34-5.22-5.22-5.22s-5.21 2.34-5.21 5.22c0 .65.15 1.37.45 2.07l-1.2.5c-.36-.86-.55-1.75-.55-2.57 0-3.6 2.92-6.52 6.52-6.52 3.6 0 6.52 2.93 6.52 6.52 0 .83-.19 1.72-.55 2.58h-.01ZM212.89 215.3h-1.3c0-.57.06-1.06.19-1.55l.04-.12c.16-1.05.61-1.98 1.28-2.63l.91.93c-.48.47-.81 1.2-.92 2.01l-.07.23c-.08.35-.12.7-.12 1.12l-.01.01ZM217.2 225.66c-2.06 0-4.6-.59-7.05-2.71-1.13-1.01-2.13-2.46-2.89-4.2l1.19-.52c.68 1.55 1.59 2.88 2.56 3.75 4.87 4.21 10.03 1.6 10.08 1.58 2.31-.98 3.16-3.1 3.2-4.77 0-2.17-1.66-3.95-3.71-3.95s-3.65 1.73-3.68 3.94c0 .75.19 1.01.63 1.64l.6.86-.71.32c-.87.39-1.76.4-2.59.02-1.21-.55-2.21-1.89-2.75-3.67l1.25-.37c.42 1.4 1.18 2.47 2.04 2.86.24.11.47.16.72.16-.29-.48-.49-1-.49-1.84.05-2.94 2.24-5.23 4.98-5.23s5.01 2.36 5.01 5.26c-.06 2.66-1.57 4.93-3.95 5.93 0 0-1.85.94-4.44.94ZM206.44 216.34c-.16-.76-.31-1.5-.38-2.28-.28-2.96.45-5.53 2.1-7.42l.98.85c-1.78 2.05-1.95 4.64-1.78 6.45.07.71.21 1.42.36 2.14l-1.27.27-.01-.01ZM211.67 205.45l-.78-1.04c4.2-3.14 3.6-7.4 3.58-7.58l1.28-.2c.03.21.76 5.19-4.08 8.82Z"/><path d="M240.82 181.43H199.8v-3.73h41.02v3.73Zm-39.72-1.3h38.42v-1.12H201.1v1.12Z"/><path d="m241.81 187.4.3-1.7c.51-2.84.29-4.92-.62-6.02-.53-.64-1.31-.96-2.3-.96-.55 0-.95.11-.96.11l-.41.11-.27-.34c-.97-1.23-.67-3.6.1-5.2.91-1.88 2.4-2.85 4.09-2.51.25.05.51.08.77.08 3.17 0 6.05-3.68 6.08-3.72l.59-.76.49.83c.81 1.37 1.02 2.7.63 3.93-.34 1.08-1.09 1.88-1.74 2.41 1.3.56 2.13 1.38 2.47 2.46.86 2.63-1.65 5.68-1.76 5.81l-.93 1.11-.21-1.44c-.28-1.9-.96-3.03-1.93-3.22 1.23 4.48-2.99 7.91-3.04 7.95l-1.35 1.07Zm-2.61-9.98c.96 0 2.31.25 3.29 1.43.93 1.12 1.32 2.83 1.16 5.1 1.02-1.31 2.1-3.46 1.05-5.91l-.27-.64.66-.23c.06-.02.36-.12.8-.12.74 0 2.37.31 3.19 2.86.54-.94 1.08-2.27.72-3.39-.31-.95-1.28-1.63-2.89-2.04l-1.78-.45 1.67-.77s1.78-.84 2.27-2.4c.2-.63.16-1.31-.11-2.04-1.14 1.22-3.62 3.45-6.43 3.45-.35 0-.69-.03-1.03-.1-1.44-.29-2.37 1.19-2.66 1.81-.64 1.32-.72 2.74-.43 3.5.21-.03.49-.05.79-.05v-.01Z"/><path d="m238.71 178.34-1.27-.28c.27-1.28 1.8-3.75 5.64-3.95l.07 1.3c-3.77.2-4.41 2.82-4.43 2.93h-.01ZM240.6 172.21l-.49-1.21c4.37-1.77 6.05-5.93 6.51-7.33-2.43-1.04-4.68 1.57-4.78 1.69l-1.12-.61c.62-2.02-.48-4.14-1.23-5.02 0 .14 0 .28-.01.42-.04 1.7-.11 4.54-2.91 5.3-1.4.35-2.21.92-2.43 1.68-.38 1.3.93 3.08 1.47 3.65l-.95.89c-.1-.11-2.44-2.64-1.77-4.91.36-1.23 1.49-2.1 3.35-2.57 1.71-.47 1.89-2.12 1.94-4.07.02-.63.03-1.12.16-1.49.14-.45.6-.68 1.09-.53.97.3 2.66 2.64 2.76 5.19 1.43-1.02 3.51-1.76 5.54-.51l.4.24-.1.45c-.06.26-1.51 6.33-7.43 8.72v.02Z"/><path d="M236.9 175.05c-1.01-6.67 2.55-8.49 2.71-8.56l.57 1.17-.28-.58.29.58c-.12.06-2.86 1.54-2 7.2l-1.29.2v-.01ZM198.28 187.4l-1.36-1.07s-4.32-3.47-3.11-7.95c-.95.2-1.62 1.33-1.89 3.22l-.21 1.43-.93-1.11c-.11-.13-2.63-3.17-1.78-5.8.35-1.08 1.18-1.9 2.49-2.46-.66-.53-1.41-1.33-1.75-2.41-.39-1.24-.18-2.56.63-3.93l.48-.82.59.75s2.94 3.72 6.1 3.72c.26 0 .52-.03.77-.08 1.74-.36 3.33.77 4.24 2.84.69 1.57.95 3.78-.1 4.91l-.27.29-.38-.1s-.41-.11-.96-.11c-.99 0-1.76.32-2.29.96-.91 1.1-1.11 3.18-.58 6.02l.32 1.7h-.01Zm-4.16-10.35c.43 0 .74.1.79.12l.65.23-.27.64c-1.02 2.43.08 4.58 1.11 5.9-.17-2.26.21-3.97 1.13-5.08 1.31-1.58 3.25-1.49 4.12-1.37.32-.7.2-2.04-.32-3.22-.66-1.5-1.68-2.31-2.79-2.09-.33.07-.68.1-1.03.1-2.82 0-5.31-2.23-6.45-3.45-.27.73-.31 1.41-.11 2.04.5 1.58 2.26 2.39 2.28 2.4l1.7.77-1.81.45c-1.62.4-2.6 1.09-2.91 2.04-.36 1.12.19 2.45.73 3.39.81-2.55 2.42-2.86 3.16-2.86l.02-.01Z"/><path d="M201.33 178.34c-.03-.11-.66-2.73-4.39-2.93l.07-1.3c3.8.2 5.32 2.68 5.59 3.96l-1.27.27ZM199.55 172.26c-5.88-2.31-7.48-8.49-7.54-8.76l-.11-.46.4-.25c2.04-1.26 4.12-.51 5.55.52.11-2.57 1.8-4.91 2.77-5.21.48-.15.94.08 1.1.55.13.34.16.83.18 1.44.09 1.86.3 3.46 2.01 4.13 1.9.72 2.99 1.77 3.24 3.1.43 2.37-2.08 4.63-2.19 4.72l-.86-.97c.58-.51 2.02-2.15 1.77-3.52-.16-.86-.97-1.57-2.42-2.12-2.64-1.03-2.76-3.69-2.84-5.28 0-.15-.01-.29-.02-.43-.75.86-1.87 3-1.27 5.04l-1.12.6c-.1-.12-2.36-2.73-4.77-1.7.49 1.43 2.26 5.67 6.61 7.38l-.47 1.21-.02.01Z"/><path d="m203.11 175.07-1.28-.23c.99-5.47-1.87-7.12-2-7.19l.61-1.15c.16.08 3.83 2.12 2.66 8.57h.01ZM141.65 199.63c-5.13 0-7.75-.99-10.28-1.95-3-1.13-6.1-2.31-13.7-2l-.05-1.3c7.87-.32 11.1.9 14.22 2.08 2.53.96 4.92 1.86 9.82 1.86 5.44 0 8.08-.79 10.88-1.62 2.77-.83 5.63-1.68 11.28-1.68 5.65 0 8.36.68 11.08 1.33 2.78.67 5.4 1.3 10.81 1.3v1.3c-5.56 0-8.38-.68-11.11-1.33-2.77-.67-5.39-1.29-10.78-1.29s-8.1.79-10.9 1.63c-2.77.83-5.63 1.68-11.25 1.68l-.02-.01ZM141.45 206.88c-5.72 0-8.8-1.03-11.78-2.02-3.01-1-5.86-1.95-11.38-1.95v-1.3c5.73 0 8.81 1.03 11.79 2.02 3.01 1 5.86 1.95 11.37 1.95 5.51 0 8.23-.79 11.08-1.63 2.82-.83 5.74-1.69 11.5-1.69s8.53.68 11.31 1.33c2.83.67 5.51 1.29 11.01 1.29v1.3c-5.65 0-8.53-.67-11.31-1.33-2.83-.67-5.51-1.29-11.02-1.29s-8.27.79-11.13 1.64c-2.81.83-5.73 1.68-11.45 1.68h.01ZM140.73 214.37c-5.76 0-8.04-1.04-10.25-2.04-2.18-.99-4.23-1.92-9.71-1.92v-1.3c5.76 0 8.04 1.04 10.25 2.04 2.18.99 4.23 1.92 9.71 1.92s8.27-.79 11.13-1.62c2.83-.83 5.75-1.68 11.5-1.68s8.53.69 11.31 1.35c2.84.68 5.52 1.32 11.04 1.32v1.3c-5.67 0-8.56-.69-11.34-1.35-2.83-.68-5.51-1.31-11-1.31s-8.27.79-11.13 1.63c-2.83.82-5.75 1.68-11.5 1.68l-.01-.02ZM140.73 221.83c-5.72 0-7.94-1.04-10.09-2.04-1.66-.77-3.22-1.5-6.42-1.79l.12-1.29c3.43.31 5.17 1.13 6.86 1.91 2.11.99 4.11 1.92 9.54 1.92 5.43 0 8.27-.79 11.13-1.63 2.83-.83 5.75-1.68 11.5-1.68s8.53.69 11.31 1.35c2.84.68 5.52 1.32 11.04 1.32v1.3c-5.67 0-8.56-.69-11.34-1.35-2.83-.68-5.51-1.31-11-1.31s-8.27.79-11.13 1.63c-2.83.83-5.75 1.68-11.5 1.68l-.02-.02ZM139.39 229.29v-1.3c5.55 0 8.58-.81 11.79-1.66 3.16-.84 6.43-1.71 12.18-1.71s8.52.67 11.3 1.32c2.84.66 5.52 1.29 11.04 1.29v1.3c-5.67 0-8.55-.67-11.34-1.33-2.83-.66-5.51-1.29-11.01-1.29s-8.62.81-11.84 1.67c-3.15.84-6.41 1.7-12.13 1.7l.01.01Z"/><path d="M132.72 197.49c-.29-6.84-2.89-12.97-4.11-14.87l-.64-1 3.29.02c.13.03 13.24 3.4 18.02 2.39l.27 1.27c-4.93 1.05-17.31-2.06-18.54-2.38h-.74c1.5 2.86 3.48 8.47 3.74 14.51l-1.3.05.01.01Z"/><path d="m163.73 196.2-.75-1.06c3.21-2.27 4.61-5.88 5.1-7.46l-36.75.08v-1.3l38.39-.08-.16.78c-.05.23-1.22 5.78-5.83 9.05v-.01Z"/><path d="M168.92 187.68a.65.65 0 0 1-.4-1.16l3.13-2.44c-9.19 3.5-15.36 3.6-15.66 3.61a.662.662 0 0 1-.66-.64c0-.36.28-.65.64-.66.08 0 8.28-.14 19.66-5.4.3-.14.66-.03.83.25.17.28.1.65-.16.85l-7 5.46a.67.67 0 0 1-.4.14l.02-.01ZM136.84 192.86h-3.85v1.3h3.85v-1.3ZM146.24 192.86h-5.97v1.3h5.97v-1.3ZM155.85 192.86h-5.9v1.3h5.9v-1.3ZM165.79 192.86h-6.22v1.3h6.22v-1.3Z"/><path d="M140.85 194.16h-4.61v-4.5h4.61v4.5Zm-3.31-1.3h2.01v-1.9h-2.01v1.9ZM150.44 194.16h-4.65v-4.5h4.65v4.5Zm-3.34-1.3h2.05v-1.9h-2.05v1.9ZM160.05 194.16h-4.62v-4.5h4.62v4.5Zm-3.33-1.3h2.02v-1.9h-2.02v1.9ZM155.39 185.36h-.65v-.66c.06-1.55-.27-2.71-1-3.48-.79-.82-2.07-1.24-3.82-1.24-3.88 0-8.61 2.05-8.65 2.08l-.55-1.18c6.23-3.05 3.6-10.15 3.49-10.45l-.33-.87.93-.02h.93c13.36 0 13.84 2.05 14 2.72.98 4.26-3.17 12.05-3.77 12.81l-.2.25-.36.04h-.02Zm-5.47-6.67c2.12 0 3.72.55 4.76 1.64.58.6.97 1.36 1.18 2.27 1.26-2.54 3.22-7.29 2.59-10.04-.15-.66-3.75-1.72-12.73-1.72h-.05c.45 1.73 1.09 5.68-1.27 8.74 1.65-.47 3.64-.89 5.51-.89h.01Z"/><path d="M155.7 170.09h-.53l-.11-.52c-.47-1.48-1.98-2.26-4.47-2.26-3.31 0-7.08 1.39-7.12 1.4l-.47-1.21c1.42-.56 2.35-1.39 2.77-2.46.69-1.75-.19-3.64-.2-3.66l-.44-.92 1.59-.02c10.54 0 10.91 1.29 11.07 1.84.86 2.9-1.35 7.23-1.57 7.52l-.19.26-.35.02.02.01Zm-5.11-4.08c2.83 0 4.32.92 5.11 2 .57-1.38 1.33-3.78.87-5.36-.4-.4-3.8-.88-9.48-.9.25.9.46 2.33-.09 3.76-.14.36-.32.69-.54 1.01 1.26-.28 2.72-.5 4.13-.5v-.01ZM138.83 179.88h-.65v-.66c.03-.86-.17-1.48-.6-1.93-.58-.61-1.61-.91-3.07-.91-2.14 0-4.35.69-4.37.69l-.48-1.2c3.34-1.65 1.93-5.5 1.87-5.67l-.33-.88h.94c3.79 0 8.43.29 9.04 1.68 1.42 3.29-.34 6.54-1.16 7.79-.72 1.09-.94 1.09-1.18 1.09h-.01Zm-4.31-4.81c1.82 0 3.17.44 4 1.31.32.34.57.73.73 1.18.79-1.39 1.71-3.78.73-6.05-.39-.43-3.5-.83-6.98-.89.29 1.33.3 3.14-.69 4.63.68-.1 1.45-.18 2.21-.18ZM169.56 182.04h-.43l-.17-.4c-1.16-2.36-2.59-3.58-4.24-3.58-2.32 0-4.4 2.36-4.42 2.39l-1.02-.81c4.08-5.56.9-12.29.87-12.36l-.44-.92 1.64-.02c11.07 0 11.52 1.63 11.67 2.16 1.45 5.72-1.11 11-2.66 13-.25.32-.45.54-.79.54h-.01Zm-4.84-5.28c1.95 0 3.61 1.17 4.96 3.47 1.12-1.68 3.39-6.22 2.08-11.39-.35-.55-4-1.17-10.05-1.2.65 1.77 1.73 5.8.18 9.91.83-.45 1.8-.79 2.84-.79h-.01ZM149.063 179.379l-.229 7.617 1.299.039.229-7.617-1.299-.039ZM152.925 179.578l-1.3.033.187 7.427 1.3-.032-.187-7.428Z"/><path d="m149.612 166.616-.074 3.499 1.299.027.074-3.499-1.299-.027ZM152.346 166.676l-1.299.033.087 3.419 1.3-.033-.088-3.419ZM135.28 176.02h-1.3v7.36h1.3v-7.36ZM136.91 176.02h-1.3v7.71h1.3v-7.71ZM164.56 177.13h-1.3v8.29h1.3v-8.29ZM166.17 177.13h-1.3v8.08h1.3v-8.08ZM151.78 158.01h-1.3v2.97h1.3v-2.97Z"/><path d="M150.48 158.79v-5.16l1.17.65c.56.32 1.05.59 1.52.61 1.28-.21 2.35-.2 3.45.01l-.02 1.28c-.82.13-1.36.61-2.04 1.22l-.4.35c-.59.64-1.46.71-2.16.78-.25.02-.5.04-.73.09l-.79.18v-.01Zm1.3-2.97v1.41h.11c.58-.05 1.07-.09 1.38-.42l.44-.39c.13-.12.26-.23.39-.35-.25.02-.51.06-.78.1h-.11c-.52 0-.99-.15-1.44-.36l.01.01ZM165.57 164.8h-1.3v1.97h1.3v-1.97Z"/><path d="M164.27 165.54v-5.1l.96.52c.54.29 1.21.65 1.71.68 1.3-.2 2.34-.2 3.47.01l-.02 1.28c-.89.13-1.42.6-2.09 1.19l-.34.3c-.66.74-1.53.82-2.23.88-.23.02-.45.04-.67.08l-.78.16h-.01Zm1.3-2.96V164h.04c.67-.06 1.09-.12 1.39-.47l.07-.07.37-.32c.12-.1.23-.2.35-.31-.23.02-.46.05-.7.09h-.1c-.47 0-.96-.14-1.41-.34h-.01ZM136.66 167h-1.3v3.12h1.3V167Z"/><path d="M135.36 168.16V163l1.17.65c.54.3 1.05.59 1.52.61 1.24-.21 2.34-.2 3.45.01l-.02 1.28c-.9.14-1.5.69-2.2 1.32l-.26.24c-.61.65-1.46.73-2.15.79-.24.02-.49.04-.72.09l-.79.18v-.01Zm1.3-2.98v1.42h.1c.65-.06 1.06-.11 1.35-.42l.3-.27.51-.45c-.23.02-.47.05-.71.1h-.11c-.52 0-1-.15-1.44-.36v-.02ZM128.05 195.8h-1.3v-4.39h-4.41v3.69h-1.29v-4.99h7v5.69ZM127.87 166.57h-6.64l-1.94-5.88 3.46 1.55 1.76-2.79 1.75 2.78 3.56-1.49-1.94 5.83h-.01Zm-5.71-1.3h4.76l.74-2.23-1.94.81-1.23-1.96-1.26 2-1.79-.81.72 2.18v.01Z"/><path d="m122.426 165.982-.631 24.752 1.3.033.63-24.752-1.299-.033ZM126.597 165.984l-1.299.036.687 24.75 1.299-.036-.687-24.75ZM183.34 198.4h-1.3v-4.32h-4.43v3.66h-1.3v-4.96h7.03v5.62ZM183.15 166.57h-6.67l-1.91-5.88 3.45 1.55 1.78-2.79 1.74 2.77 3.54-1.49-1.94 5.84h.01Zm-5.72-1.3h4.79l.74-2.22-1.92.81-1.23-1.97-1.28 2-1.8-.81.71 2.19h-.01Z"/><path d="m177.737 165.998-.661 27.422 1.3.032.66-27.422-1.299-.032ZM181.904 165.978l-1.3.032.69 27.422 1.299-.033-.689-27.421ZM311.53 235.73H60.64v1.3h250.89v-1.3Z"/><path d="M329.97 250.71h-288v-.65c0-4.07-5.42-5.79-5.48-5.81l-.46-.14v-8.38h14.51v1.3H37.33v6.14c1.4.53 5.48 2.39 5.9 6.24H328.7c.42-3.85 4.51-5.71 5.91-6.24v-6.14h-13.22v-1.3h14.52v8.38l-.46.14c-.06.02-5.49 1.74-5.49 5.81v.65h.01Z"/><path d="M335.26 242.98H36.68v1.3h298.58v-1.3ZM214.76 95.84l-.85-.98c.5-.52.29-.97.16-1.16-.51-.29-.71-.68-.79-.97-.21-.74.2-1.42.25-1.5 1.23-1.48 3.23-.83 4.48-.06.43-.58 0-1.74 0-1.76-1-2.54-4.59-2.47-4.64-2.46h-.39l-.2-.32c-.54-.92-.68-1.78-.44-2.57.12-.38.31-.69.52-.93-.33-.43-.35-.95-.35-1.07.13-1.17 1.42-1.47 2.21-1.54.33-.9 1.2-1.59 1.31-1.68 1.27-1 3.51-1.12 6.14-.33 2.56.77 5.62 2.53 6.29 4.57l-1.23.41c-.44-1.33-2.78-2.94-5.43-3.74-2.19-.66-4.04-.61-4.97.12-.3.23-.92.85-.93 1.3l-.02.63h-.63c-.65 0-1.35.17-1.44.33 0 .03.06.17.09.2h.1l.35 1.23s-.59.3-.77.89c-.1.35-.05.75.16 1.21 1.16.06 4.36.47 5.47 3.28.38.99.61 2.85-.89 3.61l-.35.18-.32-.23s-2.21-1.55-3.08-.51c0 0-.09.24-.05.38.02.08.11.16.25.23l.12.06.09.1c.19.22.41.58.5 1.01.94-.61 1.14-.66 1.22-.68l.34 1.25c-.24.1-1.37.85-2.29 1.5h.01Z"/><path d="m211.15 105.3-1.08-2.11c-.56-1.1 1.34-3.35 5.65-6.67 1.47-1.7 1.62-2.18 1.63-2.23-.04.15.07.47.4.58l.41-1.23.45.49c.11.4.05.98-1.95 3.3l-.09.09c-1.59 1.23-3.06 2.52-4.05 3.53.59-.33 1.32-.74 2.22-1.25 1.71-.96 4.81-2.67 7.12-3.82l-.67-5 3.25-2.19c-.6-1.33-1.77-4.37-.62-5.75.06-.09.91-1.23 2.23-1.3.71-.03 1.39.25 2.02.85l1.7-.37c3.18-.56 3.48.29 3.58.57l.07.2-.06.2c-.04.12-.83 2.74-3.8 4.02.2.32.4.69.49 1.03l.59 4.27-1.29.18-.58-4.18c-.09-.29-.51-.91-.75-1.22l-.59-.75.91-.28c2.14-.65 3.14-2.13 3.53-2.92-.45-.02-1.19.03-1.87.15l-2.4.53-.25-.29c-.42-.48-.85-.72-1.25-.69-.7.04-1.26.78-1.27.79-.62.75.23 3.36 1 4.9l.25.51-3.52 2.37.68 5.13-.42.21c-3.62 1.77-10.19 5.51-11.58 6.34l-.13 2.03.04-.02ZM227.54 81.74l-1.1-.7 1.01-1.59-.97-.56c-.48-.28-1.85-.85-2.34-1.05l-1.12-.46 1.01-.68s.42-.31.32-.71c-.06-.21-.48-.89-.91-1.5-1.3.3-1.52.54-1.54.57-.39.49-.3.88-.3.89l.24 1-1-.2s-1.4-.3-2.44-.34l-.95-.04.38-.87c.12-.29.25-.84.13-1.11-.08-.1-.43-.27-.87-.43l.64 4.49-1.29.18-.93-6.49.95.25c.85.22 2.32.7 2.67 1.44.2.43.2.92.13 1.33.39.04.76.1 1.07.15.07-.32.22-.69.52-1.07.33-.48 1.16-.84 2.67-1.14l.4-.08.31.32c.37.49 1.23 1.7 1.38 2.29.13.5.04.95-.15 1.31.27.12.58.25.87.38.13-.38.35-.8.76-1.08.8-.6 2.16-.31 2.88-.16l.91.19-.42.81-2.93 4.61.01.05Zm.83-4.52c-.26 0-.43.04-.53.11-.29.2-.38.77-.38.99v1.11l1.38-2.18c-.18-.02-.34-.03-.47-.03ZM216.48 83.11l-.13-.6c-.3-1.4.43-2.12.52-2.2l.21-.13c.12-.05.26-.07.41-.07.89 0 2.31.97 2.72 1.27l1.27.91-5 .82Z"/><path d="M217.49 92.11c0-.19-.14-1.86-1.83-1.86-.46 0-1.01.12-1.63.35-.57.17-1.36.35-2.17.35-1.6 0-2.69-.71-3.08-2-.03-.11-.18-.79.21-1.39.17-.27.52-.62 1.19-.76 0 0 .12-.03.31-.03.73 0 1.36.36 1.71 1 0 0 .3.37.78.37.07 0 .15 0 .23-.03l.99-.29s.59-.2 1.31-.2c.92 0 1.71.31 2.27.9.73.76 1.07 1.96 1.01 3.57h-1.3v.02Zm-7-4.03c-.24.04-.35.1-.41.18-.08.12-.06.3-.05.36.13.42.47 1.03 1.83 1.03.66 0 1.32-.15 1.76-.28.03-.01.06-.02.08-.03l-.18.05a2.3 2.3 0 0 1-.55.07c-.96 0-1.64-.62-1.88-.99-.07-.13-.21-.38-.61-.38l.01-.01Zm5.02.86c-.45 0-.82.11-.9.13.4-.09.79-.13 1.15-.12-.08 0-.17-.01-.25-.01Z"/><path d="M218.03 94.9c-.55 0-1.21-.18-1.94-.73l.78-1.04c1.06.8 1.68.37 1.88.23 1.21-.82 1.83-3.47 1.43-4.91-.36-1.33-1.41-2.4-1.42-2.41l.92-.92c.05.05 1.3 1.32 1.75 2.99.54 1.94-.2 5.14-1.95 6.33-.32.22-.82.46-1.46.46h.01ZM201.68 89.08l-1.1-.7 11.17-17.36-.37-1.52-1.44.28-11.27 17.44-1.09-.71 11.57-17.9 3.2-.63.79 3.27-11.46 17.83ZM198.02 92.71c-.78 0-1.78-.32-2.23-1.2-.5-1.17-.04-2.54.99-3.02.26-.13.54-.19.83-.19.84 0 1.63.56 2 1.43.25.79-.04 2.52-.94 2.88-.18.08-.46.1-.65.1Zm-.42-3.11a.66.66 0 0 0-.27.06c-.45.21-.56.86-.37 1.3.22.44.97.45 1.05.45.1 0 .17-.01.18-.01.09-.12.28-.92.19-1.21-.15-.33-.47-.59-.79-.59h.01Z"/><path d="M195.46 94.16c-1.45 0-2.41-.63-2.63-1.72-.11-.56 0-1.13.34-1.62.37-.53.95-.9 1.6-1.01 1.4-.22 2.47 1.13 2.69 2.36.26 1.49-.66 1.8-1.55 1.97h-.12s-.16.02-.33.02Zm-.4-3.08c-.38.06-.65.23-.82.47-.09.14-.2.36-.14.63.11.56.8.68 1.36.68h.26c.34-.07.47-.12.51-.15-.01-.01 0-.1-.04-.3-.11-.59-.65-1.32-1.13-1.32v-.01Z"/><path d="M194.34 96.71c-1 0-1.68-.49-1.84-1.38-.16-.99.39-2.26 1.46-2.61l.4 1.24c-.36.12-.65.69-.57 1.14.02.11.08.43.99.27.48-.09.73-.25.81-.36.01-.02.05-.07.01-.21l-.02-.12c-.01-.22-.16-.45-.33-.51l.43-1.23c.63.22 1.12.87 1.19 1.58.09.43.03.83-.19 1.17-.3.47-.88.79-1.67.93-.23.04-.45.06-.65.06l-.02.03Z"/><path d="M193.53 99.04c-.38 0-.71-.1-1-.3-.76-.53-.81-1.51-.81-1.62v-.2l.99-1.56 1.1.7-.76 1.2c.04.15.11.34.23.42.15.1.41.07.61.01l3.89-5.96 1.09.71-4.1 6.28-.3.15c-.33.12-.64.17-.93.17h-.01ZM199 96.36l-.39-1.24s1.1-.36 1.22-1.18c.04-.22.16-1.29-.73-1.45l.22-1.28c1.75.3 1.94 2.05 1.79 2.93-.23 1.62-2.04 2.19-2.12 2.22h.01Z"/><path d="M212.32 100.77c-3.78 0-11.81-6.02-12.15-6.27l.78-1.04c2.22 1.67 8.6 6.01 11.37 6.01v1.3ZM205.73 106.13l-1.29-.14c.16-1.48-1.63-3.5-2.9-4.69-.35.64-.9 1.08-1 1.16l-1.6 1.24.57-1.94c.3-1.03-2.07-3.71-3.76-5.19l.86-.98c.61.53 3.04 2.74 3.91 4.73v-.11l-.26-1.65 1.31 1.04c.46.37 4.46 3.65 4.16 6.52v.01Z"/><path d="M199.95 110.07h-.26c-.29 0-.55-.2-.63-.48-.08-.28.04-.58.3-.73 1.72-1.01 3.48-2.08 5.29-3.17 12.88-7.77 27.48-16.57 44.97-18.55a.65.65 0 0 1 .23 1.28c-.12.03-11.79 3.08-19.09 7.66 1.73.6 4.26 1.65 4.71 2.83.09.23.04.49-.13.67-.17.18-.42.25-.66.19-.03-.01-7.92-2.24-18.26 3.64 1.56.77 3.88 2.06 4.34 3.11.1.23.06.5-.11.69a.65.65 0 0 1-.67.2c-.02 0-2.26-.62-5.78-.62-3.3 0-8.41.56-13.99 3.23-.09.04-.18.06-.28.06l.02-.01Zm39.61-19.66c-12.72 3.46-23.88 10.15-33.97 16.23 3.41-.92 6.41-1.16 8.63-1.16 1.46 0 2.71.1 3.69.22-.91-.56-2.07-1.16-3.14-1.64a.638.638 0 0 1-.38-.55c-.02-.24.1-.47.31-.6 7.67-4.7 14.16-5.07 17.62-4.82-.95-.43-2.13-.86-3.22-1.19a.648.648 0 0 1-.46-.52c-.04-.25.07-.5.27-.64 3.04-2.12 7.01-3.93 10.65-5.34v.01ZM190.24 116.38c-.22 0-.43-.11-.55-.31a.645.645 0 0 1 .21-.89s.91-.57 5.47-3.6c.3-.2.7-.12.9.18.2.3.12.7-.18.9-4.61 3.06-5.48 3.6-5.51 3.62-.11.07-.22.1-.34.1Z"/><path d="M198.39 116.37c-.54-.06-3.27-.45-3.4-2.08-.06-1.01.19-1.76.74-2.26.79-.71 1.85-.55 1.96-.53l-.22 1.28.11-.64-.1.64s-.56-.08-.89.22c-.3.27-.33.8-.31 1.19.03.31 1.14.76 2.25.88l-.15 1.29.01.01Z"/><path d="M196.21 113.2c-.24-.09-.46-.24-.63-.4-.93-.86-1.42-1.74-1.37-2.46.03-.39.22-.73.53-.94 2.73-1.49 5.17-.61 5.27-.57l-.46 1.22c-.08-.03-1.95-.68-4.05.41 0 .15.17.66.97 1.4.05.05.12.1.2.13l-.47 1.21h.01ZM226.96 109.75c-.19 0-.39-.02-.58-.06-.86-.19-1.55-.77-2.05-1.73-.03-.05-.85-1.57-.48-4.69 0-.12-.1-1.93-2.36-2.29l.2-1.28c2.73.43 3.45 2.57 3.45 3.65-.33 2.72.32 3.98.33 3.99.16.31.34.55.53.72-.32-.41-.53-.92-.61-1.5-.17-1.22.39-2.81.46-2.99 1.33-2.75 2.05-4.74 2.06-4.76l1.22.44c-.03.08-.75 2.07-2.09 4.82-.12.34-.47 1.54-.37 2.3.05.36.2.85.63 1.16.37.26.88.33 1.5.21l.53 1.15c-.05.04-1.11.85-2.37.85v.01ZM220.13 141.74c-.75 0-2.64-1.25-2.64-2.81 0-1.01.42-2.29 2.42-2.66 1.35-.26 2.23.84 2.5 1.45l-1.19.53s-.4-.83-1.07-.7c-1.13.2-1.36.7-1.36 1.38 0 .68 1.07 1.45 1.39 1.52l-.05 1.3v-.01Z"/><path d="M218.3 137.74c-.09-.11-.88-1.06-.63-2.05.1-.38.38-.9 1.2-1.22-.01 0 1.65-.92 3.36-.09 1.11.12 3.87.2 5.07-.79.25-.21.42-.46.5-.75-.32-.15-.96-.38-2.08-.46-.03 0-2.5.18-4.4-2.8-.63.65-1.2 1.32-1.28 1.55l-.46-.07-.83-.03v-.11c.04-.9-.08-3.22-1.13-4.21-.15-.17-2.27-2.83-1.76-8.87-.85-.69-3.21-2.87-4.06-6.42l1.26-.3c.91 3.78 3.82 5.88 3.85 5.9l.31.22-.04.38c-.57 5.7 1.36 8.19 1.38 8.22.88.82 1.24 2.16 1.39 3.27.28-.3.62-.65 1.04-1.06l.63-.61.4.78c1.54 3.01 3.65 2.87 3.67 2.87 2.31.15 3.11.83 3.25.97l.21.21-.02.3c-.05.82-.4 1.51-1.03 2.03-1.93 1.59-6 1.09-6.18 1.06l-.22-.07c-1.11-.59-2.26.03-2.31.05-.25.1-.46.21-.49.36-.06.26.2.71.36.89l-.99.84.03.01Z"/><path d="M197.42 136.27c-.37-.77-.43-1.51-.16-2.2.42-1.08 1.5-1.59 1.77-1.7 1.03-.55 4.14-.63 5.17-.64 3.07-.55 3.42-3.94 3.43-5.37-1.92-.02-3.27-.99-3.34-1.04l-1.6-1.17h1.99c.47-.07 2.21-1.73 3.71-3.55 2.63-3.19 7.77-3.76 7.98-3.78l.14 1.29s-4.83.55-7.12 3.32c-.84 1.02-2.15 2.51-3.28 3.36.55.19 1.27.34 2.08.25l.66-.07.06.66c.2 2.26-.49 6.72-4.54 7.4h-.1c-1.86.03-4.15.22-4.62.5l-.1.05s-.83.34-1.08.99c-.13.34-.09.71.12 1.15l-1.17.57v-.02Z"/><path d="M199.09 139.14c-1.84 0-2.15-1.19-2.16-1.25-.2-.5-.19-1.08.07-1.61.56-1.17 2.1-1.69 2.28-1.74l.39 1.24c-.3.1-1.23.5-1.5 1.07-.1.2-.1.41 0 .66.07.18.41.41 1.29.32l.13 1.29c-.18.02-.35.03-.5.03v-.01Z"/><path d="M201.14 141.69c-.72 0-1.24-.3-1.31-.35-1.09-.78-1.27-1.58-1.25-2.12.08-1.48 1.79-2.51 1.99-2.62l.65 1.13c-.34.2-1.3.9-1.34 1.57-.02.31.21.64.66.97 0 0 .46.23.97.07.49-.16.91-.63 1.26-1.4l.09-.21.2-.1c.2-.1 2.03-1 3.56-.5.29.09.54.23.77.41 1.04-2.05 3.59-6.56 6.35-7.52-.22-.32-.37-.71-.38-1.17-.01-1.39 1.35-2.72 4.18-4.06l.56 1.17c-3.1 1.47-3.43 2.5-3.43 2.87 0 .68 1.02 1.17 1.03 1.17l-.48 1.21c-2.47-.85-6.03 5.5-7.09 7.8l-.57 1.23-.6-1.22c-.17-.33-.41-.55-.74-.66-.76-.25-1.84.1-2.38.33-.5 1.01-1.17 1.64-1.97 1.89-.26.08-.51.11-.75.11h.02Z"/><path d="m199.27 143.53-.41-1.07c-.29-.75-.47-2.14.64-2.64l.45 1.01c.26-.2.54-.36.82-.41l.25 1.28c-.19.04-.7.5-1.05.94l-.71.9.01-.01ZM195.96 139.95l-.12-1.03c-.07-.65.14-1.98 1.44-2.38l.32 1.05c.27-.07.4-.05.47-.04l-.21 1.28h.09c-.16.02-.69.29-1.12.56l-.88.55.01.01ZM195.42 135.84l.42-1.11c.03-.07.7-1.7 2.69-1.94l.15 1.29c-.39.05-.7.18-.94.33.04 0 .07.02.11.03l-.32 1.26c-.63-.16-.95-.1-.95-.1l-1.17.23.01.01ZM216.13 137.61v-.85c0-.98 1.38-1.67 2.2-1.99l.47 1.21c-.1.04-.2.08-.31.13.21.09.4.23.54.43l-1.08.73c-.09-.03-.61 0-1 .11l-.82.23ZM217.24 142.77l-.48-1.1c-.6-1.38.77-2.73.93-2.88l.9.94-.07.07c.21-.04.44-.04.69.01l-.28 1.27c-.39-.08-.88.48-1.03.69l-.66 1ZM219.03 144.92l.15-1.33c.24-2.1.64-2.31.85-2.42l.59 1.16c.12-.06.17-.14.17-.14-.04.07-.08.23-.13.44.27-.06.56-.1.84-.06l-.17 1.29c-.35-.05-.95.23-1.17.36l-1.14.71.01-.01ZM238.62 107.18c-.42-1.58-.38-2.56.13-3.16.58-.69 1.5-.61 2.33-.53.36.03.73.07 1.04.03 1.4-.18 2.39-.85 2.77-1.88.27-.72.19-1.55-.17-2.27-.78.83-1.8.85-3.02.87-.63.03-1.07-.01-1.47-.05-.78-.07-1.25-.11-2.31.43-1.72.8-1.11 2.55-.06 4.92l.21.49-1.19.51-.21-.48c-.91-2.08-2.29-5.22.68-6.61 1.38-.7 2.13-.63 3-.56.37.03.76.06 1.26.04 1.64-.03 2.07-.08 2.52-1l.42-.86.64.71c1.08 1.19 1.44 2.88.92 4.3-.55 1.49-1.95 2.49-3.84 2.72-.44.05-.88.01-1.3-.03-.48-.04-1.08-.09-1.22.08-.05.06-.28.43.14 1.99l-1.26.33-.01.01Z"/><path d="M222.1 143.93c-.7 0-1.32-.23-1.79-.68-.13-.14-.95-1.09-.65-2.24.23-.87 1.02-1.54 2.36-1.98l.41 1.23c-.86.29-1.4.67-1.51 1.07-.13.48.31 1 .32 1.01.25.23.66.33 1.15.27 1.01-.14 2.09-.91 2.48-1.54.66-1.21 2.05-1.58 2.11-1.59l.12-.03.12.02c1.17.15 1.68 1.21 1.86 2.14 3.95-1.31 4.73-6.75 5.16-9.75.05-.35.09-.66.14-.93.32-1.99 1.53-3.59 2.35-4.47-1.21-.15-3.56-.2-5.61-.14-1.62-.17-2.68-.71-3.24-1.63-.77-1.28-.19-2.75-.17-2.81l.15-.37 2.24-.19c3.43-.28 6.67-2.6 6.67-4.78v-.45l.42-.16c.13-.05 3.3-1.28 2.64-4.09l1.27-.3c.68 2.89-1.52 4.73-3.06 5.44-.35 2.74-3.86 5.31-7.84 5.63l-1.38.12c-.06.34-.09.86.18 1.29.33.55 1.06.88 2.17 1 7.17-.21 7.3.57 7.39 1.08l.06.37-.29.24s-2.26 1.89-2.67 4.42c-.04.26-.09.56-.13.9-.46 3.24-1.42 9.98-6.89 11.02l-.77.15v-.78s-.04-1.41-.7-1.65c-.27.1-.87.38-1.18.94-.56.93-1.99 1.98-3.43 2.18-.16.02-.31.03-.46.03v.01Z"/><path d="M230.99 119.97c-.54 0-1.1-.09-1.65-.27-3.95-1.24-5.31-11.76-5.45-12.96l1.29-.15c.5 4.19 2.18 11.13 4.56 11.87 1.5.49 3.05.07 3.96-1.07.91-1.14.94-2.66.08-4.07-.04-.05-2.02-2.65-1.37-4.93.31-1.1 1.15-1.91 2.5-2.41 2.09-.82 3.28-.27 4.44.28 1.13.53 2.29 1.07 4.67.69l.53-.08.18.5c.28.75.16 1.64-.34 2.5-.68 1.19-1.92 2.07-3.24 2.3-.58.12-1.11.08-1.56.03a2.6 2.6 0 0 1-.38 1.69c-.51.82-1.42 1.35-2.32 1.35h-.58l-.06-.58c-.04-.42-.22-2.55.82-3.37.78-.66 1.62-.54 2.36-.43.47.07.96.14 1.5.03.95-.17 1.86-.82 2.35-1.67.18-.31.28-.62.31-.9-2.36.24-3.69-.38-4.77-.88-1.11-.52-1.85-.86-3.42-.24-.96.36-1.52.87-1.71 1.55-.39 1.37.73 3.24 1.19 3.84 1.17 1.93 1.1 4.05-.14 5.61-.91 1.14-2.28 1.77-3.73 1.77h-.02Zm7.27-7.85a.82.82 0 0 0-.37.19c-.23.19-.36.82-.38 1.47.24-.13.45-.33.6-.56.15-.25.29-.63.15-1.1ZM200.51 117.39c-.71 0-1.38-.22-1.89-.62-.47-.37-.77-.88-.83-1.43-.06-.67.16-1.27.64-1.75l.92.92c-.21.21-.29.42-.27.7.03.25.2.43.34.54.34.27.85.39 1.36.32.46-.06.89-1.27 1.01-2.11l.02-.16.09-.13c1.48-2.07 3.07-3.15 4.73-3.2 1.47-.05 2.58.72 3.15 1.23 2.25-1.44 4.31-1.92 6.12-1.44 1.25.33 2.12 1.06 2.66 1.68.72-1.09 2-1.51 2.73-1.58l.12 1.29c-.07 0-1.8.2-2.06 1.74l-.34 2.01-.89-1.84s-.81-1.6-2.59-2.06c-1.54-.4-3.39.12-5.48 1.56l-.49.34-.38-.46s-1.04-1.26-2.53-1.18c-1.2.05-2.42.9-3.62 2.53-.12.74-.6 2.88-2.11 3.06-.14.02-.29.03-.43.03l.02.01Z"/><path d="m199.71 120.19-.53-1.41c-.21-.57-.64-1.96-.03-2.66l.86.76c.27-.38.58-.72.89-.88l.59 1.16c-.22.12-.75.92-1.12 1.68l-.66 1.35ZM195.25 117.51l-.54-.83c-.73-1.18.19-2.32.78-2.76l.74.99c.12-.04.25-.09.39-.12l.33 1.26c-.85.23-1.13.63-1.14.64l-.56.82ZM194.95 112.91l-1.29-.14c.11-1.04.75-1.96.82-2.07l1.06.75s-.51.73-.59 1.45v.01ZM196.06 96.18l-.36-1.25.16-.05-.18-.17.92-.92 1.74 1.74-2.28.65ZM199.81 94.22l-2.77-1.62.65-1.12.65.37-.03-.37 1.3-.1.2 2.84Z"/><path d="m199.15 94.88-3.21-.59.24-1.28.37.06-.28-.45 1.11-.68 1.77 2.94ZM201.98 92.54c-.31 0-.62-.08-.91-.25l-2.2-1.38.69-1.1 2.19 1.36c.21.12.49.06.63-.15l.24-.42c.16-.24.06-.5-.12-.63l-6.29-4.01a.464.464 0 0 0-.6.12l-.29.45c-.14.22-.05.5.13.61l1.87 1.19-.7 1.1-1.87-1.18c-.8-.5-1.04-1.58-.53-2.41l.31-.47c.51-.76 1.54-.98 2.36-.51l6.35 4.05c.8.59 1 1.63.48 2.4l-.25.42c-.36.53-.92.81-1.49.81ZM128.034 46.881l-1.274.262.799 3.879 1.273-.262-.798-3.879ZM130.322 57.613l-1.27.28 1.107 5.029 1.27-.28-1.107-5.03ZM185.22 41.15l-9.78-5.97 1.02-.53c9.42-4.93 6.89-11.31 6.86-11.37l1.2-.5c.03.07 2.81 7.06-6.47 12.47l7.84 4.79-.68 1.11h.01Z"/><path d="M185.55 24.56c-1.63 0-4.23-2.6-4.23-5.68 0-3.08 2.64-5.67 4.3-5.67v1.3c-.85 0-3 1.94-3 4.37 0 2.56 2.22 4.38 2.92 4.38v1.3h.01ZM148.68 38.18l-.75-1.06c4.77-3.35 3.93-7 3.31-8.48-.86.66-2.49 1.62-4.55 1.56-2.1-.08-4.08-1.22-5.89-3.4l-.27-.32.18-.38c.07-.14 1.66-3.34 4.79-4.28 1.14-.34 2.33-.34 3.54 0-.84-1.45-1.69-3.55-1.35-5.68.31-1.88 1.48-3.42 3.5-4.59l.65 1.12c-1.66.97-2.63 2.2-2.87 3.68-.52 3.17 2.36 6.52 2.39 6.56l-.82.99c-1.66-.98-3.24-1.26-4.68-.83-2.03.61-3.32 2.45-3.8 3.24 1.47 1.66 3.03 2.53 4.64 2.59 2.44.1 4.23-1.72 4.24-1.74l.57-.58.44.68c.04.06 3.75 5.96-3.3 10.93l.03-.01Z"/><path d="M160.96 36.89c-8.01-2.99-6.22-10.08-6.2-10.15l.22-.84.74.45s2.23 1.34 4.58.63c1.54-.46 2.82-1.7 3.82-3.67-.68-.64-2.44-2.06-4.55-2.09-1.5 0-2.96.67-4.29 2.07l-1.06-.73s1.91-4.08.55-7.02c-.62-1.35-1.87-2.29-3.71-2.78l.34-1.26c2.23.6 3.76 1.77 4.55 3.49.91 1.97.64 4.25.22 5.89 1.09-.66 2.26-1 3.43-.97 3.28.06 5.69 2.71 5.79 2.82l.29.32-.18.39c-1.19 2.57-2.82 4.17-4.84 4.78-1.95.59-3.77.07-4.78-.36-.17 1.72.08 5.77 5.53 7.8l-.45 1.22v.01ZM243.092 46.937l-.789 3.687 1.271.272.79-3.687-1.272-.272ZM240.748 57.627l-.986 4.729 1.273.265.986-4.728-1.273-.266ZM185.89 41.03l-.67-1.12 7.82-4.67c-4.63-2.71-6.19-5.78-6.68-7.95-.57-2.56.19-4.44.23-4.52l1.2.5c-.11.26-2.5 6.47 6.86 11.37l1.03.54-9.79 5.84v.01Z"/><path d="M176.84 24.67c-.42 0-.86-.03-1.31-.1-2.81-.44-5.27-2.31-7.32-5.56l-.23-.36.24-.35c.12-.17 2.89-4.23 7.34-4.93 1.82-.29 3.65.03 5.45.95-1-2.18-2.09-5.57-1.14-8.72.74-2.47 2.61-4.34 5.53-5.56l.25-.05h.13l.16.05c2.89 1.21 4.72 3.06 5.44 5.51.93 3.15-.21 6.55-1.26 8.75 1.79-.9 3.59-1.21 5.4-.93 4.45.7 7.23 4.75 7.35 4.93l.24.35-.23.36c-2.05 3.24-4.51 5.11-7.32 5.56-4.18.66-7.55-2.1-7.69-2.22l.83-1s3.07 2.51 6.67 1.93c2.32-.37 4.39-1.91 6.17-4.59-.74-.94-3.03-3.54-6.23-4.03-2.19-.34-4.42.37-6.63 2.11l-.94-.88c.04-.05 3.7-5.48 2.38-9.97-.58-1.98-2.08-3.52-4.46-4.57-2.41 1.06-3.94 2.62-4.55 4.63-1.35 4.48 2.19 9.86 2.22 9.92l-.94.87c-2.21-1.74-4.44-2.45-6.63-2.11-3.2.5-5.48 3.09-6.21 4.03 1.78 2.68 3.86 4.23 6.18 4.6 3.61.57 6.62-1.91 6.65-1.93l.83 1c-.12.11-2.83 2.32-6.38 2.32l.01-.01Z"/><path d="m185.59 24.56-.08-1.3c.87-.05 2.92-1.95 2.92-4.38 0-2.43-2.08-4.37-2.92-4.37v-1.3c1.63 0 4.22 2.59 4.22 5.67s-2.51 5.58-4.14 5.68ZM222.47 38.08c-7.15-5.03-3.42-11.01-3.38-11.07l.45-.66.56.58s1.79 1.82 4.27 1.75c1.62-.06 3.2-.93 4.69-2.59-.49-.79-1.81-2.63-3.84-3.22-1.46-.42-3.04-.13-4.71.88l-.83-.98s2.92-3.41 2.38-6.6c-.25-1.48-1.21-2.71-2.87-3.68l.65-1.12c2.01 1.17 3.19 2.71 3.5 4.59.35 2.13-.5 4.23-1.33 5.7 1.22-.36 2.42-.37 3.57-.03 3.16.92 4.78 4.12 4.84 4.25l.19.38-.27.33c-1.83 2.18-3.83 3.32-5.95 3.39-2.09.08-3.68-.89-4.55-1.55-.59 1.51-1.39 5.25 3.38 8.6l-.75 1.06v-.01Z"/><path d="m210.04 36.67-.44-1.22c5.45-1.98 5.74-5.99 5.59-7.71-1.02.42-2.84.94-4.79.35-2-.61-3.62-2.22-4.79-4.78l-.18-.39.28-.32c.1-.11 2.52-2.79 5.81-2.85 1.22-.03 2.34.3 3.43.97-.41-1.63-.66-3.89.25-5.86.8-1.72 2.32-2.89 4.54-3.49l.34 1.25c-1.83.49-3.07 1.43-3.7 2.78-1.36 2.93.49 6.94.51 6.98l-1.06.73c-1.31-1.37-2.72-2.06-4.2-2.06h-.08c-2.12.04-3.89 1.48-4.57 2.12.99 1.97 2.26 3.2 3.78 3.67 2.34.72 4.56-.61 4.59-.62l.75-.46.22.85c.02.07 1.72 7.16-6.28 10.06ZM130.73 62.97l-.27-1.27c25.58-5.44 55.14-5.5 55.44-5.5.3 0 29.69.06 55.15 5.43l-.27 1.27c-25.21-5.32-54.59-5.4-54.89-5.4-.3 0-29.96.11-55.17 5.47h.01Z"/><path d="m130.5 60.16-.27-1.27c25.23-5.33 55.37-5.57 55.67-5.57.3 0 29.81.15 55 5.41l-.27 1.27c-25.27-5.28-54.44-5.39-54.73-5.39-.3 0-30.09.19-55.4 5.54v.01ZM243.29 47.23c-25.63-5.89-57.2-6.11-57.52-6.11v-1.3c.32 0 32.03.22 57.81 6.14l-.29 1.27Z"/><path d="m127.62 47.35-.29-1.27c25.75-5.95 58.13-6.26 58.45-6.26v1.3c-.31 0-32.55.31-58.16 6.23ZM242.72 49.87c-25.52-5.78-56.63-5.85-56.94-5.85v-1.3c.31 0 31.57.07 57.23 5.88l-.29 1.27Z"/><path d="m128.39 49.99-.29-1.27c25.7-5.86 57.36-6.01 57.67-6.01v1.3c-.31 0-31.83.14-57.38 5.97v.01ZM185.63 53.06l-8.98-4.34 8.98-4.43 8.94 4.43-8.94 4.34Zm-6.02-4.36 6.02 2.91 5.99-2.91-5.99-2.97-6.02 2.97ZM216.36 53.77c-.5 0-1-.02-1.51-.07-3.5-.3-6.98-1.74-6.84-3.89.17-1.7 2.53-2.79 6-2.79.45 0 .93.02 1.41.06 4.04.34 6.91 2.01 6.82 3.95-.19 1.66-2.55 2.74-5.87 2.74h-.01Zm-2.35-5.46c-2.81 0-4.63.83-4.7 1.6-.05.82 2.07 2.18 5.66 2.49.47.05.94.07 1.39.07 2.72 0 4.49-.8 4.58-1.55.04-.95-2.25-2.26-5.63-2.55-.44-.04-.88-.06-1.3-.06ZM241.39 58.75l-7.97-6.24 9.93-2.48 2.04 5.42-4 3.3Zm-5.07-5.62 5.05 3.96 2.48-2.04-1.3-3.46-6.23 1.55v-.01Z"/><path d="M154.97 53.86c-3.43 0-5.84-1.11-6.02-2.76-.05-.53.13-1.06.53-1.55 1.02-1.23 3.48-2.17 6.28-2.41 4.11-.35 7.22.85 7.41 2.72.05.51-.13 1.02-.51 1.49-1.01 1.22-3.48 2.18-6.29 2.45-.48.04-.95.06-1.39.06h-.01Zm2.14-5.48c-.4 0-.82.02-1.24.05-2.79.24-4.75 1.18-5.38 1.95-.18.21-.26.41-.24.59.08.77 1.91 1.59 4.72 1.59.41 0 .84-.02 1.28-.06 2.81-.26 4.77-1.21 5.41-1.98.16-.2.24-.38.22-.54-.08-.77-1.92-1.61-4.76-1.61l-.01.01ZM129.78 58.87l-3.99-3.33 2.09-5.4 9.97 2.44-8.07 6.29Zm-2.44-3.73 2.47 2.06 5.13-3.99-6.25-1.53-1.34 3.46h-.01ZM128.02 20.03l-1.24-.39c.48-1.53.22-3.52.04-4.5-1.43.36-3.92 1.23-4.71 2.62l-1.13-.65c1.42-2.48 6.03-3.36 6.22-3.39l.6-.11.15.59c.03.14.84 3.36.07 5.83Z"/><path d="M125.87 30.69c-2.19 0-3.85-.52-3.97-.56l.4-1.24s4.59 1.44 8.31-.64c2.09-1.16 3.56-3.22 4.37-6.11-1.84-.96-9.11-4.15-13.75 2.91l-1.16-.55c.02-.07 2.13-6.97-.6-10.98-1-1.47-2.57-2.39-4.66-2.74l4.32 11.87-1.22.45-5.03-13.8 1 .07c3.03.22 5.27 1.37 6.66 3.42 1.94 2.85 1.78 6.77 1.37 9.37 5.93-5.79 14.07-.96 14.16-.91l.41.25-.11.46c-.87 3.51-2.59 6.01-5.13 7.42-1.81 1-3.74 1.3-5.37 1.3v.01Z"/><path d="m126.99 48.07-6.11-16.5 1.22-.45 5.39 14.55 5.23-5.49c-6.99-2.44-10.84-10-10.84-10.72h.65l.64-.1c.17.64 4.11 8.09 10.91 9.88l1.06.28-8.15 8.55Z"/><path d="m122.24 31.86-1.27-.3s.59-2.59-.17-4.87c-.81-2.21-2.65-3.4-2.67-3.42l.7-1.09c.09.06 2.23 1.45 3.2 4.08.89 2.65.24 5.48.21 5.59v.01ZM243.32 20.38c-.81-2.47-.17-5.99-.14-6.14l.13-.68.67.17c.2.05 4.82 1.23 6.25 3.74l-1.13.64c-.81-1.42-3.28-2.45-4.74-2.92-.14 1.1-.3 3.25.2 4.79l-1.23.41-.01-.01Z"/><path d="M245.01 30.54c-1.58 0-3.4-.28-5.11-1.21-2.53-1.37-4.25-3.84-5.13-7.36l-.12-.47.41-.25c.09-.05 8.2-4.75 14.12 1.06-.41-2.64-.58-6.65 1.4-9.54 1.4-2.05 3.63-3.19 6.63-3.41l1-.07-4.95 13.8-1.22-.44 4.25-11.87c-2.08.34-3.63 1.26-4.64 2.73-2.77 4.06-.65 11.07-.63 11.14l-1.17.55c-4.62-7.06-11.86-4-13.71-3.06.81 2.88 2.27 4.91 4.35 6.04 3.71 2.02 8.24.5 8.29.48l.43 1.23c-.12.04-1.9.65-4.21.65h.01Z"/><path d="m244.12 48.21-8.09-8.7 1.05-.28c6.84-1.8 10.96-9.45 11.14-10.1l.39.11h.89c0 .7-4.08 8.48-11.08 10.94l5.21 5.59 5.38-14.66 1.22.45-6.11 16.65Z"/><path d="M248.93 31.95c-.04-.1-.96-2.46 0-5.13.93-2.63 3.23-4.51 3.33-4.59l.18-.14h.23c.22 0 .39.11.53.22l-.44.54.32.39s-2.12 1.74-2.92 4.02c-.79 2.22-.02 4.19 0 4.21l-1.21.48h-.02ZM129 125.52h-1.3v2.02h1.3v-2.02ZM151.78 134.51H127.7v-3.2h1.3v1.9h22.78v1.3ZM139.89 131.61c-1.79 0-3.24-1.03-3.24-2.29s1.45-2.27 3.24-2.27c1.79 0 3.24 1.02 3.24 2.27s-1.43 2.29-3.24 2.29Zm0-3.26c-1.13 0-1.94.58-1.94.97s.78.99 1.94.99 1.94-.58 1.94-.99c0-.41-.78-.97-1.94-.97ZM138.37 113.03c-.79 0-1.44-.29-1.89-.83-1.03-1.24-.67-3.37-.62-3.61.95-12.88 12.99-21.24 13.5-21.59l.15.21.97.84c-.1.11-9.62 11.28-9.48 21.16.02.15.16 1.97-.82 3.05-.45.5-1.07.76-1.8.76l-.01.01Zm8.25-22.04c-3.63 3.45-8.88 9.76-9.48 17.78-.1.55-.21 1.96.34 2.61.13.15.36.36.89.36.36 0 .63-.1.84-.33.51-.56.52-1.71.49-2.11-.1-6.87 4-14.06 6.93-18.31h-.01ZM175.73 125.52h-1.3v2.09h1.3v-2.09Z"/><path d="M175.73 134.51h-24.04v-1.3h22.74v-1.72h1.3v3.02ZM175.31 126.1l-5.69-3.19 2.21-.13c1.73-.1 3.23-2.05 4.04-3.43-1.31-.05-2.86-.35-3.63-1.35-.32-.41-.63-1.12-.35-2.2.54-2.1 1.8-2.54 2.76-2.54.96 0 1.9.44 2.61.87.03-1.68.43-2.95 1.21-3.8.68-.74 1.64-1.14 2.78-1.14.77 0 1.35.18 1.42.2l.6.2-1.85 6.14c.43.32.76.77.94 1.28.23.67.19 1.36-.12 1.97-.47.88-1.33 1.4-2.29 1.4-.2 0-.4-.02-.6-.07l-4.05 5.78.01.01Zm-1.76-2.48 1.37.77 3.57-5.13.27-.57.58.26c.69.31 1.41.07 1.76-.57.14-.27.16-.61.04-.94-.13-.36-.39-.66-.73-.81l-.47-.21.13-.67 1.57-5.23c-.12-.01-.25-.02-.39-.02-.77 0-1.38.24-1.82.72-.7.77-.99 2.2-.82 4.15l.14 1.58-1.21-1.03c-.44-.37-1.81-1.35-2.89-1.35-.47 0-1.14.16-1.5 1.57-.12.46-.08.81.12 1.07.41.54 1.56.86 3.07.86.33 0 .54-.02.56-.02l1.09-.09-.45 1c-.07.17-1.56 3.43-4 4.66h.01ZM128.11 126.1l-4-5.79c-1.14.27-2.37-.27-2.93-1.31-.3-.61-.35-1.28-.13-1.92.18-.51.51-.97.96-1.3l-1.81-6.19.6-.2c.06-.02.65-.2 1.42-.2 1.13 0 2.09.39 2.78 1.14.77.84 1.17 2.12 1.2 3.79.71-.43 1.67-.86 2.6-.86.93 0 2.22.44 2.78 2.54.26 1.09-.07 1.8-.39 2.21-.79.99-2.31 1.29-3.61 1.35.82 1.38 2.32 3.33 3.99 3.43l2.19.13-5.65 3.19v-.01Zm-3.61-7.34.46.49 3.54 5.14 1.37-.77c-2.4-1.23-3.9-4.49-3.97-4.65l-.45-1 1.1.09s.23.02.55.02c1.5 0 2.64-.32 3.07-.86.21-.27.26-.62.15-1.08-.38-1.39-1.05-1.56-1.52-1.56-1.08 0-2.44.97-2.88 1.35l-1.21 1.05.14-1.6c.17-1.95-.11-3.38-.81-4.15-.44-.48-1.05-.72-1.82-.72-.14 0-.27 0-.39.02l1.68 5.93-.46.22c-.36.17-.64.48-.76.83-.07.21-.12.54.05.9.32.6 1.08.85 1.74.55l.42-.2Z"/><path d="M147.62 124.08h-6.05l-.13-.06c-2.46-1.11-2.65-4.09-2.65-4.21l-.06-1.04.96.4c.71.3 2.06.64 2.67.29.12-.07.29-.21.34-.61.07-.55 0-.92-.24-1.11-.55-.44-1.97-.14-2.58.07l-1.56.56.76-1.47c.71-1.37.89-2.4.53-2.99-.4-.66-1.43-.67-1.44-.67 0 0-1 0-1.36.62-.34.57-.1 1.65.66 3.03l.85 1.53-1.65-.61c-.61-.22-2.03-.55-2.57-.11-.23.19-.3.57-.21 1.13.08.4.27.55.42.63.73.39 2.21-.09 2.67-.29l.89-.38.02.97c0 .13.02 3.13-2.38 4.25l-.13.06h-3.85v-1.3h3.55c.86-.47 1.23-1.37 1.39-2.06-.8.21-1.92.35-2.77-.1-.58-.31-.96-.85-1.09-1.56-.21-1.33.25-2.01.67-2.36.67-.55 1.64-.57 2.44-.45-.48-1.26-.5-2.29-.03-3.06.75-1.26 2.41-1.25 2.48-1.24.04-.02 1.75 0 2.53 1.28.47.77.49 1.79.06 3.04.81-.11 1.81-.09 2.49.46.42.34.89 1.01.72 2.29-.12.9-.6 1.35-.99 1.57-.8.46-1.9.34-2.72.14.22.7.66 1.58 1.57 2.05h5.76v1.3l.03.01ZM171.8 124.08H168l-.13-.06c-2.39-1.12-2.42-4.12-2.42-4.24v-.99l.91.39c.46.2 1.93.67 2.66.29.14-.08.34-.23.42-.65.09-.54.02-.92-.2-1.1-.53-.44-1.97-.12-2.58.11l-1.64.6.02-.04-1.56-.56c-.6-.21-2.01-.52-2.56-.08-.23.19-.32.56-.25 1.11.05.4.2.54.33.61.62.37 2.06-.04 2.66-.29l.96-.4-.06 1.04c0 .13-.2 3.16-2.64 4.21l-.12.05h-6.08v-1.3h5.8c.9-.45 1.34-1.34 1.55-2.05-.82.2-1.92.32-2.72-.14-.38-.22-.86-.68-.96-1.58-.16-1.27.31-1.94.73-2.28.68-.55 1.66-.57 2.46-.46-.44-1.24-.43-2.26.04-3.03.79-1.29 2.51-1.29 2.58-1.29.05 0 1.7-.01 2.45 1.24.46.77.45 1.8-.04 3.07.81-.11 1.8-.1 2.46.46.42.34.87 1.03.65 2.33-.14.73-.52 1.27-1.1 1.57-.84.45-1.94.31-2.74.11.17.69.55 1.59 1.41 2.06h3.5v1.3l.01-.01Zm-6.61-10.83s-1.07.01-1.47.67c-.35.59-.16 1.62.56 2.98l.77 1.46.82-1.47c.77-1.38 1-2.46.66-3.04-.36-.6-1.32-.61-1.34-.61v.01Z"/><path d="m151.73 126.08-5.83-2.57 1.34-.6c1.51-.67 2.08-2.19 2.3-3.18-1.04.28-2.65.54-3.8-.11-.68-.38-1.11-1.03-1.25-1.88-.19-1.24.07-2.15.79-2.74.93-.76 2.38-.69 3.47-.48-.69-1.69-.74-3.06-.14-4.08.31-.52.75-.87 1.2-1.11-.35-.29-.65-.64-.91-1.07-3.15-5.2 1.67-19.75 1.87-20.37l.96.32.97-.32c.2.62 4.92 15.24 1.77 20.4a4.4 4.4 0 0 1-.86 1.03c.47.24.92.6 1.24 1.14.6 1.01.56 2.38-.13 4.06 1.07-.21 2.51-.28 3.43.48.71.58.97 1.51.77 2.74-.13.84-.55 1.49-1.22 1.88-1.13.64-2.72.4-3.76.12.23 1 .82 2.51 2.32 3.18l1.34.6-5.87 2.57v-.01Zm-2.84-2.68 2.85 1.26 2.87-1.26c-2-1.66-2.11-4.46-2.11-4.6l-.03-.99.92.37c.69.28 2.68.87 3.67.3.32-.19.51-.49.58-.95.12-.75.01-1.27-.31-1.54-.81-.67-2.91-.12-3.57.12l-1.62.59.82-1.51c1-1.84 1.27-3.25.78-4.08-.53-.88-1.84-.97-2.02-.97-.18 0-1.47.08-1.99.96-.49.83-.22 2.25.79 4.09l.82 1.51-1.62-.59c-.68-.25-2.79-.79-3.62-.12-.33.27-.44.79-.33 1.53.08.46.27.76.6.95 1.02.57 3.02-.02 3.7-.3l.92-.37-.02.99c0 .14-.09 2.95-2.09 4.6l.01.01Zm2.84-34.24c-.98 3.2-4.16 14.4-1.72 18.42.42.69.98 1.1 1.7 1.25.7-.15 1.24-.54 1.65-1.21 2.43-3.99-.67-15.24-1.63-18.45v-.01ZM163.65 131.61c-1.81 0-3.23-1-3.23-2.29s1.45-2.27 3.23-2.27 3.28 1.02 3.28 2.27-1.47 2.29-3.28 2.29Zm0-3.26c-1.16 0-1.94.58-1.94.97s.75.99 1.94.99 1.98-.59 1.98-.99-.79-.97-1.98-.97Z"/><path d="M151.74 88.85c-2.27 0-4.12-1.81-4.12-4.03 0-1.6.95-3.04 2.4-3.71v-1.73h-2.15v-3.36h2.15v-1.97h3.36v1.97h2.14v3.36h-2.14v1.73c1.45.67 2.4 2.11 2.4 3.71 0 2.22-1.81 4.03-4.03 4.03h-.01Zm-2.58-10.78h2.15v3.94l-.44.15c-1.17.39-1.95 1.46-1.95 2.65 0 1.53 1.24 2.73 2.82 2.73 1.58 0 2.73-1.2 2.73-2.73 0-1.2-.79-2.26-1.95-2.65l-.44-.15v-3.94h2.14v-.76h-2.14v-1.97h-.76v1.97h-2.15v.76h-.01ZM151.74 132.16l-5.76-2.89 5.76-2.84 5.77 2.84-5.77 2.89Zm-2.85-2.88 2.84 1.42 2.85-1.42-2.85-1.4-2.84 1.4ZM128.23 132.24l-2.78-2.84 2.57-3.01 6.04 2.67-5.82 3.17-.01.01Zm-1.02-2.9 1.26 1.29 2.64-1.44-2.74-1.21-1.16 1.37v-.01ZM175.12 132.24l-5.82-3.17 6.04-2.67 2.56 3.01-2.78 2.84v-.01Zm-2.88-3.05 2.64 1.44 1.26-1.29-1.16-1.37-2.74 1.21v.01Z"/><path d="M164.84 113.03c-.72 0-1.34-.26-1.78-.76-.97-1.09-.79-2.91-.77-3.12.14-9.82-9.31-21.23-9.41-21.35l1-.83s.02.03.04.05V87c.52.35 12.54 8.71 13.46 21.66.03.17.38 2.3-.66 3.54-.45.54-1.11.83-1.89.83h.01Zm-7.71-21.58c2.86 4.37 6.54 11.29 6.45 17.79-.05.46-.05 1.62.44 2.17.2.22.45.32.81.32.53 0 .76-.21.89-.36.55-.66.45-2.09.36-2.54-.55-7.72-5.38-13.85-8.96-17.38h.01ZM124.62 110.53c-.16 0-.32-.02-.49-.05-1.02-.3-1.66-.9-1.86-1.71-.33-.86-.18-1.96-.17-2.08 3.38-17.37 23.46-19.43 26.5-19.64.23-.07.38-.11.44-.12l.34 1.26-.35.1v.04h-.17c-3.02.93-18.1 6.14-20.68 17.72-.39 1.74-1.55 4.48-3.56 4.48Zm18.07-21.23c-6.84 1.65-17.05 6.04-19.3 17.6-.03.21-.07.96.12 1.48.13.51.58.73.94.83 1.31.27 2.24-2.47 2.46-3.45 1.91-8.58 9.93-13.76 15.78-16.46Z"/><path d="M178.66 110.52c-2.1 0-3.24-2.74-3.61-4.48-2.85-12.81-20.67-17.73-20.85-17.78l.34-1.26s.03 0 .06.02c1.28.06 22.99 1.42 26.47 19.63 0 .04.21 1.07-.19 2.12-.2.52-.79 1.46-1.7 1.7-.18.04-.35.05-.52.05Zm-18.15-21.28c5.76 2.64 13.87 7.81 15.8 16.53.21.99 1.11 3.72 2.56 3.43.27-.07.63-.53.78-.9.26-.68.13-1.39.13-1.4-2.24-11.71-12.52-16.05-19.27-17.66ZM103.58 102.59c-1.67 0-3.32-.91-3.43-.98-2.76-1.67-6-6.72-8.36-10.42l-.13-.2 1.1-.7.13.2c2.16 3.38 5.43 8.5 7.92 10 .02 0 3.24 1.78 4.42-.04.09-.12 5.7-7.52 8.87-18.72.04-.16 1.11-3.85 2.67-6.39l1.11.68c-1.47 2.4-2.52 6.04-2.53 6.07-3.24 11.45-9 19.04-9.06 19.11-.68 1.06-1.7 1.39-2.7 1.39h-.01ZM115.42 64.71c-.11-.44-.67-2.04-1.54-2-4.8.33-9.82-3.57-12.22-9.5-1.71-4.11-1.9-8.59-.5-11.96.9-2.17 2.38-3.73 4.28-4.51 1.88-.79 4.03-.73 6.19.16 3.38 1.39 6.42 4.68 8.14 8.81 2.5 6.03 2.05 11.96-1.15 15.1-.56.58.06 2.19.45 2.87l-1.13.64c-.17-.3-1.64-2.98-.25-4.43 2.78-2.74 3.13-8.24.87-13.69-1.59-3.81-4.37-6.84-7.44-8.1-1.84-.76-3.64-.81-5.2-.16-1.58.65-2.81 1.96-3.58 3.81-1.27 3.06-1.08 7.16.5 10.96 2.2 5.42 6.7 8.99 10.92 8.7 1.65-.12 2.6 1.81 2.89 2.98l-1.26.32h.03ZM73.97 61.58c-2.36 0-5.41-2.35-7.31-5.65-2.21-3.77-1.76-7.55-1.68-8.08 0-.81.3-8.55 9.04-9.94l.2 1.28c-8.03 1.27-7.95 8.38-7.95 8.68v.12c0 .04-.57 3.71 1.52 7.27 1.85 3.21 4.65 5.08 6.27 5l.05 1.3h-.13l-.01.02Z"/><path d="M74.15 61.58h-.13l.05-1.3c1.63.05 4.38-1.67 6.3-5 2.09-3.56 1.53-7.21 1.53-7.25-.01-.4-.2-7.49-8.1-8.84l.22-1.28c8.61 1.46 9.15 9.22 9.18 9.95.07.48.54 4.26-1.7 8.07-1.9 3.29-4.96 5.65-7.34 5.65h-.01Z"/><path d="M92.02 69.41c-.08-1.5-.49-2.21-.97-3.04-.64-1.12-1.37-2.4-1.28-5.57-.16-2.93-.63-4.06-1.18-5.37-.51-1.21-1.08-2.58-1.52-5.49-.6-5.92-2.75-9.68-2.78-9.72-2.58-5.74-7.96-6.18-9.75-6.21v4.4h-1.3V32.8l.59-.06c.08 0 8.19-.72 11.61 6.88.06.1 2.29 3.99 2.91 10.15.41 2.72.93 3.95 1.43 5.15.57 1.37 1.11 2.66 1.28 5.86-.08 2.86.5 3.87 1.11 4.94.51.89 1.04 1.81 1.14 3.62l-1.3.07h.01ZM76.09 56.67c-.22 0-.62-.03-1.08-.19-.19-.07-.41-.12-.55-.11-.23.14-.52.14-.69.14-.15 0-.43 0-.65-.14-.14 0-.36.04-.53.1l-.13.03c-.53.08-1.06.08-1.09.08-.36 0-.65-.29-.65-.65 0-.36.29-.65.65-.65 0 0 .42 0 .83-.06.26-.09.96-.28 1.52-.04l.05.02h.03l.04-.02c.62-.28 1.44 0 1.6.06.39.13.69.11.7.11.36-.03.67.23.71.58.03.35-.22.67-.57.71h-.19v.03Z"/><path d="M73.86 57.94c-.23 0-.5-.03-.8-.12a.654.654 0 0 1-.45-.8c.1-.35.46-.54.8-.45.51.14.8 0 .81 0 .31-.15.71-.03.87.28.16.31.06.69-.24.86-.05.03-.41.22-1 .22l.01.01ZM84.78 67.55c-1.54-.84-2.43-1.17-2.44-1.18-3.68-1.7-3.55-4.94-3.54-5.07v-3.8h1.3v3.83c0 .13-.07 2.54 2.74 3.84 0 0 .93.35 2.56 1.23l-.62 1.14v.01ZM55.17 69.8l-1.3-.06c.07-1.67 1.04-2.96 2.05-4.33 1.23-1.66 2.5-3.37 2.58-6.06-.23-4.97.09-6.13.57-7.89.29-1.07.66-2.4 1-5.12 1.89-11.96 9.97-14.12 13.98-13.59l-.17 1.29c-.42-.05-10.37-1.16-12.53 12.48-.35 2.79-.73 4.17-1.03 5.29-.47 1.7-.75 2.72-.53 7.53-.09 3.15-1.55 5.11-2.83 6.85-.93 1.26-1.74 2.35-1.8 3.61h.01ZM63.69 67.1l-.6-1.15c.99-.52 1.41-.71 1.63-.79 2.8-1.31 2.87-3.49 2.87-3.59v-4.6h1.3v4.61c0 .13-.04 3.11-3.66 4.78l-.16.06c-.13.06-.49.22-1.37.68h-.01ZM49.87 161.04c-.58 0-.95-.02-1.02-.02l-1.22-.06.73-.98c1.18-1.59 1.76-7.93 1.89-10.23.65-28.55 4.51-35.05 7.33-39.79.66-1.11 1.22-2.06 1.67-3.18.32-.83.6-1.86.41-3.73-.56-4.51-1.1-16-1.1-16.11l1.3-.06c0 .12.54 11.56 1.1 16.03.22 2.16-.13 3.41-.49 4.35-.48 1.22-1.1 2.26-1.76 3.36-2.75 4.62-6.5 10.95-7.15 39.18-.04.8-.41 6.97-1.6 9.94 2.88-.02 11.03-.44 15-4.46l.48-.49.46.5s3.71 3.98 8.2 3.98v1.3c-4.12 0-7.49-2.79-8.69-3.93-4.52 4.03-12.65 4.4-15.52 4.4h-.02Z"/><path d="M64.94 89.91c-1.46 0-2.74-.28-3.83-.85-1.75-.91-3-2.56-3.61-4.77-.55-2.03-.45-3.79-.45-3.87l1.3.08s-.09 1.64.4 3.44c.52 1.88 1.52 3.21 2.96 3.96 2.05 1.06 4.97.93 8.7-.4l.44 1.22c-2.21.79-4.18 1.18-5.9 1.18l-.01.01ZM82.55 89.9c-1.72 0-3.69-.39-5.9-1.17l.43-1.23c4.25 1.5 7.44 1.46 9.49-.1 2.88-2.21 2.56-6.84 2.56-6.89l1.3-.1c.02.22.38 5.37-3.06 8.01-1.28.98-2.89 1.47-4.81 1.47l-.01.01ZM98.79 236.91c-1.6 0-3.22-.38-3.83-.98-.41-.37-3.74-.7-9.85.23-1.38.22-2.45-.09-3.18-.92-1.83-2.09-.52-6.67-.37-7.19l1.25.37c-.36 1.21-1.05 4.64.1 5.96.42.48 1.07.64 2 .49 4.3-.65 9.75-1.01 10.95.13.54.54 3.97.95 5.26.16.92-.53 3.1-.16 3.91 0 .52-.07 1.15-.28 1.28-.49.25-.35.36-.62.31-.75-.14-.41-1.39-.73-2.21-.94l-.22-.06c-1.26-.3-4.13-1.22-5.93-2.56-1.98-1.43-5.11-2.39-5.14-2.4l.38-1.24c.14.04 3.37 1.04 5.53 2.6 1.7 1.27 4.53 2.13 5.48 2.35l.24.06c1.34.35 2.73.71 3.11 1.77.21.58.05 1.22-.46 1.92-.53.84-2.02 1.04-2.31 1.07h-.1l-.1-.01c-1.33-.28-2.77-.36-3.09-.18-.72.44-1.85.64-3 .64l-.01-.03ZM53.26 241.63c-1 0-1.83-.17-2.22-.45-1.37-1.04-2.05-2.01-2.09-2.99-.05-1.26.96-2.16 1.77-2.89.44-.39.9-.8 1-1.11.84-2.55 3.39-4.53 3.87-4.88.35-.44.77-1.22.64-1.63l1.23-.42c.44 1.29-.78 2.78-.92 2.95l-.12.11s-2.69 1.93-3.46 4.28c-.21.64-.77 1.14-1.37 1.67-.67.6-1.36 1.22-1.33 1.87.02.55.56 1.24 1.56 2 .27.16 2.15.44 4.15-.25 1.69-.58 2.84-1.64 3.41-3.14.74-1.75 2.48-1.71 3.64-1.68.34 0 .67.02.93-.01.7-.11 1.41-.61 1.74-1.24.23-.43.24-.86.04-1.26-.58-1.35-.71-3.97-.71-4.08l1.3-.06c.03.69.2 2.68.59 3.59.37.75.34 1.61-.07 2.41-.52.99-1.59 1.75-2.72 1.92-.37.04-.75.03-1.14.03-1.25-.04-2.04 0-2.4.86-.93 2.45-2.98 3.52-4.53 3.99-.95.29-1.94.41-2.8.41h.01ZM31.75 134.26l-1.03-.79s.81-1.09 1.06-2.85c.37-2.76 1.31-3.93 1.55-4.18 8.89-12.04 10.53-15.81 11.61-18.3.24-.56.46-1.05.72-1.56.25-.47.39-.72.47-.88.09-.17.11-.19.14-.28l1.21.46c-.05.14-.07.18-.22.44-.09.16-.22.41-.46.86-.24.48-.45.95-.68 1.49-1.11 2.55-2.79 6.39-11.78 18.58l-.07.08s-.87.94-1.22 3.48c-.3 2.12-1.27 3.41-1.32 3.46l.02-.01ZM50.35 101.37l-.99-.84c.62-.73 2.44-4.07 3.77-6.51.81-1.49 1.51-2.77 1.89-3.38l1.11.68c-.36.59-1.05 1.86-1.85 3.33-1.51 2.77-3.21 5.9-3.92 6.73l-.01-.01Z"/><path d="m56.21 92.48-.6-.9c-1.35-2.04-7.6-6.05-9.9-7.43l-.54-.32.73-1.36c.41-.76.79-1.49 1.24-2.16l1.08.72c-.41.63-.78 1.32-1.18 2.06l-.15.27c1.7 1.04 6.92 4.34 9.13 6.7l2.32-4.3 1.14.62-3.29 6.11.02-.01ZM101.59 89.99c-.57-2.4-2.12-4.56-2.14-4.58l1.05-.76c.07.1 1.72 2.38 2.35 5.04l-1.26.3ZM73.9 51.83c-.36 0-.65-.29-.65-.65v-3.05c0-.36.29-.65.65-.65.36 0 .65.29.65.65v3.05c0 .36-.29.65-.65.65ZM73.9 54.15c-.37 0-.83-.16-.92-.19l-.22-.13c-.17-.16-.47-.13-.47-.13a.664.664 0 0 1-.72-.57c-.04-.35.2-.67.55-.72.08 0 .79-.09 1.39.36.14.04.31.08.38.08.03 0 .15-.04.27-.08.57-.46 1.29-.38 1.38-.37a.65.65 0 0 1-.17 1.29c-.06 0-.3 0-.42.12l-.1.1-.13.05c-.2.07-.57.19-.82.19Z"/><path d="m91.3 92.3-3.02-6.21 1.17-.57 2.3 4.73c1.72-1.39 6.49-5.13 9.46-6.58-.27-.59-.7-1.53-1.09-2.35l1.17-.56c.64 1.34 1.37 2.97 1.37 2.97l.28.62-.62.25c-3.27 1.33-10.31 7.12-10.38 7.18l-.64.53v-.01ZM81.01 47.22a.64.64 0 0 1-.49-.22l-.08-.09c-.64-.73-1.6-1.84-3.93-.64a.66.66 0 0 1-.88-.28.66.66 0 0 1 .28-.88c3.23-1.66 4.88.23 5.5.94l.08.09a.65.65 0 0 1-.49 1.08h.01ZM67.12 47.22a.65.65 0 0 1-.51-1.05c.55-.7 2.23-2.83 5.61-1.01.32.17.43.56.26.88-.17.32-.56.43-.88.26-2.42-1.3-3.43-.02-3.97.67-.13.16-.32.25-.51.25ZM71.65 49.36c-.19 0-.38-.08-.51-.24-1-1.23-2.52-.3-2.69-.19-.3.19-.7.11-.9-.19-.2-.3-.12-.7.18-.9.91-.61 3.01-1.29 4.42.45.23.28.18.69-.1.91a.62.62 0 0 1-.41.14l.01.02Z"/><path d="M69.97 49.66c-.09 0-.19-.02-.28-.06-.52-.24-.72-.61-.8-.87-.18-.57.09-1.06.14-1.15.18-.31.58-.42.89-.24.31.18.41.57.24.88-.02.04-.03.11-.03.13 0 0 .04.04.12.08.32.15.46.54.31.87a.65.65 0 0 1-.59.37v-.01ZM76.37 49.43c-.13 0-.26-.04-.37-.12a.644.644 0 0 1-.16-.9c1.27-1.84 3.32-1.28 4.23-.73.31.19.4.59.22.89-.19.31-.59.4-.89.22-.16-.1-1.61-.9-2.48.36-.13.18-.33.28-.54.28h-.01Z"/><path d="M78.36 49.77c-.08 0-.16-.01-.24-.05-.55-.22-.79-.57-.88-.84-.2-.55.04-1.04.09-1.14.17-.32.56-.43.88-.27.31.17.43.55.27.87-.02.08 0 .12.12.16.33.13.5.51.37.84-.1.26-.35.41-.6.41l-.01.02ZM50.85 160.408l-1.373 23.39 1.298.076 1.373-23.389-1.298-.077ZM74.88 229.11h-1.59c-14.53 0-25.69-2.26-25.8-2.29l-.55-.11 1.82-30.65 1.3.08-1.75 29.52c2.41.45 12.42 2.15 24.99 2.15h1.59c12.58 0 22.52-1.7 24.91-2.15l-1.77-29.64 1.3-.08 1.84 30.77-.55.11c-.11.02-11.19 2.29-25.73 2.29h-.01ZM97.313 160.558l-1.298.074 1.332 23.392 1.298-.074-1.332-23.392ZM112.99 59.75c-3.35 0-7-3.1-8.88-7.53-2.39-5.58-1.38-11.2 2.31-12.8.62-.26 1.28-.39 1.97-.39 3.36 0 6.93 3.02 8.89 7.51 2.38 5.57 1.37 11.2-2.31 12.82-.63.27-1.29.4-1.99.4l.01-.01Zm-4.6-19.42c-.51 0-1 .1-1.46.29-2.97 1.29-3.7 6.26-1.63 11.1 1.68 3.97 4.84 6.74 7.68 6.74.52 0 1.02-.1 1.47-.29 2.96-1.3 3.69-6.29 1.63-11.11-1.73-3.96-4.9-6.72-7.7-6.72l.01-.01ZM8.73 134.28c-.06 0-.12 0-.18-.03-3.17-.92-5.42-1.68-5.55-3.13-.1-1.09 1.1-1.82 2.01-2.28 4.33-2.2 10.04-.22 12.5 2.06 1.52 1.43 3.5 1.93 3.52 1.94.35.09.56.44.47.79-.09.35-.44.56-.79.48-.09-.02-2.33-.59-4.1-2.25-2.12-1.96-7.27-3.76-11.03-1.85-1.28.64-1.3 1-1.3 1 .06.67 3.49 1.67 4.62 2a.655.655 0 0 1-.18 1.28l.01-.01Z"/><path d="M20.97 138.02c-.98-.35-2.5-.85-3.54-1.2l-.99-.33c-1.55-.54-2.8-.47-4.25-.39-1.35.08-2.87.16-4.87-.24-2.8-.56-3.71-2.64-3.8-3.66l1.29-.11c0 .08.24 2 2.76 2.5 1.84.36 3.22.29 4.55.21 1.52-.08 2.96-.16 4.75.46l.98.33c1.04.35 2.57.86 3.56 1.2l-.43 1.23h-.01ZM27.2 134.96l-.08-1.3c4.24-.28 11.1-2.09 12.42-4.64 2.35-4.36-1.75-7.46-1.93-7.59l.77-1.05c.05.04 5.18 3.91 2.31 9.25-1.78 3.44-10 5.1-13.48 5.33h-.01Z"/><path d="M26.37 133.87c-.26 0-.5-.15-.6-.41-.13-.33.03-.71.36-.85 1.13-.45 1.49-1.29 1.5-1.32.14-.33.51-.49.84-.36.33.13.5.5.37.83-.02.06-.55 1.38-2.23 2.05-.08.03-.16.05-.24.05v.01ZM30.94 138.73c-.36 0-.67-.01-.94-.04l.12-1.29c2.26.2 8.49-.49 12.27-3.87 1.89-1.69 2.88-3.82 2.94-6.32.19-5.59-3.07-8.82-4.15-9.88-.23-.22-.34-.33-.41-.46l1.09-.71c.04.05.13.13.24.24 1.17 1.16 4.74 4.69 4.53 10.84-.07 2.87-1.2 5.31-3.38 7.25-3.69 3.3-9.34 4.23-12.31 4.23v.01ZM35.11 111.88c-3.57-3.12-4.98-5.3-4.45-6.86.38-1.11 1.64-1.72 3.85-1.86 5.97-.37 17.44 2.91 17.92 3.05 0 0 2.01.31 2.52-1.22.35-1.17-1.04-2.32-1.05-2.34l-3.48-2.94.84-.99 3.47 2.93c.07.06 2.06 1.7 1.46 3.73-.7 2.1-2.96 2.28-4.05 2.09-.19-.05-11.81-3.36-17.55-3.01-1.56.1-2.52.45-2.7.98-.15.44-.05 1.85 4.08 5.46l-.86.98Z"/><path d="M32.5 116.52c-7.21-6.69-7.8-11-7.02-13.44.78-2.45 3.26-4.13 6.8-4.59 8.42-1.07 21.37 2.57 23.16 3.98l-.81 1.02c-1.59-1.26-14.42-4.7-22.19-3.71-3.02.39-5.11 1.74-5.73 3.69-.94 2.94 1.43 7.24 6.67 12.1l-.88.95ZM41.32 97.65c-.25-.46-6.04-11.29-4.28-20.73 1.03-5.61 3.23-8.62 5.18-11.27.4-.55.79-1.08 1.15-1.61 4.41-6.59 1.46-12.65 1.33-12.9a.653.653 0 0 1 .2-.82.64.64 0 0 1 .84.07c.08.08 7.88 8.14 2.61 16.81-.35.59-.73 1.19-1.11 1.81-1.92 3.1-4.1 6.61-4.44 9.84-.58 5.14 2.58 12.13 2.61 12.2l-1.18.54c-.14-.3-3.34-7.39-2.72-12.88.37-3.53 2.63-7.17 4.63-10.39.38-.61.75-1.21 1.1-1.8 3-4.94 1.35-9.6-.34-12.44.42 2.68.27 6.59-2.46 10.68-.37.55-.77 1.09-1.18 1.65-1.86 2.54-3.98 5.42-4.95 10.74-1.67 8.99 4.09 19.77 4.14 19.88l-1.14.62h.01ZM60.744 188.666l-2.3 39.152 1.299.077 2.298-39.153-1.297-.076ZM86.782 188.208l-1.298.081 2.485 39.612 1.298-.081-2.485-39.612ZM74.62 172.26h-1.3v56.2h1.3v-56.2ZM104.71 38.15c-1.2 0-2.14-.94-2.14-2.13s.96-2.13 2.14-2.13c1.18 0 2.19.96 2.19 2.13s-.96 2.13-2.19 2.13Zm0-2.97a.85.85 0 0 0-.84.83c0 .45.37.83.84.83.51 0 .9-.36.9-.83s-.4-.83-.9-.83ZM102.84 89.96l-1.13-.64.17-.3c1.29-2.29 3.68-6.54 7.97-12.07.69-1.31 1.7-3.73 1.54-4.82-.28-1.72.26-5.32 1.47-6.5.43-.43 3.21-1.88 4.39-2.48l.26-.14.28.11c.07.03 1.7.69 2.51 1.17l-.66 1.12c-.54-.32-1.57-.76-2.06-.97-1.71.88-3.54 1.88-3.81 2.12-.73.72-1.36 3.78-1.1 5.37.28 1.88-1.5 5.29-1.7 5.68l-.06.09c-4.25 5.47-6.62 9.69-7.89 11.95l-.17.3-.01.01Z"/><path d="M116.93 71.49c-1.03 0-1.28-.7-1.33-.92-.1-.43.03-.9.25-1.28-.09-.07-.17-.14-.23-.23-.54-.68-.12-1.64-.07-1.74l.07-.12c1.22-1.59 3.93-2.87 4.05-2.92l.15-.07h.16c.28.03 1.7.16 2.14 1.11.12.26.19.64.02 1.12.61.32 1.27.83 1.19 1.57a5.42 5.42 0 0 1-.27 1.23l-.1.27-.27.11c-.78.31-4.73 1.83-5.7 1.87h-.06Zm-.06-1.31h.08c.47-.02 2.84-.84 4.97-1.66.04-.15.08-.35.11-.58-.1-.12-.4-.31-.73-.45-.27.15-.57.33-.89.52-1.28.74-2.72 1.58-3.43 1.87-.02.03-.09.19-.11.31v-.01Zm-.22-1.92s.22.05.69-.04v.02c.72-.38 1.63-.91 2.42-1.37.36-.21.7-.41.99-.57.19-.27.2-.42.19-.44-.06-.13-.48-.28-.88-.34-.56.28-2.46 1.27-3.36 2.39-.04.13-.07.29-.05.35Z"/><path d="M117.24 73.12c-.72-.09-.99-.49-1.09-.73-.31-.75.29-1.63.49-1.88l1.03.8c-.12.16-.24.38-.28.52h.02l-.16 1.29h-.01ZM22.39 139.11c-1.11 0-1.7-1.21-1.87-1.98l-.02-.13c0-.5-.04-3.01.12-3.67.39-1.46 2.6-4.35 4.48-5.06 1.56-.6 2.31-1.95 2.91-3.04.14-.26.28-.51.42-.73.18-.32 1.21-2.45 2.51-5.13 4.94-10.19 7.55-15.45 8.06-15.97l.92.92-.46-.46.47.44c-.59.72-5.3 10.42-7.83 15.63-1.36 2.81-2.35 4.84-2.56 5.22-.14.23-.27.46-.4.7-.67 1.21-1.58 2.86-3.58 3.63-1.41.54-3.39 3.07-3.69 4.17-.08.31-.1 1.89-.08 3.25.09.3.37.96.66.9l.25 1.28c-.11.02-.22.03-.32.03h.01ZM41.75 99.48l-1.18-.55c2.01-4.31 6.93-14.3 6.98-14.41l1.17.57c-.05.1-4.96 10.09-6.97 14.38v.01Z"/><path d="M26.01 140.53c-.06 0-.13 0-.19-.01-.48-.02-.87-.23-1.16-.5-.35.28-.69.33-.95.31-1-.08-1.56-1.34-1.67-1.59l-.06-.15v-.16c.02-.1.24-2.57 1.21-4.63l.1-.15c.32-.36 1.14-1.17 1.94-.88.07.03.14.06.21.1.48-.31.9-.26 1.12-.19.55.17.92.68 1 .98.25 1.88-.12 5.6-.13 5.75l-.07.23c-.18.35-.64.89-1.34.89h-.01Zm-.64-1.65c.1.14.3.33.57.35.09.02.16-.05.21-.1.07-.71.31-3.6.15-5.1a.44.44 0 0 0-.11-.1s-.01.01-.04.03c-.2.48-.45 2.48-.59 3.58-.06.5-.12.97-.18 1.34h-.01Zm-2.07-.49c.16.33.4.62.51.64 0 0 .1-.05.26-.28.06-.37.12-.85.18-1.38.19-1.48.33-2.46.46-3.12 0-.05 0-.1-.01-.14-.12.08-.26.21-.39.33-.7 1.55-.96 3.39-1.02 3.94l.01.01Z"/><path d="M28.05 140.3c-.11 0-.22-.01-.33-.04-.53-.14-1.02-.35-1.04-.36l-.4-.17v-.44c.05-3.38.08-3.53.09-3.6.18-1.15.96-1.31 1.2-1.33.38-.04.77.12 1.07.39.56-.21 1.12.16 1.23.24l.14.13c1.23 1.6.99 3.02.91 3.34-.05.34-.25 1.26-.97 1.5-.21.07-.5.09-.83-.07-.28.22-.64.39-1.07.39v.02Zm-.47-1.44c.13.05.28.1.44.14.07.02.15-.01.21-.05.14-1.14-.26-2.74-.39-3.1a.28.28 0 0 0-.16-.16c.01.02-.02.11-.04.25-.01.16-.04 1.56-.06 2.93v-.01Zm1.78-2.35c.12.59.22 1.34.21 2.05.03-.1.06-.21.07-.3l.02-.11s.18-.71-.3-1.64ZM72.03 78.19c-4.73-6.58-8.22-10.83-9.35-11.38-1.86-.94-5.14 1.53-5.42 2.1 0 0 .03-.06.03-.16h-1.3c0-.88 1.8-2.03 2.17-2.26.92-.56 3.25-1.78 5.1-.84 1.38.67 4.69 4.64 9.83 11.79l-1.06.76v-.01Z"/><path d="M71.44 78.54c-7.22-5.46-12.5-8.6-14.87-8.85-.8-.11-2.37.72-3.56 1.89-.94.92-1.49 1.89-1.42 2.48l-1.29.15c-.17-1.4 1.06-2.83 1.8-3.56 1.29-1.27 3.22-2.46 4.63-2.26 3.31.34 10.26 5.14 15.5 9.1l-.78 1.04-.01.01Z"/><path d="M71.6 82.36c-12.48-2.02-24.11-.99-24.23-.98l-.56.05-.14-.54c-.47-1.88.28-3.93 1.14-5.22.76-1.15 1.72-1.89 2.62-2.03 3.84-.61 15.95 3.66 20.98 5.52l-.45 1.22c-7.93-2.94-17.44-5.92-20.33-5.46-.53.08-1.19.64-1.73 1.46-.76 1.15-1.15 2.52-1.05 3.65 2.57-.18 12.94-.75 23.95 1.04l-.21 1.28.01.01ZM76.47 78.6l-1.05-.76c5.35-7.4 8.76-11.5 10.13-12.2 1.76-.9 3.94.14 5.08.83.37.22 2.19 1.38 2.19 2.27h-1.3c0 .1.03.16.03.16-.1-.2-.92-1-2.18-1.65-.77-.39-2.2-.98-3.22-.45-.54.27-2.56 1.97-9.67 11.8h-.01Z"/><path d="m76.32 79.38-.81-1.02c.48-.39 11.93-9.5 16.65-9.97 1.39-.19 3.23 1.02 4.39 2.12.64.61 2.1 2.18 1.95 3.68l-1.29-.12c.06-.63-.55-1.66-1.56-2.62-1.17-1.11-2.59-1.88-3.33-1.77-4.36.44-15.88 9.6-15.99 9.69l-.01.01Z"/><path d="m76.06 82.54-.22-1.28c11.44-2 22.06-1.27 24.67-1.04.14-1.34-.27-2.98-1.07-4.19-.43-.64-.91-1.05-1.31-1.11-3.54-.57-16.73 4.07-21.52 5.91l-.47-1.21c.72-.27 17.59-6.72 22.19-5.98.78.12 1.54.7 2.19 1.67.93 1.4 1.65 3.73 1.16 5.77l-.14.56-.57-.06c-.12-.01-11.98-1.3-24.91.96Z"/><path d="M73.97 83.48c-1.83 0-3.32-1.49-3.32-3.32 0-1.83 1.49-3.31 3.32-3.31 1.83 0 3.27 1.48 3.27 3.31s-1.44 3.32-3.27 3.32Zm0-5.32a2.014 2.014 0 1 0 0 4.03c1.13 0 1.97-.89 1.97-2.02s-.88-2.01-1.97-2.01ZM295.34 78.7c-2.71-2.46-9.4-8.43-12.91-10.67-.88-.56-1.72-.68-2.49-.33-1.24.56-2.03 2.13-2.23 3.36l-1.28-.21c.26-1.62 1.29-3.58 2.98-4.34.82-.36 2.12-.59 3.71.43 3.59 2.29 10.34 8.32 13.08 10.8l-.87.96h.01Z"/><path d="m295 79.62-.46-.19c-3.51-1.48-12.77-5.36-17.22-8.01-.68.09-1.63.75-2.18 1.79-.42.79-.91 2.42.47 4.44l-1.07.74c-1.77-2.58-1.11-4.73-.55-5.78.77-1.47 2.21-2.5 3.49-2.5h.18l.15.09c4.29 2.6 13.69 6.54 17.22 8.03l.46.19-.5 1.2h.01Z"/><path d="M294.68 80.71c-10-2.68-16.98-3.63-19.16-2.62l-.55-1.18c2.56-1.19 9.31-.34 20.05 2.54l-.34 1.26ZM300.02 78.74l-.88-.95c3.22-2.98 9.6-8.63 13.12-10.86 1.55-.99 2.83-.8 3.62-.48 1.7.7 2.68 2.55 3.03 4.05l-1.27.29c-.35-1.49-1.23-2.72-2.26-3.14-.75-.31-1.57-.18-2.44.37-3.44 2.18-9.75 7.76-12.93 10.71l.01.01Z"/><path d="m300.22 79.7-.52-1.19c.44-.19 1.05-.45 1.8-.77 3.95-1.68 12.16-5.18 15.99-7.49l.16-.09h.18c1.3 0 2.81 1.1 3.61 2.6.56 1.06 1.23 3.23-.53 5.78l-1.07-.74c1.37-1.99.87-3.64.45-4.44-.58-1.11-1.58-1.8-2.29-1.9-3.96 2.35-11.76 5.67-15.98 7.47-.74.32-1.36.58-1.79.77h-.01Z"/><path d="m300.49 80.84-.29-1.27c4.96-1.15 16.9-3.71 20.62-2.63l-.36 1.25c-2.8-.81-12.15.84-19.96 2.65h-.01Z"/><path d="M297.59 83.48c-1.82 0-3.3-1.49-3.3-3.32 0-1.83 1.51-3.31 3.3-3.31 1.79 0 3.27 1.48 3.27 3.31s-1.47 3.32-3.27 3.32Zm0-5.32c-1.09 0-2 .92-2 2.01 0 1.09.9 2.02 2 2.02s1.97-.89 1.97-2.02-.88-2.01-1.97-2.01ZM74.08 172.79c-1.42 0-2.62-1.19-2.62-2.59s1.2-2.59 2.62-2.59c1.42 0 2.59 1.16 2.59 2.59a2.59 2.59 0 0 1-2.59 2.59Zm0-3.89c-.72 0-1.32.59-1.32 1.29 0 .7.61 1.29 1.32 1.29.71 0 1.29-.58 1.29-1.29 0-.71-.58-1.29-1.29-1.29Z"/><path d="M47.4 191.24c-.85-1.43-1.08-2.99-.66-4.4.41-1.37 1.41-2.5 2.83-3.19 1.23-.84 2.63-1.25 4.41-1.77 1.94-.57 4.36-1.28 7.74-2.9 5.46-2.58 10.11-7.71 10.16-7.76l.97.87c-.2.22-4.87 5.38-10.57 8.07-3.47 1.67-5.95 2.39-7.94 2.98-1.73.51-2.98.88-4.13 1.65-1.16.57-1.93 1.42-2.23 2.44-.32 1.06-.13 2.25.53 3.36l-1.12.66.01-.01Z"/><path d="M49.52 196.64c-.77 0-1.45-.39-1.92-1.15-1.01-1.59-.84-4.61.87-5.97 1.89-1.39 4.04-2.11 5.93-2.75 1.56-.52 3.03-1.02 4.16-1.8l.74 1.07c-1.28.88-2.84 1.41-4.48 1.96-1.89.63-3.85 1.29-5.56 2.55-1.13.9-1.27 3.13-.56 4.24.36.57.83.68 1.49.36 17.17-8.21 22.62-23.1 22.67-23.25l1.23.44c-.06.15-5.69 15.54-23.33 23.98-.42.21-.84.31-1.23.31l-.01.01ZM100.6 191.33l-1.1-.69c.65-1.04.85-2.18.55-3.22-.3-1.05-1.07-1.93-2.19-2.49-1.24-.84-2.54-1.23-4.33-1.76-1.95-.58-4.38-1.3-7.77-2.87-5.73-2.72-10.38-7.86-10.57-8.07l.97-.87c.05.05 4.68 5.16 10.16 7.76 3.3 1.53 5.68 2.23 7.59 2.8 1.83.54 3.28.97 4.61 1.89 1.37.68 2.38 1.85 2.78 3.25.39 1.39.14 2.9-.7 4.26v.01Z"/><path d="M98.5 196.76c-.4 0-.82-.1-1.25-.31-17.62-8.39-23.28-23.81-23.33-23.96l1.22-.44c.05.15 5.55 15.08 22.67 23.23.68.33 1.17.22 1.54-.37.7-1.11.59-3.33-.55-4.24-1.67-1.22-3.59-1.86-5.44-2.49-1.7-.58-3.31-1.12-4.63-2.07l.76-1.05c1.15.84 2.67 1.35 4.28 1.89 1.86.63 3.96 1.34 5.82 2.69 1.72 1.38 1.86 4.39.85 5.97-.48.76-1.17 1.15-1.95 1.15h.01ZM298.7 229.11h-1.61c-14.47 0-25.68-2.26-25.79-2.29l-.55-.11 1.85-30.77 1.3.08-1.78 29.64c2.41.45 12.45 2.15 24.97 2.15h1.61c12.56 0 22.54-1.71 24.94-2.15l-1.76-29.37 1.3-.08 1.83 30.5-.55.11c-.11.02-11.24 2.29-25.76 2.29Z"/><path d="m284.522 188.709-2.234 39.106 1.297.074 2.235-39.106-1.298-.074ZM310.641 188.542l-1.298.083 2.505 39.26 1.297-.083-2.504-39.26ZM298.44 172.02h-1.3v55.99h1.3v-55.99Z"/><path d="M297.94 172.79c-1.46 0-2.64-1.16-2.64-2.59s1.18-2.59 2.64-2.59c1.46 0 2.56 1.19 2.56 2.59s-1.17 2.59-2.56 2.59Zm0-3.89c-.74 0-1.34.58-1.34 1.29 0 .71.6 1.29 1.34 1.29.68 0 1.26-.59 1.26-1.29 0-.7-.58-1.29-1.26-1.29Z"/><path d="M271.2 191.24c-.83-1.42-1.05-2.98-.63-4.38.41-1.37 1.42-2.51 2.82-3.2 1.23-.84 2.63-1.25 4.41-1.77 1.94-.57 4.36-1.28 7.74-2.9 5.51-2.58 10.11-7.71 10.16-7.76l.97.87c-.19.22-4.83 5.38-10.57 8.07-3.47 1.67-5.94 2.39-7.93 2.98-1.73.51-2.98.88-4.12 1.65-1.16.57-1.92 1.43-2.23 2.45-.32 1.06-.14 2.25.5 3.35l-1.12.66v-.02Z"/><path d="M273.37 196.64c-.78 0-1.47-.4-1.96-1.16-1-1.58-.86-4.59.82-5.96 1.88-1.36 3.89-2.2 5.84-3.01 1.61-.67 3.14-1.3 4.33-2.15l.75 1.06c-1.31.93-2.9 1.59-4.58 2.29-1.88.78-3.82 1.59-5.55 2.84-1.1.9-1.22 3.12-.52 4.23.37.59.86.71 1.53.38 17.13-8.2 22.58-23.09 22.63-23.24l1.23.43c-.05.15-5.66 15.54-23.29 23.98-.43.21-.84.31-1.24.31h.01ZM324.5 191.64l-1.1-.69c.66-1.06.86-2.21.56-3.25-.29-1.04-1.06-1.91-2.17-2.45-1.25-.84-2.53-1.22-4.31-1.75-1.97-.58-4.41-1.31-7.82-2.92-5.78-2.7-10.58-8.24-10.78-8.47l.99-.85c.05.06 4.82 5.56 10.34 8.14 3.32 1.56 5.71 2.28 7.64 2.85 1.82.54 3.26.97 4.6 1.88 1.36.67 2.37 1.83 2.76 3.22.4 1.4.15 2.92-.71 4.29Z"/><path d="M322.41 197.06c-.4 0-.83-.1-1.26-.31-17.63-8.38-23.23-23.93-23.29-24.09l1.23-.43c.05.15 5.5 15.2 22.62 23.34.7.34 1.21.21 1.58-.39.69-1.11.56-3.32-.58-4.21-1.69-1.25-3.64-2.07-5.52-2.86-1.68-.71-3.27-1.38-4.56-2.31l.76-1.05c1.17.85 2.69 1.49 4.31 2.17 1.95.82 3.97 1.67 5.8 3.02 1.74 1.37 1.91 4.31.89 5.93-.49.78-1.19 1.19-1.99 1.19h.01ZM269.23 99.09c-1.01 0-2.04-.34-2.84-1.34-.68-.58-6.69-5.97-9.75-17.04 0-.03-1.18-4-2.81-6.52l1.09-.71c1.74 2.68 2.92 6.7 2.97 6.87 3.06 11.09 9.32 16.39 9.38 16.44l.1.1c1.52 1.94 4.33.11 4.36.09 4.29-2.58 11.17-13.07 11.24-13.18l1.09.71c-.29.44-7.12 10.85-11.63 13.56-.71.48-1.94 1.01-3.2 1.01v.01ZM307.7 49.2c-3.7 0-6.5-.53-8.17-.85-.61-.12-1.14-.22-1.36-.22-.21 0-.63.07-1.18.16-1.73.29-4.95.83-10.54.83h-.3l-.19-.23c-.09-.11-.91-1.1-.61-2.21.13-.47.43-.87.89-1.18-.37-.45-.72-1.06-.62-1.75.11-.79.76-1.41 1.93-1.84.26-.09 5.8-1.9 10.2-2.01h.2c4.47.07 10.55 1.92 10.81 2 1.09.46 1.44 1.13 1.55 1.61.16.69-.07 1.37-.33 1.86.51.29.77.67.89.99.45 1.12-.29 2.33-.38 2.46l-.18.28-.33.02c-.76.04-1.53.07-2.28.07v.01Zm-9.53-2.37c.34 0 .84.1 1.6.24 1.63.31 4.35.83 7.93.83.59 0 1.2-.01 1.84-.05.12-.29.24-.7.12-1-.1-.24-.37-.42-.82-.52l-1.03-.25.69-.8c.18-.21.66-.93.54-1.46-.06-.27-.31-.5-.73-.68 0 0-6.11-1.86-10.37-1.92-4.21.06-9.9 1.92-9.96 1.94-.63.23-1.03.52-1.07.79-.05.37.47.95.84 1.22l.99.73-1.17.4c-.39.13-.87.37-.97.72-.07.26.06.58.19.8 5.28-.02 8.33-.54 9.99-.82.65-.11 1.08-.18 1.4-.18l-.01.01Z"/><path d="m291.63 41.74-1.18-.55c2.21-4.77 7.04-4.95 7.24-4.95l.04 1.3c-.17 0-4.24.18-6.1 4.2Z"/><path d="M303.7 41.74c-1.86-4.04-5.96-4.2-6.01-4.2l.03-1.3c.2 0 4.96.18 7.15 4.95l-1.18.54.01.01Z"/><path d="M287.4 43h-1.3c.03-2.64 2.26-6.07 2.35-6.22 3.82-5.76 9.34-4.26 9.4-4.24l.47.14v4.22h-1.3v-3.2c-1.26-.19-4.78-.27-7.48 3.8-.02.03-2.11 3.25-2.14 5.5Z"/><path d="M307.9 42.47c-.87-3.35-1.96-4.95-1.97-4.96-3.34-4.96-7.82-3.77-8.01-3.72l-.36-1.25c.06-.02 5.56-1.52 9.44 4.23.04.06 1.22 1.77 2.15 5.37l-1.26.33h.01ZM280.12 67.48h-1.3c0-1.69.97-2.96 1.01-3.02 0-.01 1.37-1.86 1.46-3.67.2-3.2.9-5.53 2.07-6.93 2.16-2.92 2.44-5.42 2.44-5.44l1.29.13c-.01.12-.31 2.89-2.71 6.12-1 1.2-1.61 3.34-1.79 6.2-.11 2.21-1.66 4.3-1.72 4.39-.01.01-.74 1-.74 2.23l-.01-.01ZM315.39 67.16c-.35-2.14-1.24-3.35-1.25-3.37-.11-.16-1.95-3.05-2.07-6.47-.1-2.44-.66-3.92-1.6-5.66-.88-1.66-1.16-3.01-1.17-3.06l1.27-.26s.26 1.23 1.04 2.71c1 1.85 1.64 3.54 1.75 6.22.11 3.06 1.82 5.75 1.84 5.77.02.02 1.07 1.42 1.47 3.9l-1.28.21v.01ZM297.52 60.33c-8.94-1.3-8.69-9.87-8.69-9.96v-1.89h1.3v1.91c-.01.33-.19 7.52 7.48 8.64h.25c7.62-1.12 7.43-8.31 7.42-8.62v-1.94h1.3v1.91c0 .06.22 8.64-8.63 9.93h-.44l.01.02Z"/><path d="M299.93 55.41c-.27 0-.58-.04-.89-.18a1.79 1.79 0 0 0-.39-.15c-.24.18-.56.18-.71.18-.15 0-.47 0-.72-.19-.08.02-.22.08-.33.13-.85.37-1.58.12-1.66.09a.645.645 0 0 1-.39-.83c.12-.34.49-.51.83-.39 0 0 .32.1.65-.04.09-.06.92-.49 1.58-.12h.07c.68-.36 1.5.07 1.66.16.21.09.56.02.63 0a.65.65 0 1 1 .4 1.24 2.3 2.3 0 0 1-.73.11v-.01Z"/><path d="M297.93 56.81c-.69 0-1.14-.29-1.2-.33-.3-.2-.37-.61-.17-.9.2-.29.6-.37.89-.18.03.02.41.23 1 0 .34-.12.71.05.83.39s-.05.71-.39.83c-.36.13-.68.18-.97.18l.01.01ZM287.84 46.26c-.36 0-.6-.03-.62-.04l.19-1.29s.68.09 1.47-.09c.33-.07.6-.15.86-.23.75-.22 1.53-.45 3.37-.45v1.3c-1.65 0-2.27.19-3 .4-.29.09-.59.17-.95.25-.51.12-.97.15-1.32.15ZM308.54 46.26c-.35 0-.82-.03-1.34-.15-.34-.08-.62-.16-.9-.25-.68-.21-1.33-.41-3-.41v-1.3c1.86 0 2.63.23 3.37.46.25.08.5.15.8.22.82.18 1.47.09 1.48.09l.19 1.29s-.25.04-.61.04l.01.01ZM283.08 68.16l-.6-1.15c2.47-1.28 6.39-3.07 6.42-3.09 2.33-1.29 2.83-4.02 2.83-4.05l.21-2.53 1.29.11-.22 2.58c-.03.19-.6 3.43-3.54 5.05-.08.04-3.96 1.82-6.41 3.09l.02-.01ZM311.7 68.33c-.37-.44-3.43-2.02-6.06-3.23-3.17-1.47-3.54-4.99-3.55-5.14l-.15-2.33 1.3-.08.15 2.31s.32 2.91 2.8 4.06c6.38 2.94 6.61 3.63 6.69 3.89l-1.23.41c.02.07.05.11.06.11h-.01ZM292.17 88.07c-3.49 0-6.24-.95-8.17-2.84-2.97-2.9-2.94-7.05-2.93-7.51h1.3v.04c-.01.4-.04 4.03 2.54 6.54 1.85 1.81 4.62 2.62 8.24 2.45l.07 1.3c-.35.02-.7.03-1.04.03l-.01-.01ZM274.15 184.15l-1.3-.03 1.18-47.38c1.15-24.16 9.13-29.85 9.47-30.08l.73 1.07c-.08.05-7.79 5.68-8.9 29.05l-1.18 47.36v.01ZM320.9 162.068l-1.297.087 1.508 22.35 1.297-.088-1.508-22.349ZM321.02 137.51h-1.3c0-19.46-8.62-29.82-8.71-29.92l.99-.84c.37.43 9.02 10.8 9.02 30.77v-.01ZM273.76 236.91c-1.24 0-2.48-.22-3.21-.7-.33-.2-1.86-.09-3.02.14l-.11.02-.11-.02c-.28-.04-1.72-.28-2.31-1.12-.49-.71-.63-1.36-.41-1.92.41-1.06 1.87-1.4 3.28-1.72l.12-.03c.24-.06.59-.11 1.01-.16 1.25-.17 3.15-.43 4.43-1.33 1.68-1.16 3.33-2.16 4.92-3.13l.36-.22.68 1.11-.36.22c-1.65 1-3.2 1.95-4.85 3.08-1.54 1.08-3.62 1.36-5 1.55-.37.05-.68.09-.89.14l-.12.03c-.87.2-2.19.51-2.36.92-.05.13.05.4.26.71.17.25.84.47 1.32.56.81-.16 2.96-.49 3.86.06 1.26.84 4.72.49 5.3-.03 1.21-1.16 6.62-.71 10.88.02.93.16 1.62 0 2.12-.51 1.37-1.39 1.03-5.03.79-6.31l1.28-.24c.04.22.98 5.32-1.14 7.47-.8.82-1.9 1.11-3.26.88-6.05-1.04-9.35-.75-9.77-.35-.61.55-2.14.88-3.67.88h-.02ZM318.54 241.55c-.8 0-1.71-.11-2.6-.36-1.6-.45-3.72-1.52-4.71-4.04-.3-.78-1.07-.84-2.31-.84-.42 0-.82 0-1.18-.06-1.02-.1-2.07-.78-2.62-1.73-.48-.83-.54-1.76-.16-2.61.54-1.14 1.06-3.71 1.06-3.74l1.28.25c-.02.11-.55 2.76-1.16 4.04-.26.57-.09 1.08.1 1.41.34.59 1.01 1.03 1.67 1.09.3.05.65.05 1.01.05 1.15 0 2.89 0 3.52 1.67.59 1.5 1.75 2.56 3.46 3.14 1.97.67 3.79.4 4.08.23 1.01-.75 1.56-1.45 1.58-1.99.03-.63-.66-1.23-1.32-1.82-.6-.53-1.16-1.03-1.37-1.67-.76-2.41-3.38-4.26-3.4-4.28-.11-.09-1.35-1.17-2.14-2.3l1.07-.74c.7 1 1.86 2.01 1.87 2.02.07.04 2.95 2.08 3.84 4.9.1.3.55.7 1 1.09.81.71 1.81 1.6 1.76 2.85-.04.98-.73 1.96-2.11 2.99-.37.28-1.2.45-2.21.45h-.01ZM270.82 88.64l-1.2-.49c1.13-2.75 5.29-10.75 5.47-11.09l1.15.6c-.04.08-4.31 8.29-5.42 10.99v-.01ZM298.02 50.95c-.36 0-.65-.29-.65-.65v-2.73c0-.36.29-.65.65-.65.36 0 .65.29.65.65v2.73c0 .36-.29.65-.65.65ZM297.86 53.14c-.28 0-.66-.14-.81-.2l-.13-.05-.1-.1c-.14-.14-.32-.1-.33-.1-.35.1-.7-.11-.8-.46-.09-.35.11-.7.46-.8.32-.08.96-.1 1.47.34.1.03.2.06.24.07.04 0 .16-.03.28-.07.6-.54 1.4-.37 1.49-.35.35.08.56.43.48.78a.64.64 0 0 1-.77.48c-.05-.01-.27-.03-.35.07l-.1.12-.15.06c-.08.03-.52.2-.89.2l.01.01Z"/><path d="M269.53 88.61c-1.02-1.94-3.31-5.64-8.4-12.24l-.2-.29c-.1-.13-1.72-2.44-1.79-4.78-.05-1.39-.59-4.34-1.31-4.97-.27-.24-2.02-1.2-3.58-2.01-.5.13-1.39.4-1.85.69l-.7-1.1c.83-.53 2.32-.88 2.48-.92l.23-.05.21.11c1.36.7 3.7 1.94 4.09 2.33 1.26 1.11 1.68 4.98 1.72 5.87.06 1.96 1.5 4.01 1.52 4.03l.26.36c5.09 6.6 7.42 10.36 8.47 12.35l-1.15.61v.01Z"/><path d="M254.98 71.25c-.15 0-.31-.01-.49-.05-.91-.19-4.7-1.47-5.13-1.61l-.21-.07-.12-.19c-.05-.07-.3-.48-.41-1.26-.03-.81.69-1.36 1.28-1.67-.08-.39-.01-.72.07-.95.36-.96 1.45-1.4 1.58-1.44l.22-.08.22.08c.13.05 3.17 1.18 4.56 3.38l.09.23c.03.16.14.93-.36 1.43.16.4.21.92.06 1.32-.1.29-.43.88-1.38.88h.02Zm-4.94-2.8c1.3.44 4.05 1.35 4.7 1.48.3.05.41 0 .41 0 .03-.05 0-.27-.06-.38-.51-.31-1.52-.75-2.42-1.14-.72-.31-1.45-.63-2.02-.91-.34.16-.65.36-.73.49.03.2.08.36.12.47v-.01Zm5.08-.42c.22.08.31.06.31.06s-.04-.06-.04-.13c-.98-1.44-2.91-2.35-3.59-2.64-.22.12-.51.33-.6.58-.03.08-.05.21.04.42.53.26 1.25.58 1.95.88.71.31 1.39.6 1.92.86v-.04l.01.01Z"/><path d="m254.33 72.69-.15-1.29c-.05-.13-.14-.31-.25-.44l1.03-.79c.18.24.76 1.07.45 1.81-.1.23-.37.63-1.09.72l.01-.01ZM263.15 69.84c-.45 0-.94-.13-1.46-.4l-2.8-1.37.57-1.17 2.81 1.38c.47.24.86.32 1.14.22.24-.08.36-.28.36-.28l.53-1.07c.34-.75-.37-1.14-.6-1.24l-12.43-6.1c-.25-.13-1.01-.44-1.49-.29-.16.05-.27.14-.35.31-.34.63-.72 1.35-.59 1.74.07.21.31.42.71.62l3.53 1.79-.59 1.16-3.52-1.79c-.74-.36-1.19-.82-1.37-1.39-.29-.92.2-1.85.68-2.75.24-.46.63-.79 1.12-.94 1.09-.34 2.33.3 2.47.37l12.39 6.08c.08.03.96.44 1.3 1.33.2.51.17 1.08-.09 1.64l-.54 1.08c-.03.06-.34.68-1.11.94-.22.07-.44.11-.68.11l.01.02Z"/><path d="m260.02 63.15-1.17-.56 23.39-49.74-.63-2.14-1.95 1-23.26 49.57-1.18-.55 23.45-49.97 3.75-1.92 1.2 4.12-23.6 50.19ZM297.34 109.26v-1.3c4.71 0 11.03-.97 13.24-1.34-.24-.72-.48-1.89-.33-3.44.72-7.28 1.28-18.63 1.29-18.74l1.3.06c0 .11-.57 11.49-1.29 18.8-.21 2.22.51 3.47.52 3.48l.48.81-.92.17c-.08.02-8.39 1.5-14.28 1.5h-.01ZM297.34 109.26c-5.91 0-13.69-1.48-13.77-1.5l-.92-.18.49-.8s.73-1.26.52-3.48c-.76-7.32-.98-18.51-.98-18.62l1.3-.02c0 .11.22 11.25.98 18.52.14 1.56-.11 2.73-.35 3.45 2.12.37 8.04 1.33 12.73 1.33v1.3Z"/><path d="M303.18 88.08c-.43 0-.86-.01-1.31-.04l.07-1.3c4.37.22 7.51-.7 9.33-2.76 2.3-2.59 1.72-6.12 1.71-6.15l1.28-.22c.03.17.68 4.19-2.02 7.23-1.91 2.15-4.95 3.23-9.06 3.23v.01Z"/><path d="M331.2 132.77c-.84-1.77-1.74-4.08-1.26-6.14.12-.52.26-2.54.33-3.77.09-.84-1.62-4.61-3.33-7.8-3.86-5.7-5.07-8.06-6.25-10.34-.23-.45-.46-.9-.71-1.37-.67-1.27-1.22-2.71-1.8-4.24-.83-2.16-1.76-4.61-3.24-7.05-1.85-3-3.32-7.56-3.39-7.75l1.24-.4s1.49 4.6 3.26 7.47c1.54 2.55 2.5 5.05 3.35 7.26.57 1.49 1.1 2.89 1.74 4.09.25.47.48.93.72 1.38 1.16 2.25 2.36 4.58 6.21 10.27.64 1.2 3.67 6.97 3.51 8.57-.01.29-.17 3.16-.36 3.96-.39 1.68.42 3.71 1.17 5.29l-1.18.55-.01.02Z"/><path d="M335.63 134.98c-.32 0-.71-.11-1.11-.49l.88-.96c.11.1.2.16.25.14.29-.09.74-.96.93-1.66l.22-.84.74.45s.14.05.18.03c.06-.03.22-.26.28-.91v-.14l.33-.57.22.05c.06-.05.13-.09.2-.14.35-.23.43-.33.43-.48 0-.29.13-.45.21-.54.1-.12.25-.3.25-.62.02-.2.04-.34.06-.49.11-.75.23-1.6-.4-2.5l-.25-.37c-.73-1.08-2.09-3.09-3.12-3.91-2.08-1.53-3.36-7.12-3.5-7.75-2.66-11.08-5.64-14.44-5.67-14.48l-.1-.14c-.97-1.87-1.54-4.02-2.25-6.73-.94-3.57-2.11-8.01-4.77-14.18l1.19-.51c2.7 6.26 3.88 10.75 4.84 14.36.69 2.6 1.23 4.66 2.12 6.39.48.56 3.34 4.26 5.92 14.99.35 1.6 1.58 5.95 3.03 7.01 1.2.96 2.58 2.99 3.41 4.21l.25.36c.92 1.32.74 2.59.62 3.43-.02.13-.04.25-.05.37 0 .61-.28 1.04-.46 1.27-.06.76-.69 1.17-1 1.38-.04.03-.08.05-.12.08-.03.05-.07.09-.11.13-.13.8-.45 1.33-.94 1.58-.24.12-.48.15-.67.14-.27.7-.79 1.71-1.62 1.96-.11.03-.24.05-.38.05l-.04.03Z"/><path d="m340.68 126.13-1.14-.62 5.59-10.36v-.49h.16a1.17 1.17 0 0 0-.57-.81c-.29-.17-.62-.23-.87-.16-.13.04-.22.1-.27.2l-.18.35h-.06l-5.06 8.6-1.12-.66 5.44-9.24h.08c.21-.23.49-.4.81-.5.6-.17 1.29-.07 1.89.29 1.02.61 1.48 1.83 1.05 2.74v.02l-.06.09-.02.03-5.67 10.51v.01ZM317.909 140.066l-10.397 11.563.967.869 10.397-11.563-.967-.869ZM320.855 139.747l-.961.875 10.941 12.028.962-.874-10.942-12.029ZM320.73 137.24h-.81v1.3h.81v-1.3Z"/><path d="M321.78 137.24h-1.05v1.3h1.05v-1.3Z"/><path d="M319.58 162.35c-4.84 0-11.87-3.88-12.08-10.12l-.02-.67h10.41v-10.23c-.2.05-.39.11-.57.17-1.66.72-3.14.82-4.03.27-.51-.32-.81-.84-.85-1.48-.04-.47.12-.93.46-1.32.95-1.06 3.42-1.62 7.56-1.73h2.2c2.72.1 5.02-1.18 5.66-1.57l.68 1.11c-.72.44-3.32 1.87-6.36 1.76h-2.16c-5.03.13-6.3.95-6.61 1.3a.5.5 0 0 0-.14.36c.02.3.13.4.24.47.41.26 1.46.24 2.87-.37.32-.12.64-.2.97-.29.17-.05.35-.09.54-.15l.83-.24v13.24h-10.34c.66 5 6.68 8.19 10.73 8.19h.13c4.27-.06 10.23-2.94 10.89-8.19H319.7V139.7l.59-.06c1.02-.1 2.01-.11 2.7-.03.81.1 3.11-.41 5.76-1.58l.53 1.19c-2.63 1.16-5.22 1.84-6.45 1.68-.47-.06-1.12-.06-1.82-.02v10.68h10.96l-.03.67c-.25 6.48-7.26 10.04-12.22 10.12h-.16.02Z"/><path d="M343.37 162.35h-.15c-4.99-.08-12.01-3.63-12.23-10.12l-.02-.67h10.96v-10.69c-.65-.03-1.27-.02-1.66.03-1.23.19-4.12-.57-6.57-1.73l.56-1.17c2.58 1.22 5.08 1.73 5.83 1.61.62-.08 1.59-.08 2.55 0l.6.05v13.2h-10.89c.64 5.25 6.61 8.13 10.9 8.19h.13c4.03 0 10.03-3.19 10.69-8.19h-10.3V139.7l.77.15c.59.12 1.22.25 1.69.45 1.42.61 2.47.63 2.88.36.1-.06.2-.17.21-.42.01-.14 0-.25-.14-.41-.84-.9-4.36-1.41-8.75-1.29-2.57.1-4.28-.88-5.8-1.74-.36-.2-.71-.4-1.05-.57l-.62-.31.35-.6c.68-1.16 1.44-2.49 1.59-2.82.05-.63-.45-1.32-.89-1.78l-2.73 3.95-1.07-.74 3.53-5.12.54.41c.09.07 2.14 1.63 1.89 3.5-.02.14-.04.33-1.41 2.66.16.09.33.18.5.28 1.44.82 2.92 1.65 5.12 1.57 2.39-.07 8.11-.04 9.74 1.7.37.4.54.87.49 1.38-.01.59-.3 1.12-.81 1.44-.89.57-2.39.47-4.1-.27-.18-.08-.4-.14-.64-.2v10.27h10.38l-.02.67c-.21 6.24-7.21 10.12-12.04 10.12l-.01.01Z"/><path d="m344.957 139.95-.97.866 10.392 11.647.97-.865-10.392-11.648ZM342.099 139.745l-10.947 12.023.961.875 10.947-12.022-.961-.876ZM331.23 140.83c-1.92 0-3.42-1.56-3.42-3.55 0-1.99 1.5-3.47 3.42-3.47s3.4 1.56 3.4 3.47c0 1.91-1.52 3.55-3.4 3.55Zm0-5.72c-1.19 0-2.12.95-2.12 2.17s.93 2.25 2.12 2.25 2.1-1.01 2.1-2.25-.94-2.17-2.1-2.17ZM337.1 132.9c-.06 0-.12 0-.18-.02a.658.658 0 0 1-.45-.8c.02-.08.44-1.82-1.41-3.48a.65.65 0 0 1-.05-.92.65.65 0 0 1 .92-.05c2.48 2.23 1.83 4.7 1.8 4.8-.08.29-.34.47-.63.47Z"/><path d="M338.59 131.81c-.36 0-.65-.3-.64-.66 0-.64-.15-2.52-.93-3.46a.66.66 0 0 1 .08-.92.64.64 0 0 1 .91.09c1.25 1.5 1.23 4.19 1.23 4.31 0 .36-.29.64-.65.64Z"/><path d="M339.83 130.02c-.35 0-.64-.28-.65-.64 0-.5-.16-1.96-.76-2.68a.66.66 0 0 1 .08-.92c.28-.23.68-.2.92.08 1 1.2 1.06 3.27 1.06 3.5 0 .36-.28.65-.64.66h-.01ZM270.52 91.62c-.32 0-.6-.24-.64-.56l-.42-3.08a.65.65 0 0 1 1.29-.17l.42 3.08c.05.36-.2.68-.56.73h-.09ZM101.8 93.38h-.08a.64.64 0 0 1-.56-.73l.39-3.09a.64.64 0 0 1 .73-.56c.36.04.61.37.56.73l-.39 3.09c-.04.33-.32.57-.64.57l-.01-.01ZM98 161.04c-2.86 0-10.96-.38-15.5-4.41-1.21 1.13-4.6 3.93-8.73 3.93v-1.3c4.49 0 8.21-3.94 8.24-3.98l.46-.49.48.48c4.01 4.03 12.14 4.45 14.99 4.46-1.15-2.96-1.54-9.13-1.58-9.91-.63-28.24-4.4-34.57-7.14-39.2-.66-1.11-1.28-2.15-1.76-3.37-.37-.94-.72-2.2-.46-4.35.53-4.48 1.32-16.2 1.32-16.31l1.3.09c0 .12-.8 11.87-1.33 16.38-.22 1.86.05 2.89.38 3.72.44 1.12 1.01 2.07 1.67 3.18 2.82 4.75 6.69 11.25 7.33 39.81.13 2.29.73 8.63 1.86 10.22l.69.97-1.19.06c-.08 0-.44.02-1.02.02H98Z"/><path d="M74.12 110.49h-.35c-.32 0-7.96-.03-13.95-2.46l.49-1.21c5.76 2.34 13.39 2.37 13.46 2.37h.35c.08 0 7.76-.03 13.51-2.37l.49 1.2c-5.98 2.43-13.67 2.46-14 2.46v.01ZM318.84 141.11l-.36-1.25c.62-.18 1.58-.23 2-.23v1.3c-.4 0-1.2.05-1.65.17l.01.01ZM344.54 141.15c-.32-.11-1.54-.25-1.78-.24l-.05-.59-.71-.22.34-.4c.5-.26 2.44.16 2.62.22l-.41 1.23h-.01ZM218.83 164.22l-1.18-.54c.36-.8.15-1.34-.12-2.03-.29-.74-.66-1.66-.12-2.85l.09-.2.2-.1c1.02-.53 1.89-.05 2.46.26.09.05.19.1.29.15.2-1.31 1.22-2.06 2.21-2.78.26-.19.53-.39.8-.6l.39-.31.4.29c1.96 1.42 2.66 4 1.88 6.9l-1.26-.34c.58-2.15.19-4.05-1.02-5.2-.14.11-.29.21-.43.32-1.17.86-1.78 1.35-1.71 2.39l.03.46-.42.18c-.68.29-1.3-.04-1.79-.32-.47-.26-.75-.38-1.03-.32-.18.57 0 1.01.23 1.6.31.78.69 1.75.1 3.05v-.01Z"/><path d="M219.23 165.86c-.39-2.7 1.6-4.9 1.68-4.99l.96.88s-1.65 1.85-1.35 3.93l-1.29.19v-.01ZM334.19 130.75c-.22 0-.43-.11-.55-.31-.37-.6-1.09-.85-1.09-.85a.653.653 0 0 1-.41-.82.65.65 0 0 1 .82-.41c.12.04 1.17.41 1.79 1.39a.652.652 0 0 1-.55 1h-.01ZM207.83 219.65l-.48-.32c-.13-.09-1.27-.88-1.3-2.02-.01-.44.15-1.1.96-1.71 1.09-.83 2.32-1.25 3.65-1.25 1.52 0 2.63.56 2.68.59l.13.07.09.12c.93 1.24.4 2.58 0 3.12l-.33.43-.48-.24c-.6-.3-1.2-.45-1.78-.45-1.68 0-2.76 1.22-2.77 1.24l-.38.43.01-.01Zm2.84-4c-1.04 0-2.01.33-2.87.98-.3.22-.45.44-.44.64 0 .21.16.45.34.64.6-.5 1.75-1.24 3.28-1.24.59 0 1.18.11 1.77.33.07-.26.09-.61-.13-.98-.29-.12-1.03-.38-1.94-.38l-.01.01ZM212.97 212.17l-.11-.53c-.63-3.12-4.38-4.01-4.42-4.02l-.54-.12.04-.55c.07-.97.63-2.8 2.3-2.8.29 0 .61.06.93.18 3.76 1.3 5.08 5.27 5.13 5.44l.05.17-.04.17c-.34 1.6-1.99 2.05-2.81 2.06h-.54.01Zm-3.64-5.65c1.19.4 3.8 1.56 4.66 4.26.37-.1.84-.31 1.02-.8-.28-.72-1.52-3.5-4.27-4.44-.19-.07-.35-.1-.5-.1-.54 0-.8.62-.92 1.09l.01-.01Z"/><path d="M216.48 209.73h-.83v1.3h.83v-1.3ZM120.87 32.5c-1.88 0-3.97-1.09-4.93-3.5-1.01-2.61-.07-5.79 2-6.81l.58 1.16c-1.33.66-2.2 3.01-1.36 5.17.9 2.26 2.99 3 4.58 2.57l.35 1.25c-.38.11-.79.16-1.21.16h-.01ZM250.33 32.35c-.43 0-.85-.06-1.25-.16l.35-1.25c1.59.44 3.74-.31 4.59-2.56.83-2.17 0-4.52-1.32-5.18l.59-1.16c2.07 1.05 2.97 4.16 1.95 6.8-.91 2.42-3 3.52-4.9 3.52l-.01-.01ZM21.67 271.98v22.06h7.56v3.65H17.79v-25.7h3.88v-.01ZM49.03 291.44h-11l-2.86 6.24h-4.18l12.72-27.32 12.27 27.32h-4.25l-2.7-6.24Zm-1.59-3.65-3.81-8.74-4 8.74h7.81ZM59.52 297.68v-27.45l18.74 19.61v-17.86h3.88v27.27L63.4 279.69v18h-3.88v-.01ZM88.64 297.68v-25.7h5.39c2.59 0 4.63.26 6.13.77 1.61.5 3.07 1.35 4.38 2.55 2.65 2.42 3.98 5.6 3.98 9.54 0 3.94-1.38 7.15-4.14 9.59-1.39 1.22-2.84 2.07-4.36 2.55-1.42.48-3.44.72-6.04.72h-5.33l-.01-.02Zm3.88-3.65h1.75c1.74 0 3.19-.18 4.34-.55 1.15-.39 2.2-1 3.13-1.85 1.91-1.74 2.86-4.01 2.86-6.81s-.94-5.11-2.83-6.86c-1.7-1.56-4.2-2.35-7.51-2.35h-1.75v18.41l.01.01ZM128.27 275.79l-3.15 1.87c-.59-1.02-1.15-1.69-1.68-2-.56-.36-1.27-.53-2.15-.53-1.08 0-1.97.31-2.68.92-.71.6-1.07 1.36-1.07 2.27 0 1.26.93 2.27 2.8 3.03l2.56 1.05c2.09.84 3.61 1.87 4.58 3.09.97 1.22 1.45 2.71 1.45 4.47 0 2.37-.79 4.32-2.36 5.86-1.59 1.55-3.56 2.33-5.91 2.33-2.23 0-4.07-.66-5.53-1.99-1.43-1.32-2.33-3.19-2.68-5.58l3.93-.87c.18 1.51.49 2.55.93 3.13.8 1.11 1.96 1.66 3.5 1.66 1.21 0 2.21-.4 3.01-1.21.8-.81 1.2-1.83 1.2-3.08 0-.5-.07-.96-.21-1.37-.14-.42-.35-.8-.65-1.15-.29-.35-.67-.68-1.14-.98-.47-.3-1.02-.6-1.66-.87l-2.48-1.03c-3.52-1.49-5.28-3.66-5.28-6.52 0-1.93.74-3.54 2.21-4.84 1.48-1.31 3.31-1.96 5.51-1.96 2.96 0 5.28 1.44 6.94 4.31l.01-.01ZM137.83 282.23l10-10.25h5.18l-11.62 11.64 11.69 14.07h-5.19l-9.26-11.44-.8.8v10.64h-3.88v-25.7h3.88v10.25-.01ZM165.59 286.73l7.96 10.95h-4.75l-7.34-10.52h-.7v10.52h-3.88v-25.7h4.54c3.4 0 5.85.64 7.36 1.91 1.67 1.42 2.5 3.3 2.5 5.63 0 1.82-.52 3.38-1.56 4.7-1.04 1.31-2.42 2.15-4.13 2.51Zm-4.83-2.95h1.23c3.67 0 5.51-1.4 5.51-4.21 0-2.63-1.79-3.95-5.36-3.95h-1.38v8.16ZM175.89 284.71c0-3.62 1.33-6.72 3.98-9.32 2.64-2.6 5.81-3.89 9.52-3.89s6.8 1.31 9.42 3.93c2.63 2.62 3.95 5.77 3.95 9.44s-1.32 6.83-3.96 9.41c-2.65 2.59-5.85 3.88-9.6 3.88-3.32 0-6.3-1.15-8.94-3.45-2.91-2.54-4.36-5.87-4.36-9.99l-.01-.01Zm3.91.04c0 2.84.95 5.17 2.86 7 1.9 1.83 4.09 2.74 6.57 2.74 2.7 0 4.97-.93 6.83-2.79 1.85-1.88 2.78-4.18 2.78-6.88s-.92-5.04-2.75-6.89c-1.82-1.86-4.07-2.79-6.76-2.79-2.69 0-4.93.93-6.78 2.79-1.84 1.84-2.76 4.11-2.76 6.82h.01ZM207.29 297.68v-27.45l18.74 19.61v-17.86h3.88v27.27l-18.74-19.56v18h-3.88v-.01ZM251.71 291.44h-11l-2.86 6.24h-4.18l12.72-27.32 12.27 27.32h-4.24l-2.7-6.24h-.01Zm-1.58-3.65-3.81-8.74-4 8.74h7.81ZM287.6 275.79l-3.15 1.87c-.59-1.02-1.15-1.69-1.68-2-.55-.36-1.27-.53-2.15-.53-1.08 0-1.97.31-2.68.92-.71.6-1.06 1.36-1.06 2.27 0 1.26.93 2.27 2.8 3.03l2.56 1.05c2.09.84 3.61 1.87 4.58 3.09.96 1.22 1.45 2.71 1.45 4.47 0 2.37-.79 4.32-2.37 5.86-1.59 1.55-3.56 2.33-5.91 2.33-2.23 0-4.07-.66-5.53-1.99-1.43-1.32-2.32-3.19-2.68-5.58l3.93-.87c.18 1.51.49 2.55.93 3.13.8 1.11 1.96 1.66 3.5 1.66 1.21 0 2.21-.4 3.01-1.21.8-.81 1.2-1.83 1.2-3.08 0-.5-.07-.96-.21-1.37-.14-.42-.36-.8-.65-1.15-.29-.35-.67-.68-1.14-.98-.47-.3-1.02-.6-1.66-.87l-2.48-1.03c-3.52-1.49-5.28-3.66-5.28-6.52 0-1.93.74-3.54 2.21-4.84 1.48-1.31 3.31-1.96 5.51-1.96 2.96 0 5.28 1.44 6.94 4.31l.01-.01ZM300.86 275.62v22.06h-3.88v-22.06h-5.91v-3.65h15.68v3.65h-5.89ZM324.25 291.44h-11l-2.86 6.24h-4.18l12.72-27.32 12.27 27.32h-4.24l-2.7-6.24h-.01Zm-1.58-3.65-3.81-8.74-4 8.74h7.81ZM334.75 297.68v-25.7h5.39c2.59 0 4.63.26 6.13.77 1.61.5 3.07 1.35 4.38 2.55 2.65 2.42 3.98 5.6 3.98 9.54 0 3.94-1.38 7.15-4.15 9.59-1.39 1.22-2.84 2.07-4.36 2.55-1.42.48-3.43.72-6.04.72h-5.33v-.02Zm3.88-3.65h1.75c1.74 0 3.19-.18 4.34-.55 1.15-.39 2.2-1 3.13-1.85 1.91-1.74 2.86-4.01 2.86-6.81s-.94-5.11-2.83-6.86c-1.7-1.56-4.2-2.35-7.51-2.35h-1.75v18.41l.01.01Z"/></g><defs><clipPath id="a"><path fill="#fff" d="M0 0h355.44v299.24H0z"/></clipPath></defs></svg>